<svg width="600" height="440" fill="none" xmlns="http://www.w3.org/2000/svg"><g clip-path="url(#a)"><path d="M345.624 422.355C200.799 461.161 55.455 388.348 20.99 259.723-13.475 131.097 109.407 68.07 254.233 29.264 399.058-9.542 544.402 63.272 578.867 191.897c34.465 128.625-88.417 191.652-233.243 230.458z" fill="#E3ECE3"/><path d="M345.624 422.355C200.799 461.161 55.455 388.348 20.99 259.723-13.475 131.097 109.407 68.07 254.233 29.264 399.058-9.542 544.402 63.272 578.867 191.897c34.465 128.625-88.417 191.652-233.243 230.458z" fill="#FFEEAD"/><path opacity=".3" d="M430.211 347.867c-53.087-2.274-96.361 1.421-96.654 8.253-.292 6.832 47.446 10.371 100.534 12.646 53.088 2.274 96.362-1.421 96.654-8.253.293-6.832-47.446-10.372-100.534-12.646z" fill="#FFD731"/><path opacity=".7" d="M562.087 268.106c1.129.128 2.54 1.029-4.784 2.861-39.347 9.872-145.205 32.975-185.523 41.41-49.074 10.267-84.217 11.235-124.738 11.235S76.85 315.063 58.439 312.151c-18.412-2.913 26.292-17.885 74.716-22.136 48.424-4.251 261.517-33.551 261.517-33.551s161.083 10.906 167.415 11.637v.005z" fill="#FFE788"/><path d="M95.554 299.577c-21.91 0-39.672-22.664-39.672-50.622s17.762-50.622 39.672-50.622c21.911 0 39.673 22.664 39.673 50.622s-17.762 50.622-39.673 50.622z" fill="#162C30"/><path d="M95.13 198.338h23.818l-2.722 102.84-21.096-1.601V198.338z" fill="#162C30"/><path d="M116.843 301.157c-21.092 0-38.19-22.943-38.19-51.245 0-28.301 17.098-51.245 38.19-51.245s38.19 22.944 38.19 51.245c0 28.302-17.098 51.245-38.19 51.245z" fill="#162C30"/><path d="M119.301 289.145c-15.544 0-28.144-17.565-28.144-39.233 0-21.667 12.6-39.232 28.144-39.232 15.543 0 28.144 17.565 28.144 39.232 0 21.668-12.601 39.233-28.144 39.233z" fill="#F0F2F8"/><path d="M119.907 285.234c-13.684 0-24.777-15.814-24.777-35.322 0-19.507 11.093-35.321 24.777-35.321 13.684 0 24.777 15.814 24.777 35.321 0 19.508-11.093 35.322-24.777 35.322z" fill="#162C30"/><path d="m123.329 211.915-2.871 31.96 23.327-11.574 1.951 6.767-24.308 12.167 19.216 21.724-3.273 5.934-20.06-22.341-10.768 27.4-4.69-4.936 10.3-27.858-19.988-7.895 1.477-7.998 19.542 8.08 2.788-31.842 7.357.412z" fill="#F0F2F8"/><path d="M108.808 249.912c0 6.269 3.648 11.354 8.145 11.354s8.145-5.085 8.145-11.354c0-6.268-3.648-11.353-8.145-11.353s-8.145 5.085-8.145 11.353z" fill="#A6B3C6"/><path d="M115.432 255.327c-2.143 0-3.88-2.424-3.88-5.415 0-2.99 1.737-5.414 3.88-5.414s3.88 2.424 3.88 5.414c0 2.991-1.737 5.415-3.88 5.415z" fill="#F0F2F8"/><path d="M123.836 122.369c3.582 2.11 3.262 10.134 5.687 14.791 0 0 4.133 2.929 2.452 5.152-.925 1.225-2.43 2.146-4.166 1.837-1.107-.195-2.926-1.888-4.001-3.129-5.345-.715-11.06-2.202-13.65-3.021-5.737-1.811-8.492-12.491-6.442-17.282 1.686-3.942 14.653-1.565 20.125 1.657l-.005-.005z" fill="#0C6291"/><mask id="b" style="mask-type:luminance" maskUnits="userSpaceOnUse" x="103" y="118" width="30" height="27"><path d="M123.836 122.369c3.582 2.11 3.262 10.134 5.687 14.791 0 0 4.133 2.929 2.452 5.152-.925 1.225-2.43 2.146-4.166 1.837-1.107-.195-2.926-1.888-4.001-3.129-5.345-.715-11.06-2.202-13.65-3.021-5.737-1.811-8.492-12.491-6.442-17.282 1.686-3.942 14.653-1.565 20.125 1.657l-.005-.005z" fill="#fff"/></mask><g mask="url(#b)"><path opacity=".15" d="M124.459 120.877c1.984 9.022 6.21 18.136-7.071 14.235-7.147-2.1-9.815-4.133-13.545-10.566-2.971-5.121-3.935-12.403-3.935-12.403l-1.3 26.34 30.215 7.046 3.158-2.069-2.662-4.519.177-3.829-5.032-14.235h-.005z" fill="#231F20"/></g><path d="m541.267 227.864-49.361 22.162-113.127 20.056-80.227-2.512-129.522-6.037 37.728-90.873 329.372 7.956s1.417 9.83 4.646 21.544.491 27.709.491 27.709v-.005z" fill="#151717"/><path d="M321.714 311.77c-22.829 0-41.337-24.985-41.337-55.805s18.508-55.805 41.337-55.805c22.83 0 41.337 24.985 41.337 55.805s-18.507 55.805-41.337 55.805z" fill="#162C30"/><path d="M321.714 200.16h28.183l-3.218 113.375-24.965-1.765V200.16zM481.446 234.02c0 23.309 8.063 42.207 17.999 42.207 9.936 0 17.998-18.898 17.998-42.207s-8.062-42.208-17.998-42.208c-9.936 0-17.999 18.893-17.999 42.208z" fill="#162C30"/><path d="M499.445 191.812h22.617l.43 85.455-23.047-1.04v-84.415z" fill="#162C30"/><path d="M503.793 234.539c0 23.598 8.371 42.728 18.698 42.728 10.328 0 18.704-19.13 18.704-42.728 0-23.597-8.371-42.727-18.704-42.727-10.332 0-18.698 19.13-18.698 42.727z" fill="#162C30"/><path d="M509.916 234.54c0 18.064 6.172 32.711 13.782 32.711 7.611 0 13.783-14.647 13.783-32.711 0-18.065-6.172-32.717-13.783-32.717-7.61 0-13.782 14.647-13.782 32.717z" fill="#F0F2F8"/><path d="M511.861 234.54c0 16.263 5.433 29.448 12.129 29.448s12.135-13.185 12.135-29.448c0-16.264-5.434-29.449-12.135-29.449s-12.129 13.185-12.129 29.449z" fill="#162C30"/><path d="m525.666 202.857-2.447 26.649 12.466-9.655.959 5.646-12.951 10.144 10.454 18.116-1.604 4.946-10.861-18.626-4.233 22.846-2.298-4.117 4.007-23.227-8.752-6.587.728-6.665 8.525 6.737 2.403-26.552 3.604.345z" fill="#F0F2F8"/><path d="M517.692 234.54c0 5.229 1.785 9.464 3.99 9.464 2.204 0 3.984-4.241 3.984-9.464 0-5.224-1.786-9.465-3.984-9.465-2.199 0-3.99 4.241-3.99 9.465z" fill="#A6B3C6"/><path d="M518.265 234.539c0 2.491.849 4.514 1.901 4.514 1.053 0 1.901-2.017 1.901-4.514 0-2.496-.848-4.513-1.901-4.513-1.052 0-1.901 2.022-1.901 4.513z" fill="#F0F2F8"/><path d="m541.267 227.864.104-9.85s-.992-36.711-17.017-35.924c-13.166.649-18.704 15.852-22.776 32.676-3.423 14.148-5.704 35.45-14.031 36.639-17.905 2.553-39.529 6.037-58.107 8.651-18.356 2.589-48.148 10.031-48.148 10.031 2.722-29.217-2.772-88.316-29.792-87.019-24.98 1.194-33.858 44.807-38.449 94.209-5.566 2.934-55.737 5.43-78.634 5.43-24.419 0-140.698-3.541-155.186-5.178-14.488-1.636-24.837-2.362-32.117-17.143-11.953-24.261-10.94-46.644-8.757-55.321 3.985-15.852 8.316-44.158 70.666-65.995 2.094-.736 12.945-.16 15.243-.649 46.765-39.788 98.027-70.683 140.119-76.02 41.006-5.209 107.462-7.792 156.74-9.712 33.252-1.292 66.086 15.527 94.142 46.582 9.869 7.277 17.05 12.131 17.05 12.131s12.901 51.193 15.243 55.073c2.97 4.931-.347 55.723-6.293 61.384v.005z" fill="#0C6291"/><mask id="c" style="mask-type:luminance" maskUnits="userSpaceOnUse" x="37" y="52" width="512" height="231"><path d="m541.267 227.864.104-9.85s-.992-36.711-17.017-35.924c-13.166.649-18.704 15.852-22.776 32.676-3.423 14.148-5.704 35.45-14.031 36.639-17.905 2.553-39.529 6.037-58.107 8.651-18.356 2.589-48.148 10.031-48.148 10.031 2.722-29.217-2.772-88.316-29.792-87.019-24.98 1.194-33.858 44.807-38.449 94.209-5.566 2.934-55.737 5.43-78.634 5.43-24.419 0-140.698-3.541-155.186-5.178-14.488-1.636-24.837-2.362-32.117-17.143-11.953-24.261-10.94-46.644-8.757-55.321 3.985-15.852 8.316-44.158 70.666-65.995 2.094-.736 12.945-.16 15.243-.649 46.765-39.788 98.027-70.683 140.119-76.02 41.006-5.209 107.462-7.792 156.74-9.712 33.252-1.292 66.086 15.527 94.142 46.582 9.869 7.277 17.05 12.131 17.05 12.131s12.901 51.193 15.243 55.073c2.97 4.931-.347 55.723-6.293 61.384v.005z" fill="#fff"/></mask><g mask="url(#c)"><path opacity=".2" d="M98.282 135.503c-59.577 16.176-23.266 32.151 17.321 33.644 78.387 2.877 210.261-36.233 210.261-36.233l-227.581 2.589z" fill="#fff"/><path opacity=".15" d="M309.932 287.874s-1.041-48.528 8.658-77.966c7.191-21.832 17.904-35.97 35.33-36.232 21.476-.325 39.143 50.143 27.02 97.374-3.946 15.362-71.013 16.824-71.013 16.824h.005zM491.63 257.046s3.279-39.619 9.198-56.536c5.191-14.838 13.81-24.863 25.168-25.054 13.998-.231 22.187 36.84 14.29 70.684-2.568 11.009-48.656 10.906-48.656 10.906z" fill="#610024"/><path opacity=".2" d="m346.397 136.152 159.071-30.329 10.394-6.068 17.144 11.163c-1.213 2.089-9.76 7.972-15.326 9.464-35.33 9.465-116.18 21.045-145.486 24.992l-6.801-6.433-9.925 1.107 7.28 6.515c-28.155 3.279-61.441 4.812-16.345-10.406l-.006-.005z" fill="#fff"/></g><path opacity=".2" d="M444.364 238.286c-22.986 3.654-55.021 9.722-48.171 12.007 6.85 2.285 34.79-3.721 52.993-7.251 43.442-8.42 63.667-15.641-4.817-4.756h-.005z" fill="#fff"/><path d="M307.16 285.841c3.378-1.94 5.241-4.694 5.891-8.574 0 0-54.05 6.201-58.801 3.288-15.176-9.294-36.294-27.133-72.484-28.224-18.351-.55-115.695-3.885-127.124-3.402-11.43.484.237 35.378 11.181 36.639 27.428 3.155 124.358 7.442 148.606 6.794 23.912-.639 92.737-6.521 92.737-6.521h-.006z" fill="#162C30"/><path fill-rule="evenodd" clip-rule="evenodd" d="m514.633 128.066-13.772 3.613.871-3.314 13.771-3.613-.87 3.314z" fill="#162C30"/><path fill-rule="evenodd" clip-rule="evenodd" d="m514.517 127.531-13.772 3.618.871-3.314 13.766-3.618-.865 3.314z" fill="#F0F2F8"/><path fill-rule="evenodd" clip-rule="evenodd" d="m456.008 141.746-19.117 3.299 1.3-3.711 19.118-3.304-1.301 3.716z" fill="#162C30"/><path fill-rule="evenodd" clip-rule="evenodd" d="m455.926 141.128-19.118 3.299 1.301-3.71 19.117-3.305-1.3 3.716z" fill="#F0F2F8"/><path d="M116.655 180.937c-2.469 2.249-5.929 2.677-7.731.958-1.802-1.719-1.268-4.936 1.201-7.18 2.469-2.249 5.93-2.676 7.732-.957 1.802 1.719 1.267 4.935-1.202 7.179z" fill="#D0D2D3"/><path opacity=".15" d="M380.873 173.583c6.128 24.683 9.826 69.407 19.465 68.208 11.688-1.456 70.754-11.739 78.37-13.685 7.621-1.94 17.105-38.744 23.47-53.782 5.891-13.911 26.326-44.317 39.491 28.466 1.62 8.955 2.204-18.384 1.383-28.147-1.73-20.705-7.72-30.097-66.681-25.018-21.393 1.843-99.063 9.589-95.498 23.953v.005zM309.32 193.861c4.85-9.846-10.046-9.769-44.423 12.655-21.084 13.752-45.635 28.667-33.385 37.977 9.87 7.499 29.616 17.972 43.668 17.344 14.053-.623 16.131-7.488 17.569-13.592 1.841-7.813 11.71-44.534 16.566-54.379l.005-.005zM75.076 196.527c17.624-.5 52.304.365 73.09.689 26.513.412 47.195 7.144 65.817 21.956 9.352 7.442-28.051 12.264-67.723 12.377-25.791.072-56.635-.731-74.303-1.698-17.646-.968-37.744-.031-33.6-9.707 3.467-8.085 13.855-22.969 36.719-23.617z" fill="#610024"/><path d="M115.774 139.065c50.573.808 172.159-2.265 210.09-6.145 23.9-35.59 50.226-74.894 95.261-80.231-65.817.973-122.551 3.84-157.264 7.277-34.294 3.397-99.763 37.365-148.082 79.093l-.005.006z" fill="#162C30"/><mask id="d" style="mask-type:luminance" maskUnits="userSpaceOnUse" x="115" y="52" width="307" height="88"><path d="M115.774 139.065c50.573.808 172.159-2.265 210.09-6.145 23.9-35.59 50.226-74.894 95.261-80.231-65.817.973-122.551 3.84-157.264 7.277-34.294 3.397-99.763 37.365-148.082 79.093l-.005.006z" fill="#fff"/></mask><g mask="url(#d)"><path d="M118.893 140.521c97.162-65.022 261.528-80.555 302.402-88.316-65.816.973-101.383 2.702-136.134 5.821-52.232 4.689-117.949 40.761-166.268 82.49v.005z" fill="#647A7A"/></g><path d="M496.116 239.995s-28.899 6.289-55.599 11.482c-24.942 4.853-38.102 8.25-58.801 13.103-.865 1.941-2.86 5.013-2.86 5.013l-.336 2.023s53.77-10.963 70.407-13.181c31.522-4.205 40.394-4.766 42.858-7.118 2.458-2.352 4.331-11.322 4.331-11.322zM346.397 136.152c70.319-5.821 151.152-22.429 161.672-25.234 4.244-1.133 4.426-3.397 6.161-10.191-25.983-29.114-65.744-41.245-85.142-39.304-54.04 5.409-82.691 74.729-82.691 74.729z" fill="#162C30"/><mask id="e" style="mask-type:luminance" maskUnits="userSpaceOnUse" x="346" y="61" width="169" height="76"><path d="M346.397 136.152c70.319-5.821 151.152-22.429 161.672-25.234 4.244-1.133 4.426-3.397 6.161-10.191-25.983-29.114-65.744-41.245-85.142-39.304-54.04 5.409-82.691 74.729-82.691 74.729z" fill="#fff"/></mask><g mask="url(#e)"><path d="M347.687 132.271s38.14-43.983 93.871-45.29c43.635-1.024 72.667 11.708 72.667 11.708s-2.348-47.94-54.31-47.94-88.675 10.998-97.685 26.525c-9.005 15.528-14.549 54.997-14.549 54.997h.006z" fill="#647A7A"/></g><path d="M514.225 100.727c-1.731 6.794-1.918 9.059-6.162 10.191-10.514 2.805-91.353 19.408-161.671 25.234 0 0 28.65-69.32 82.69-74.73 1.328-.133 2.75-.2 4.26-.2 20.517 0 56.673 12.383 80.877 39.505h.006zm-4.525 1.025c-13.121-14.143-28.403-22.707-39.077-27.437-13.199-5.852-26.783-9.207-37.276-9.207-1.355 0-2.639.061-3.819.18-11.567 1.158-22.886 5.594-33.654 13.196-8.768 6.191-17.189 14.467-25.031 24.611-8.63 11.168-14.626 22.125-17.838 28.589 35.153-3.227 71.189-8.826 95.888-13.087 30.211-5.214 53.042-10.072 58.024-11.4 1.042-.278 1.157-.469 1.312-.731.479-.808.92-2.527 1.46-4.709l.011-.005z" fill="#162C30"/><path d="m433.508 61.423 15.948 61.013 11.319 9.495c1.819 36.881 1.67 74.4-3.885 99.083-1.289 5.718 5.197 9.948 5.197 9.948s-.518 14.071-10.394 16.742M499.291 86.94l8.778 23.978 9.611 9.464s1.4 23.695.392 30.7c-1.009 7.005 1.984 12.352 2.469 16.577 1.14 9.902.341 14.992.341 14.992M361.122 134.798l11.072 10.576c13.507 34.21 18.792 86.757 20.522 96.242 1.097 6.011 3.637 10.515 3.637 10.515s1.444 13.659-8.051 17.709M280.895 153.856s44.473-12.851 65.502-17.699" stroke="#404041" stroke-width=".94" stroke-linejoin="round"/><path d="M325.864 132.92c4.503 3.88 4.85 7.117 4.85 7.117M197.489 185.436s-63.485 2.758-86.003 2.434c-22.517-.324-53.3-3.124-53.3-3.124M276.123 171.401s22.898-.746 35.716 5.028c11.452 5.157 18.07 10.304 18.07 10.304l5.236 5.079" stroke="#404041" stroke-width=".94" stroke-linejoin="round"/><path d="M374.74 119.477c-5.489 2.279-11.805 9.963-15.514 14.997 0 0-6.326 3.165-3.758 5.568 1.416 1.323 3.725 2.316 6.382 1.987 1.697-.211 4.48-2.043 6.128-3.381 8.183-.772 16.929-2.383 20.902-3.268 8.785-1.956 12.741-13.366 12.681-19.074-.039-4.086-18.439-.309-26.821 3.176v-.005z" fill="#0C6291"/><mask id="f" style="mask-type:luminance" maskUnits="userSpaceOnUse" x="354" y="114" width="48" height="29"><path d="M374.74 119.477c-5.489 2.279-11.805 9.963-15.514 14.997 0 0-6.326 3.165-3.758 5.568 1.416 1.323 3.725 2.316 6.382 1.987 1.697-.211 4.48-2.043 6.128-3.381 8.183-.772 16.929-2.383 20.902-3.268 8.785-1.956 12.741-13.366 12.681-19.074-.039-4.086-18.439-.309-26.821 3.176v-.005z" fill="#fff"/></mask><g mask="url(#f)"><path opacity=".15" d="M372.32 119.127c-7.858 10.221-14.851 17.354 5.489 13.134 10.945-2.27 15.028-4.473 20.743-11.426 4.552-5.538 6.029-13.412 6.029-13.412l1.989 28.476-46.263 7.617-4.833-2.233 4.078-4.884-.265-4.138 13.039-13.134h-.006z" fill="#231F20"/></g><path d="M197.488 185.436c-5.373.252-7.329-6.506-2.551-8.811 5.775-2.785 13.171-5.667 22.159-7.839 17.48-4.225 47.619-11.204 63.799-14.93 4.497-1.04 7.958 3.7 5.28 7.231-5.506 7.277-15.431 16.407-31.649 19.161-17.089 2.903-40.902 4.431-57.043 5.188h.005zM64.793 179.363c.292 3.402-3.042 6.114-6.608 5.383-4.397-.901-8.993-2.831-8.442-6.984 1.041-7.766 15.59-16.5 15.59-16.5s-1.334 8.821-.54 18.101z" fill="#fff"/><mask id="g" style="mask-type:luminance" maskUnits="userSpaceOnUse" x="308" y="195" width="94" height="125"><path d="M330.163 205.574s-10.631 20.144-12.967 38.034c-2.337 17.895-1.747 36.495-1.747 36.495l-2.392 5.738-4.442 4.2 19.685 29.613 57.225-4.832 16.047-90.092-36.586-28.358-28.497-1.328-6.321 10.53h-.005z" fill="#fff"/></mask><g mask="url(#g)"><path d="M347.582 313.514c-23.249 0-42.097-25.293-42.097-56.494s18.848-56.494 42.097-56.494c23.25 0 42.098 25.293 42.098 56.494s-18.848 56.494-42.098 56.494z" fill="#162C30"/><path d="M350.294 300.272c-17.136 0-31.026-19.364-31.026-43.252s13.89-43.252 31.026-43.252c17.135 0 31.026 19.364 31.026 43.252s-13.891 43.252-31.026 43.252z" fill="#F0F2F8"/><path d="M350.961 295.959c-15.084 0-27.312-17.433-27.312-38.939 0-21.505 12.228-38.939 27.312-38.939 15.084 0 27.311 17.434 27.311 38.939 0 21.506-12.227 38.939-27.311 38.939z" fill="#162C30"/><path d="m354.73 215.132-3.163 35.233 25.719-12.763 2.149 7.462-26.799 13.412 21.178 23.948-3.604 6.546-22.115-24.632-11.871 30.206-5.163-5.44 11.352-30.71-22.038-8.708 1.631-8.811 21.542 8.909 3.07-35.11 8.112.458z" fill="#F0F2F8"/><path d="M338.726 257.02c0 6.912 4.018 12.517 8.977 12.517 4.96 0 8.978-5.605 8.978-12.517 0-6.912-4.018-12.517-8.978-12.517-4.959 0-8.977 5.605-8.977 12.517z" fill="#A6B3C6"/><path d="M341.746 257.02c0 3.294 1.918 5.965 4.276 5.965 2.359 0 4.277-2.671 4.277-5.965s-1.918-5.965-4.277-5.965c-2.358 0-4.276 2.671-4.276 5.965z" fill="#F0F2F8"/></g><path d="m383.467 331.812-.332 1.176-1.931 6.906-2.432 8.679-.446 1.604-10.891-1.435s.12-.718.319-1.882c.525-3.07 1.575-9.246 2.305-13.516.338-1.972.61-3.54.724-4.215.031-.169.049-.284.055-.332l12.635 3.009-.006.006z" fill="#FFA682"/><path d="M379.002 333.061c-.984-.024-1.937-.199-2.884-.416-.453-.103-.9-.223-1.346-.338-.344-.09-.73-.145-1.026-.332-.368-.307-.82-.458-1.279-.356a4.175 4.175 0 0 1-.525-1.441c-.091-.555-.609-.941-1.152-1.049-.115.675-.387 2.243-.725 4.215.543.845 1.268 1.587 2.046 2.226 1.539 1.254 3.264 2.412 5.081 3.226 1.291.585 2.642.99 4.018 1.092l1.931-6.905c-1.382 0-2.745.114-4.139.072v.006z" fill="#994C41"/><path d="M379.841 353.379c-.362-1.604-.712-3.202-1.068-4.806-.049-.235-.103-.465-.151-.7.223-.127.368-.374.344-.73-.211-2.726-2.999-4.034-5.358-3.528-1.473.314-2.764 1.194-4.001 2.039a45.501 45.501 0 0 1-3.952 2.424 40.382 40.382 0 0 1-8.731 3.498 42.34 42.34 0 0 1-4.641.989c-1.436.217-2.932.254-3.934 1.496-1.822 2.256-.712 5.356 1.255 7.044 2.185 1.876 4.99 2.461 7.748 2.594 2.842.132 5.708-.181 8.544.168 3.114.386 6.227 1.569 9.389.869 2.685-.597 5.232-2.587 5.473-5.603.151-1.918-.513-3.908-.917-5.754z" fill="#FFA682"/><path d="M381.409 356.389c-.156-1.128-.349-2.774-1.17-3.528-.917-.844-2.631 0-3.614.332a25.148 25.148 0 0 0-4.351 1.972 13.945 13.945 0 0 1-1.671-.139c-.513-1.628-1.123-3.257-2.13-4.632-.616-.838-1.364-1.67-2.293-2.165-1.062-.561-2.396-.591-3.283.308a.83.83 0 0 0-.259.711c-.061.368.066.784.428.953.241.115.477.241.7.386.097.061.187.127.278.199.018.018.054.042.072.061l.127.108c.199.175.392.368.573.561l.253.289c.037.043.073.091.109.133.012.018.042.054.06.079.417.567.767 1.176 1.092 1.797-.09-.024-.187-.054-.277-.073-1.086-.247-2.1-.422-3.077-1.001-.875-.518-1.72-1.043-2.686-1.387-1.973-.699-4.133-.711-6.124-.108a.955.955 0 0 0-.211.096c-1.159.259-2.323.525-3.482.79-1.008.229-2.051.501-2.896 1.14-1.738 1.315-1.925 3.685-1.117 5.627 1.859 4.457 7.127 5.289 11.23 5.344 2.661.036 5.274.126 7.916.422 2.402.265 4.816.549 7.229.44.091.012.181.03.272.048 1.816.296 3.747.531 5.485-.259 1.677-.76 2.733-2.443 3.053-4.282.247-1.429.084-2.835-.229-4.222h-.007z" fill="#242433"/><path d="M366.3 356.136a6.24 6.24 0 0 0 1.829.874 6.194 6.194 0 0 0 2.027.253 1.55 1.55 0 0 0 1.026-.422c.253-.253.44-.663.422-1.025-.018-.374-.138-.76-.422-1.025-.278-.254-.64-.441-1.026-.422-.302.012-.597 0-.893-.043l.386.055a5.16 5.16 0 0 1-1.267-.35l.344.145a5.067 5.067 0 0 1-.965-.543c-.29-.205-.785-.235-1.117-.145-.338.091-.7.35-.863.663-.174.338-.265.742-.144 1.116l.144.344c.127.217.302.392.519.519v.006zM348.941 358.518c.151-.434 1.02-.483 1.394-.489.984-.006 1.961.266 2.854.664 1.991.874 3.693 2.292 5.594 3.335 3.759 2.063 7.983 2.997 12.14 3.878 1.816.386 2.595-2.406.772-2.792-2.353-.501-4.718-1.002-7.017-1.731a25.938 25.938 0 0 1-6.33-3.01c-2.033-1.315-4.127-2.732-6.571-3.112-2.214-.344-4.797.103-5.63 2.485-.615 1.761 2.185 2.521 2.794.772z" fill="#646475"/><path d="m386.037 192.199-.669-8.232c-.097-1.188-.163-2.431-.682-3.522a5.612 5.612 0 0 0-2.04-2.316c-1.629-1.05-4.115-1.255-5.569.138-.266.013-.519.157-.658.489-1.762 4.33-3.53 8.956-2.341 13.678.314 1.237 1.515 4.602 3.313 4.156.718 2.654 2.075 5.078 4.779 5.579.446.084.935-.218 1.007-.682a14.3 14.3 0 0 0 .139-1.248c.839.259 1.828-.061 2.402-.724.754-.875.736-2.117.651-3.203-.102-1.375-.223-2.744-.338-4.119l.006.006z" fill="#FFA682"/><path d="M384.897 172.08c-.519-.151-1.104-.085-1.641-.109a28.629 28.629 0 0 1-2.052-.151c-1.43-.15-2.848-.41-4.26-.687-.7-.139-1.436-.38-2.142-.428-.072 0-.145 0-.211.006v-.664c.012-1.182-1.829-1.182-1.841 0a312.994 312.994 0 0 0 .031 8.721c.012.826-.067 1.749.699 2.262.465.639 1.213 1.001 1.974 1.315 1.068.446 2.184.753 3.33.91 1.165.163 2.336.193 3.506.061 1.062-.127 2.311-.199 2.896-1.231.537-.947.435-2.255.507-3.305.091-1.254.175-2.503.266-3.757.078-1.08.277-2.569-1.068-2.955l.006.012z" fill="#D67D53"/><path d="M380.854 175.33c.737.157 18.169 7.37 18.959 7.292 3.615-.374-12.044-13.781-9.908-16.411a265.276 265.276 0 0 0 15.906-21.669c1.195-1.816 2.323-3.685 3.162-5.7.821-1.966 1.273-4.07 1.593-6.187.7-4.602.977-9.3 1.098-13.968.235-9.463-.434-18.95-1.327-28.407-.453-4.746-.96-9.493-1.461-14.233-.253-2.382-.5-4.758-.754-7.14-.193-1.81-.259-3.957-1.683-5.326-.664-.64-1.587-1.013-2.48-1.001a.856.856 0 0 0-.863-.314c-6.849 1.218-13.172 4.62-18.024 9.499-2.426 2.436-4.501 5.229-6.082 8.299-1.834 3.558-2.915 7.394-3.578 11.368-.749 4.511-1.014 9.101-1.521 13.649a207.85 207.85 0 0 1-2.015 13.787c-1.418 7.876-2.559 15.958-4.586 23.696-1.334 5.084-1.991 10.331-1.846 15.59.259 9.451 3.059 20.578 15.422 17.176h-.012z" fill="#D67D53"/><path d="m419.955 222.337-2.534 34.564-5.274 72.113a.918.918 0 0 1-.616.796c-33.03 11.091-50.378.229-53.268-1.845a.908.908 0 0 1-.374-.845c.736-6.049 7.856-64.05 14.445-96.889 4.128-20.584 10.325-50.818 14.681-71.993 1.678-8.196 3.09-15.041 3.995-19.432.7-3.377 1.098-5.307 1.098-5.307l5.123-5.651c2.576-11.393 13.498-1.128 18.512 4.36a61.678 61.678 0 0 1 2.275 2.618l.265.319.399 20.91 1.273 66.275v.007z" fill="#8C4327"/><path d="M488.115 304.721c-.996 3.263-11.513 34.262-49.485 22.508a.762.762 0 0 1-.501-.477c-1.388-3.854-13.474-37.839-20.703-69.851-2.262-10.024-4.042-19.849-4.881-28.503-2.263-23.534-1.72-53.526-.984-72.946.453-11.935.984-19.878.984-19.878l5.473-.742 19.695-5.072s.573.814 1.442 2.273a63.478 63.478 0 0 1 5.262 11.297c.169.488.337.989.494 1.489 2.185 6.864 3.319 14.493 4.653 28.033 3.065 30.987 13.624 75.068 13.624 75.068l24.897 56.27c.072.169.09.356.036.531h-.006z" fill="#8C4327"/><path d="M439.155 132.033c-.531-.561-.857-.808-.857-.808l-20.274 3.607a61.678 61.678 0 0 0-2.275-2.618 112.692 112.692 0 0 0-11.76 2.811c-2.438.724-4.839 1.556-7.247 2.394-1.195.422-2.401.814-3.65 1.025-.688.115-1.406.169-2.07.362-.905 4.391-2.317 11.236-3.995 19.432 4.055 1.339 8.237 2.437 12.533 1.725 2.377-.392 4.314-1.477 6.299-2.786.948-.627 1.919-1.182 3.036-1.46.875-.217 1.78-.283 2.679-.271.295.006.579.018.875.03 2.081.115 4.151.519 6.239.573.308.012.621.012.929.006 2.377-.066 4.713-.645 6.921-1.514 2.239-.88 4.363-2.02 6.444-3.232 2.046-1.194 4.085-2.413 6.004-3.8.978-.7 4.007-2.991 5.431-4.192a63.072 63.072 0 0 0-5.262-11.296v.012z" fill="#541D10"/><path d="M416.642 36.176c-.302-2.37-.627-4.735-.941-7.105-.32-2.43-.646-4.861-.966-7.292-.217-1.616-.633-3.817.899-4.909a.904.904 0 0 0 .212-.217c.482.072.947-.06 1.116-.513.151-.398-.109-1.043-.628-1.158-7.663-1.706-16.792-2.744-22.464 2.775-1.135 1.103-2.058 2.388-2.589 3.848-.627 1.712-.597 3.516-.302 5.337.694 4.198 1.817 8.413.375 12.484-1.201 3.396-4.037 7.105-1.793 10.88.863 1.454 2.384 2.606 4.182 2.787 1.02.102 2.003-.127 3.017-.097 1.201.042 2.371.374 3.542.633 3.97.869 8.146.52 11.67-1.079.736-.338 1.466-.718 2.039-1.26.706-.676 1.104-1.575 1.473-2.443a19.62 19.62 0 0 0 1.454-5.802c.217-2.274-.012-4.578-.302-6.863l.006-.006z" fill="#8C4327"/><path d="M397.068 44.468c-1.134 2.316-2.19 4.753-1.575 7.382.169.736 1.056 1.243 1.78 1.014a1.48 1.48 0 0 0 1.014-1.78c-.012-.042-.103-.476-.061-.265.043.205-.018-.223-.024-.271a6.802 6.802 0 0 1 0-.7c0-.072.018-.585.012-.199 0-.114.037-.235.061-.35.048-.247.114-.494.187-.742.072-.24.151-.482.241-.723l.127-.326c.06-.15.06-.145-.012.018l.072-.163c.211-.482.447-.959.676-1.435.332-.682.205-1.598-.519-1.978-.652-.344-1.623-.205-1.979.518z" fill="#541D10"/><path d="M438.727 44.052c.03-1.725-.507-3.124-1.816-4.378-1.25-1.194-2.318-2.292-3.042-3.842-1.424-3.052-1.484-6.447-2.274-9.644-.755-3.04-2.311-5.802-4.876-7.888-2.679-2.172-6.064-3.517-9.63-3.655a.984.984 0 0 0-.435.078c-1.315-.199-2.679-.114-4 .211-2.136.531-4.496 1.61-5.859 3.257-.736.887-.966 1.984-1.08 3.076a28.696 28.696 0 0 0-.121 3.944c.084 2.57.404 5.127.712 7.678.537 4.463 1.231 9.016 3.379 13.111 1.044 1.997 2.456 4.114 4.562 5.295 2.25 1.267 5.147 1.743 7.693 2.22 2.613.489 5.045.724 7.531-.314 1.949-.808 3.523-2.207 4.507-3.932a3.835 3.835 0 0 0 3.15-.892c1.261-1.092 1.587-2.805 1.617-4.337l-.018.012z" fill="#8C4327"/><path d="m407.103 51.428-.024 12.677 16.25-2.34-.58-17.864s-9.014.079-15.64 7.527h-.006z" fill="#FFA682"/><path d="M425.935 31.881v.242c-.018 9.716-6.855 15.035-9.371 16.941-2.516 1.9-8.472 8.166-16.087 4.161-3.131-1.652-3.699-6.76-3.548-11.055.006-.18.018-.367.024-.542.037-.718.091-1.418.151-2.081.079-.814.163-1.58.248-2.268v-.024c.126-1.019.247-1.863.295-2.43.284-3.046.773-6.37.773-6.37.066-.614.271-1.694.718-2.942 1.194-3.317 4.163-7.798 11.193-7.666.941.012 1.834.073 2.673.157 7.379.748 12.925 6.797 12.931 13.871v.006z" fill="#FFA682"/><path d="M409.848 36.9c.084 1.157.428 1.314 1.943 1.399.923.054 1.611-1.418 1.526-2.582-.084-1.158-.917-1.718-1.876-1.435-.966.283-1.678 1.453-1.599 2.611l.006.006z" fill="#3D1912"/><path d="M408.617 34.891c1.46-2.937 6.848-3.196 7.572.422.073.555.006 1.936-.863 1.659-.132-.049-.241-.211-.331-.314-.598-.844-1.304-1.453-2.317-1.665-1.093-.265-2.263.11-3.319.586-.447.283-1.002-.212-.742-.682v-.006zM402.384 34.62c.157 1.097-.459 2.545-1.219 2.448-1.116-.138-1.587-.12-1.744-1.224-.157-1.098.374-2.268 1.195-2.605.82-.338 1.611.277 1.768 1.38z" fill="#3D1912"/><path d="M403.283 35.337c-1.02-.705-2.052-1.568-3.265-1.634-.199-.018-.344 0-.434-.018-.091 0-.151-.06-.296-.018-.199.042-.549.422-.766.603-.869.56-1.11-.935-.857-1.538.507-1.502 2.468-1.713 3.717-1.158 1.448.615 2.389 1.81 2.77 3.269.12.5-.501.844-.869.5v-.006z" fill="#3D1912"/><path d="M408.52 29.463c.054.223.151.416.284.591.344.453.917.724 1.472.82.477.079.947.049 1.424.049.483 0 .965.042 1.442.175.827.229 1.756.796 2.565.325.688-.398.784-1.357.591-2.093a3.18 3.18 0 0 0-.652-1.206c-.422-.597-1.074-1.031-1.792-1.315a5.61 5.61 0 0 0-2.202-.386c-.869.03-1.702.302-2.329.875-.568.519-.996 1.35-.803 2.171v-.006zM397.755 29.01c.055.206.145.387.266.531.314.386.821.567 1.297.573.411.006.821-.09 1.225-.162a3.951 3.951 0 0 1 1.249-.043c.718.103 1.539.513 2.215-.066.573-.488.615-1.43.422-2.11a2.654 2.654 0 0 0-.609-1.068c-.387-.513-.966-.839-1.593-1.008a4.171 4.171 0 0 0-1.907-.048 3.398 3.398 0 0 0-1.967 1.188c-.471.585-.797 1.454-.604 2.22l.006-.006z" fill="#8C4327"/><path d="m405.51 43.28-.048.018.344-.144a3.505 3.505 0 0 1-.863.229l.386-.055a4.09 4.09 0 0 1-.941 0c.126.019.259.037.386.055a3.694 3.694 0 0 1-.911-.248l.344.145c-.212-.09-.411-.199-.598-.331-.295-.206-.778-.242-1.116-.145-.338.09-.7.35-.863.663-.175.338-.265.742-.145 1.116.121.374.338.645.664.862.706.483 1.527.712 2.365.79.423.043.833-.005 1.249-.072.429-.066.803-.217 1.201-.386.308-.133.579-.555.664-.862.096-.344.054-.809-.145-1.116-.199-.308-.495-.579-.863-.663-.126-.019-.259-.037-.386-.055-.259 0-.507.067-.73.2h.006z" fill="#994C41"/><path d="M426.845 31.827c-.187-2.069-.826-4.1-1.713-5.97-.893-1.882-2.016-3.758-3.416-5.308-1.508-1.677-4.302-2.207-6.541-2.503-1.574-.21-5.466-.772-5.074 1.972.066.447.253.88.507 1.297a25.95 25.95 0 0 0 4.791 9.813 26.22 26.22 0 0 0 4.091 4.137 23.155 23.155 0 0 0 2.275 1.622c.862.543 1.846 1.128 2.866.61 1.647-.839 2.347-4.162 2.214-5.67z" fill="#8C4327"/><path d="M408.05 56.253c1.895-.253 3.723-1.013 5.364-1.966 1.491-.856 2.933-1.924 4.073-3.22.501-.568.604-1.496 0-2.045-.549-.5-1.514-.61-2.045 0a12.85 12.85 0 0 1-1.557 1.471c.006 0-.29.23-.163.133.115-.084-.103.073-.121.09-.169.121-.332.242-.507.356a17.217 17.217 0 0 1-2.89 1.599c.145-.06.012 0-.054.018-.115.042-.223.09-.338.126-.821.302-1.665.525-2.528.64-.755.102-1.231 1.103-1.014 1.779.266.826.971 1.122 1.78 1.013v.006z" fill="#994C41"/><path d="M415.243 16.52c-.809-.79-2.1-1.061-3.168-1.26a15.855 15.855 0 0 0-3.584-.23c-4.544.2-9.1 1.997-12.153 5.447-1.448 1.634-2.576 3.558-3.204 5.65-.597 1.997-.947 4.446-.078 6.412.434.983 1.285 1.851 2.377 2.014 1.153.175 1.901-.543 2.498-1.43 1.304-1.93 2.619-3.907 4.508-5.325 3.994-2.991 9.907-3.34 12.442-8.166.223-.084.428-.217.603-.41.724-.79.477-2.014-.241-2.714v.012z" fill="#8C4327"/><path d="M424.124 35.633c.664-3.534.525-7.159-.47-10.615-.218-.748-1.02-1.218-1.78-1.013-.749.205-1.231 1.025-1.014 1.78.851 2.948 1.038 6.084.471 9.076-.145.766.211 1.562 1.013 1.78.706.192 1.636-.242 1.78-1.014v.006zM412.056 28.456l2.987 2.883c.272.26.646.422 1.026.422.356 0 .778-.157 1.026-.422.253-.278.44-.64.422-1.025-.018-.38-.145-.754-.422-1.026-.996-.959-1.991-1.924-2.987-2.883a1.513 1.513 0 0 0-1.026-.422c-.356 0-.778.157-1.026.422-.253.278-.44.64-.422 1.026.018.38.145.753.422 1.025zM413.251 22.111c0-.163 0-.326.012-.482 0-.09.018-.181.025-.272.024-.235.024.043-.007.067.049-.03.091-.459.109-.531a5.9 5.9 0 0 1 .133-.465c.012-.048.133-.458.163-.458-.127.284-.024 0 0 0 .03-.066.06-.127.096-.193a8.61 8.61 0 0 1 .531-.868c.115-.157-.024-.012-.042.054.018-.066.115-.139.163-.193a7.06 7.06 0 0 1 .827-.802c.157-.127.006.03-.055.042.115-.024.308-.217.411-.283.126-.079.259-.157.386-.23.133-.072.265-.132.404-.199.181-.084 0 .025-.072.03.072 0 .211-.078.283-.102.712-.253 1.267-1.001 1.014-1.78-.229-.699-1.02-1.284-1.78-1.012a8.412 8.412 0 0 0-3.976 2.93c-1.008 1.352-1.521 3.07-1.521 4.747 0 .76.664 1.484 1.448 1.448.785-.037 1.448-.634 1.448-1.448zM398.564 32.4c-.875-5.416 1.901-10.777 6.662-13.395 1.635-.898.175-3.401-1.46-2.497-5.98 3.287-9.076 9.982-7.995 16.664.126.772 1.086 1.2 1.78 1.013.82-.223 1.134-1.007 1.013-1.779V32.4zM428.336 42.743c.103.121.205.242.308.368-.211-.271.09.14.127.187.181.266.344.537.494.814.079.14.145.284.218.429.036.072.066.145.096.217-.066-.163-.066-.169-.006-.012.103.277.205.56.29.85.084.29.151.58.211.875.012.066.115.579.042.205.03.157.036.32.049.476.024.32.03.64.018.953 0 .157-.018.32-.031.477-.006.078-.018.156-.024.235.024-.187.03-.2 0-.03-.114.748.187 1.592 1.014 1.779.694.157 1.659-.211 1.78-1.013.495-3.209-.392-6.4-2.534-8.86-.501-.573-1.545-.549-2.046 0-.561.61-.531 1.435 0 2.044l-.006.006z" fill="#541D10"/><path d="M419.563 38.04c-1.575 2.532-1.955 4.993-.084 6.097 1.87 1.103 4.049.217 6.197-2.148 1.997-2.2 1.997-5.421.126-6.531-1.87-1.104-4.67.048-6.245 2.581h.006z" fill="#FFA682"/><path d="M422.761 37.623c-.712.56-1.424 1.128-2.142 1.689a1.133 1.133 0 0 0-.302.464c-.09.175-.133.356-.126.555 0 .356.156.778.422 1.025.277.254.639.44 1.026.422l.386-.054c.247-.066.458-.193.639-.374.712-.56 1.424-1.128 2.143-1.689a1.13 1.13 0 0 0 .301-.464 1.1 1.1 0 0 0 .127-.555c0-.356-.157-.778-.422-1.025-.278-.253-.64-.44-1.026-.422l-.386.054a1.404 1.404 0 0 0-.64.374z" fill="#994C41"/><path d="m403.234 31.471-8.815-.663c-.628-.048-1.117.76-.942 1.568l.948 4.367c.398 1.827 1.617 3.087 3.053 3.16l3.132.15c1.249.06 2.377-1.091 2.661-2.731l.772-4.403c.127-.718-.254-1.405-.803-1.442l-.006-.006zM408.165 31.918l11.223.313a1.143 1.143 0 0 1 1.026 1.58l-1.665 4.03a4.328 4.328 0 0 1-4.2 2.665l-4.363-.211a2.802 2.802 0 0 1-2.643-2.46l-.549-4.639a1.142 1.142 0 0 1 1.171-1.278z" fill="#242433"/><path d="M404.14 36.87c-.374.295.018 0 .126-.067a3.84 3.84 0 0 1 .38-.193l-.343.145a3.66 3.66 0 0 1 .977-.266l-.386.055c.283-.03.567-.03.857 0l-.386-.055c.301.043.597.12.88.235l-.343-.144c.235.102.452.223.669.362.175.114-.09-.09-.108-.09.03 0 .12.096.145.12.102.09.199.193.295.295.507.567 1.539.555 2.046 0 .555-.603.543-1.447 0-2.044-.857-.947-2.052-1.466-3.307-1.587a4.587 4.587 0 0 0-1.738.194c-.688.21-1.249.548-1.804.995-.271.217-.422.693-.422 1.025 0 .356.157.778.422 1.025.278.254.64.44 1.026.422.41-.018.706-.168 1.026-.422l-.012-.006z" fill="#242433"/><path d="m406.209 35.434.326 1.628c.043.187.133.35.26.495.102.157.235.283.404.374.169.108.344.163.537.169.193.042.386.036.579-.025.35-.114.688-.331.863-.663l.145-.344a1.53 1.53 0 0 0 0-.772l-.326-1.628a1.123 1.123 0 0 0-.259-.495 1.1 1.1 0 0 0-.405-.373 1.025 1.025 0 0 0-.537-.17 1.112 1.112 0 0 0-.579.025c-.35.114-.688.331-.863.663l-.145.344a1.53 1.53 0 0 0 0 .772zM401.672 34.83l-.085 1.4c-.006.199.037.386.127.555.061.18.157.338.302.464.133.139.283.241.465.302.175.09.356.133.555.126l.386-.054c.247-.066.458-.193.639-.374l.23-.295a1.42 1.42 0 0 0 .199-.73l.084-1.4a1.094 1.094 0 0 0-.126-.554 1.04 1.04 0 0 0-.302-.465 1.131 1.131 0 0 0-.465-.301 1.105 1.105 0 0 0-.555-.127l-.386.055a1.409 1.409 0 0 0-.64.373c-.078.097-.15.194-.229.296a1.41 1.41 0 0 0-.199.73z" fill="#646475"/><path d="M401.998 39.855c.024.114.06.229.096.337.085.218.169.44.284.652.054.102.114.199.187.29.139.186.283.385.452.548.133.139.284.241.465.302.175.09.356.132.555.126a1.09 1.09 0 0 0 .555-.126 1.04 1.04 0 0 0 .465-.302l.229-.296a1.41 1.41 0 0 0 .199-.73l-.054-.385a1.402 1.402 0 0 0-.374-.64 1.832 1.832 0 0 1-.205-.235c.078.097.15.193.229.296a2.865 2.865 0 0 1-.308-.525l.145.344a2.206 2.206 0 0 1-.133-.428 1.113 1.113 0 0 0-.259-.495 1.105 1.105 0 0 0-.404-.374 1.025 1.025 0 0 0-.538-.169 1.112 1.112 0 0 0-.579.024l-.344.145a1.43 1.43 0 0 0-.519.519l-.144.344c-.067.259-.067.512 0 .772v.006z" fill="#994C41"/><path d="m429.893 61.054-3.778-.23s-8.767 7.353-14.717 5.58c-5.949-1.78-4.314-5.23-4.314-5.23s-2.764.32-5.612 1.14c-2.848.815 7.247 12.129 7.658 12.147.41.018 25.421 3.058 25.421 3.058l-4.658-16.46v-.005z" fill="#D67D53"/><path d="M409.571 142.684c1.303 1.629 4.568 5.549 9.389 10.259a.75.75 0 0 0 .857.127c3.186-1.641 21.264-11.514 19.713-23.31-1.629-12.424-44.326 4.812-47.705 6.2a.697.697 0 0 0-.35.307c-.621 1.128-2.649 6.646 9.262 17.038a.738.738 0 0 0 1.098-.157l6.559-10.391a.733.733 0 0 1 1.183-.067l-.006-.006z" fill="#fff"/><path d="M446.626 84.768c-3.343-6.164-9.492-10-15.864-12.58-3.5-1.418-7.156-2.679-10.903-3.24-4.091-.615-8.315-.301-12.412.115-2.36.241-4.713.579-7.042 1.007-2.064.38-4.133.796-6.082 1.568-3.259 1.297-6.119 4.156-6.046 7.738a.798.798 0 0 0-.332.368c-1.569 3.215-3.071 6.483-3.989 9.951-.941 3.547-1.116 7.105-.694 10.742.435 3.763 1.28 7.484 1.986 11.199l2.172 11.381c.06.301.115.603.175.905.03.325.048.651.078.971.145 1.399.356 2.792.634 4.173.259 1.303.507 2.66 1.038 3.884 1.013 2.37 3.741 3.178 6.034 3.854 2.715.802 5.527 1.248 8.333 1.598a88.898 88.898 0 0 0 17.136.459 90.042 90.042 0 0 0 12.877-1.822c1.152-.253 4.942-.995 5.943-1.646 1.117-.724 1.768-1.834 2.293-3.016.622-1.417-1.436-2.388-1.001-3.866a40.66 40.66 0 0 0 1.544-9.125c1.334.199 2.511-.591 3.204-1.719.918-1.501 1.249-3.395 1.702-5.072.537-2.008 1.032-4.028 1.418-6.067 1.376-7.25 1.424-15.102-2.19-21.766l-.012.006z" fill="#D67D53"/><path d="M427.395 60.945c0-.15-.036-.307-.09-.464a.737.737 0 0 0-.423-.404c-.597-.833-1.188-1.665-1.786-2.503-.633-.893-1.194-1.677-1.671-2.666a.92.92 0 0 0-.797-.495c-.259-.114-.567-.09-.838.163a33.655 33.655 0 0 1-4.695 3.667 29.36 29.36 0 0 1-2.468 1.43c-.784.41-1.605.856-2.449 1.145-.212-.114-.417-.235-.622-.355-.428-.26-.845-.531-1.249-.815a19.176 19.176 0 0 1-1.75-1.393c.066.06-.151-.138-.175-.163-.024-.018-.042-.042-.066-.06-.024-.042-.049-.078-.073-.114-.175-.32-.561-.537-.935-.453a.916.916 0 0 0-.694.64 40.703 40.703 0 0 0-2.413 2.382c-.393.416-.803.82-.912 1.399-.114.603.085 1.212.296 1.78.797 2.207 2.607 4.179 4.32 5.759.314.29.881.476 1.243.108a21.927 21.927 0 0 0 2.263-2.714c.531.133 1.074.242 1.617.272.175.012.35.012.525 0l.797 1.339c.44.735.863 1.96 1.882 2.014.779.042 1.726-.392 2.432-.657.766-.29 1.503-.634 2.209-1.044 2.884-1.652 5.177-4.1 6.577-7.062.138-.295.09-.555-.055-.748v.012z" fill="#fff"/><path d="M404.822 62.308a984.353 984.353 0 0 1 2.486-3.178 1.13 1.13 0 0 0 .301-.465 1.1 1.1 0 0 0 .127-.554c0-.356-.157-.778-.422-1.026-.278-.253-.64-.44-1.026-.422-.356.018-.797.127-1.026.422a984.326 984.326 0 0 1-2.486 3.179 1.133 1.133 0 0 0-.302.464 1.11 1.11 0 0 0-.126.555c0 .356.157.778.422 1.025.278.254.64.44 1.026.422.356-.018.796-.126 1.026-.422zM422.507 55.885a63.96 63.96 0 0 0 3.645 5.193c.211.271.7.422 1.025.422.356 0 .779-.157 1.026-.422.254-.278.441-.64.423-1.025-.019-.41-.175-.7-.423-1.026.266.344 0-.006-.06-.078-.079-.097-.151-.2-.223-.296-.151-.199-.296-.398-.447-.597a61.835 61.835 0 0 1-2.462-3.63c-.404-.64-1.309-.953-1.979-.52-.646.417-.947 1.298-.519 1.98h-.006zM414.024 66.03c.018-.941.054-1.882.115-2.823.024-.356-.175-.778-.423-1.025-.247-.248-.664-.44-1.026-.422-.374.018-.76.138-1.025.422a1.578 1.578 0 0 0-.423 1.025c-.054.94-.096 1.882-.114 2.822-.006.368.169.766.422 1.026s.664.44 1.026.422c.796-.036 1.43-.633 1.448-1.448z" fill="#B0B3D1"/><path d="M388.994 81.45c-2.335 6.514-3.976 13.342-4.368 20.265-.375 6.628.941 13.202 2.323 19.655.869 4.053 1.852 8.076 2.842 12.099.44 1.809 3.234 1.043 2.793-.772-1.689-6.894-3.379-13.799-4.477-20.813-.464-2.962-.73-5.905-.639-8.908.096-3.136.494-6.254 1.11-9.336.772-3.884 1.87-7.696 3.21-11.423.265-.736-.296-1.586-1.014-1.78-.802-.222-1.514.272-1.78 1.014z" fill="#914123"/><path d="M378.743 79.605a37.807 37.807 0 0 0 5.937 15.205c1.032 1.544 3.542.09 2.498-1.46a35.905 35.905 0 0 1-5.648-14.51c-.12-.773-1.092-1.2-1.78-1.014-.826.23-1.134 1.007-1.013 1.78h.006zM412.768 85.063a68.839 68.839 0 0 0-7.24 25.005c-.073.778.718 1.448 1.448 1.448.844 0 1.375-.664 1.448-1.448a64.975 64.975 0 0 1 6.842-23.539c.845-1.659-1.653-3.124-2.498-1.46v-.006zM372.045 112.812l-1.068 19.849c-.103 1.863 2.794 1.857 2.896 0l1.068-19.849c.103-1.863-2.794-1.857-2.896 0zM373.813 176.953a21.93 21.93 0 0 0 10.39.271c.766-.163 1.213-1.055 1.014-1.779-.217-.79-1.014-1.176-1.78-1.013a18.767 18.767 0 0 1-8.846-.272c-.73-.199-1.605.248-1.78 1.014-.175.766.229 1.568 1.014 1.779h-.012z" fill="#914123"/><path d="M377.789 185.312c-.779 1.646-1.436 3.275-1.279 5.132.072.839.241 1.635.301 2.371.03.367.036.735.012 1.103-.006.151-.12.603-.199.76-.332.682-.205 1.598.519 1.978.652.344 1.623.205 1.979-.518.839-1.707.58-3.408.332-5.217a11.717 11.717 0 0 1-.084-1.001c0-.23 0-.465.024-.694-.024.205.066-.307.06-.277.187-.845.477-1.43.833-2.178.326-.681.211-1.592-.519-1.978-.646-.337-1.635-.211-1.979.519z" fill="#994C41"/><path d="M418.567 260.007c-2.529-12.171-4.031-24.529-5.069-36.911-1.056-12.604-1.629-25.246-2.166-37.881-.296-6.953-.579-13.913-.929-20.861-.097-1.852-2.993-1.864-2.897 0 .634 12.526 1.05 25.065 1.702 37.598.658 12.701 1.545 25.408 3.156 38.031.887 6.972 1.985 13.914 3.415 20.796.38 1.821 3.168 1.049 2.794-.772h-.006zM371.164 249.036a213.024 213.024 0 0 0-.338 29.311 215.752 215.752 0 0 0 3.717 29.323 215.641 215.641 0 0 0 3.825 16.085c.501 1.791 3.295 1.031 2.794-.772a212.458 212.458 0 0 1-5.901-28.569 211.921 211.921 0 0 1-1.889-28.865c.012-5.512.248-11.025.688-16.519.061-.778-.712-1.447-1.448-1.447-.833 0-1.388.663-1.448 1.447v.006z" fill="#541D10"/><path d="M478.027 172.526c.187-3.794.205-7.605-.078-11.399-.531-7.171-2.106-14.324-5.473-20.903-2.945-5.742-7.229-10.995-12.81-14.909-6.059-4.246-13.637-6.677-21.276-6.912-1.913-.06.319-.066-1.575.139-.344.036-.869.066-4.779.507-10.155.922-14.331 5.253-15.592 11.772-.682 3.534-.549 7.075-.676 10.621-.139 3.896-.187 7.792-.277 11.694l-.562 24.275c-.036 1.701-.138 3.42.604 5.024.573 1.236 1.587 2.25 2.757 3.058 2.619 1.809 6.004 2.593 9.154 3.263 2.178.464 4.332.759 6.462.711.103.278.362.501.797.495 7.048-.061 13.999-1.52 20.847-2.823 3.41-.645 6.813-1.351 10.15-2.237a73.052 73.052 0 0 0 4.821-1.436c1.369-.458 2.745-1.031 3.807-1.96.869-.76 1.466-1.658 1.889-2.635 1.442-1.719 1.689-4.168 1.798-6.357l.012.012z" fill="#242433"/><path d="M488.598 146.122c5.943-6.664-3.952-15.952-3.952-15.952-3.651-3.173-3.38-3.908-6.837-7.274-2.341-2.273-4.604-4.638-6.728-7.11-3.216-8.408-6.414-16.82-9.703-25.204-3.608-9.203-8.025-18.636-16.515-24.619-4.332-3.052-9.564-5.018-14.97-4.915-.664.012-1.002.555-.978 1.05-3.765 3.015-4.471 8.207-3.686 12.658.494 2.793 1.472 5.495 2.425 8.166a169.429 169.429 0 0 0 3.222 8.341c1.237 2.962 2.716 5.995 2.414 9.264a.818.818 0 0 0 .205.651c.646 9.517 2.16 19.149 6.245 27.918 2.082 4.463 4.864 8.661 8.382 12.201 3.578 3.601 8.043 6.11 12.514 8.619 14.355 8.051 22.006 2.87 27.956-3.794h.006z" fill="#D67D53"/><path d="M454.632 76.8c-4.574-1.784-9.316.471-12.828 3.39-3.216 2.672-5.865 6.134-7.881 9.783-1.152 2.093-2.117 4.312-2.727 6.622-.477 1.803 2.317 2.57 2.794.772 1.225-4.62 3.874-8.938 7.078-12.448 3.131-3.438 7.874-7.244 12.792-5.32.73.284 1.587-.313 1.78-1.013.223-.82-.278-1.496-1.014-1.78l.006-.005zM469.796 113.21c-5.002-3.89-11.302-5.886-17.644-5.343-.778.066-1.448.615-1.448 1.447 0 .73.664 1.514 1.448 1.448 5.527-.471 11.193 1.073 15.592 4.499.616.482 1.448.603 2.046 0 .501-.501.621-1.562 0-2.045l.006-.006z" fill="#914123"/><path d="M420.637 129.561c4.302-.742 8.87.223 13.04 1.284 1.804.459 2.576-2.328.772-2.792-4.712-1.206-9.727-2.123-14.578-1.285-.772.133-1.207 1.08-1.014 1.779.223.815 1.008 1.146 1.78 1.014z" fill="#646475"/><path d="M433.459 131.714c.199 14.553.392 29.1.591 43.652l.169 12.34c.025 1.864 2.921 1.864 2.897 0-.199-14.553-.392-29.1-.592-43.653l-.169-12.339c-.024-1.864-2.92-1.864-2.896 0z" fill="#646475"/><path d="m437.275 62.833-.032.02c.007 0 .02-.014.032-.02z" fill="#603813"/><path d="M444.93 63.122c-2.022-1.616-4.387-.012-5.938 1.502-3.33 3.263-5.382 7.756-6.866 12.225.422-1.851.905-3.697 1.629-5.446a18.204 18.204 0 0 1 2.075-3.69c.743-1.026 1.774-1.852 2.432-2.938.592-.977.7-2.195-.09-3.088-.495-.56-1.195-.808-1.847-.651a.885.885 0 0 0-.338-.03c-3.68.373-5.466 4.933-6.83 7.912-1.78 3.89-3.174 7.961-4.272 12.11-2.317 8.746-3.319 17.78-3.995 26.797-.199 2.629-.368 5.259-.537 7.888-.09 1.363-.175 2.732-.265 4.095-.042.658-.091 1.315-.133 1.973-.024.361 0 .856-.048 1.29-.145.109.006 3.233-.043 3.414-.211.784.127-1.405.9-1.629l.03.031c.838.657 2.238.494 3.198.271 1.086-.259 2.383-.73 3.3-1.399.954-.694.99-1.791.887-2.895a107.222 107.222 0 0 1-.241-16.821c.187-3.015.495-6.03.881-9.028-.344 6.115-.072 12.279.471 18.358.15 1.689.319 3.378.5 5.066.163 1.532.242 3.124.562 4.626.277 1.303.983 2.352 2.196 2.853 1.152.476 2.432.32 3.62.603.507.121 1.189-.181 1.165-.832-.374-8.745-.869-17.49-1.104-26.235-.217-7.98.434-16.332 3.005-23.92 1.007-2.973 2.425-5.796 4.435-8.142.905.06 1.719-.597 2.057-1.453.417-1.031.061-2.16-.778-2.835l-.018.018z" fill="#242433"/><path d="M430.623 97.186a86.305 86.305 0 0 1 1.587-14.674c.477-2.406 1.05-4.8 1.72-7.159.555-1.935 1.128-3.896 1.997-5.723.905-1.912 2.106-3.71 3.898-4.885 1.551-1.02.103-3.528-1.46-2.497-3.675 2.412-5.449 6.514-6.704 10.566-1.557 5.036-2.631 10.211-3.282 15.446a89.96 89.96 0 0 0-.652 8.926c-.042 1.863 2.854 1.863 2.896 0zM428.704 120.026c.519 6.085 4.713 11.459 10.524 13.389.742.247 1.581-.284 1.78-1.014.217-.79-.266-1.532-1.014-1.779-4.513-1.502-7.995-5.922-8.399-10.596-.067-.778-.616-1.448-1.449-1.448-.73 0-1.514.664-1.448 1.448h.006z" fill="#646475"/><path d="M427.907 119.115c-3.059.277-6.016 1.321-8.502 3.142-.609.446-.971 1.279-.518 1.978.386.603 1.327 1.001 1.979.519.537-.398 1.098-.76 1.683-1.08.314-.175.628-.331.954-.482.048-.024.543-.235.265-.121.145-.06.29-.114.434-.175a15.654 15.654 0 0 1 2.897-.784c.054-.012.603-.084.277-.042.175-.018.356-.042.531-.054.755-.067 1.485-.615 1.449-1.448-.031-.723-.64-1.52-1.449-1.447v-.006z" fill="#646475"/><path d="M488.079 138.975c-1.593-1.532-3.959-1.875-6.059-2.171-2.202-.308-4.441-.217-6.371 1.013-3.446 2.189-4.767 6.514-2.993 10.205.953 1.984 2.751 3.486 4.839 4.149 1.78.567 2.54-2.225.772-2.792-3.246-1.038-4.573-5.072-2.528-7.786 1.086-1.442 2.697-2.111 4.477-2.069 1.135.03 2.263.259 3.373.495.863.18 1.786.367 2.438 1.001 1.34 1.296 3.391-.748 2.046-2.045h.006z" fill="#914123"/><path d="M462.018 375.67c4.119 0 7.458-4.442 7.458-9.921 0-5.479-3.339-9.921-7.458-9.921s-7.458 4.442-7.458 9.921c0 5.479 3.339 9.921 7.458 9.921zM479.227 382.431c4.119 0 7.458-4.442 7.458-9.921 0-5.479-3.339-9.921-7.458-9.921s-7.458 4.442-7.458 9.921c0 5.479 3.339 9.921 7.458 9.921z" fill="#242433"/><path d="M458.862 374.519c2.462-.634 4.206-2.66 5.051-4.982 1.001-2.762.458-5.844-.266-8.6-.47-1.804-3.264-1.038-2.793.772.567 2.171 1.055 4.529.374 6.736-.477 1.538-1.599 2.889-3.138 3.287-1.804.465-1.038 3.257.772 2.793v-.006zM475.921 381.327c3.723.429 5.624-3.703 6.052-6.742.459-3.251-.272-6.64-2.166-9.342-.447-.64-1.267-.935-1.979-.519-.634.368-.972 1.339-.519 1.978a10.446 10.446 0 0 1 1.888 6.833c-.126 1.779-.917 5.163-3.276 4.892-.779-.091-1.448.729-1.448 1.447 0 .856.669 1.357 1.448 1.447v.006z" fill="#646475"/><path d="M518.339 367.86c4.119 0 7.458-4.442 7.458-9.921 0-5.479-3.339-9.921-7.458-9.921s-7.458 4.442-7.458 9.921c0 5.479 3.339 9.921 7.458 9.921zM535.548 374.621c4.119 0 7.458-4.442 7.458-9.921 0-5.48-3.339-9.921-7.458-9.921s-7.458 4.441-7.458 9.921c0 5.479 3.339 9.921 7.458 9.921z" fill="#242433"/><path d="M515.184 366.708c2.462-.633 4.206-2.66 5.051-4.982 1.001-2.762.458-5.844-.266-8.6-.471-1.803-3.264-1.037-2.794.772.567 2.171 1.056 4.529.374 6.737-.476 1.538-1.599 2.889-3.137 3.287-1.804.464-1.038 3.256.772 2.792v-.006zM532.236 373.517c3.723.428 5.623-3.703 6.052-6.743.458-3.25-.272-6.64-2.166-9.342-.447-.639-1.267-.935-1.979-.518-.634.368-.972 1.339-.519 1.978a10.444 10.444 0 0 1 1.888 6.833c-.126 1.779-.917 5.163-3.276 4.891-.779-.09-1.448.73-1.448 1.448 0 .856.669 1.357 1.448 1.447v.006z" fill="#646475"/><path d="M553.047 237.818v111.31c0 5.844-4.368 10.771-10.173 11.477l-68.57 8.329c-1.485.18-2.987.072-4.429-.32l-18.929-5.133a11.567 11.567 0 0 1-8.538-11.163V239.603c0-6.145 4.809-11.217 10.951-11.543l70.544-3.776a11.234 11.234 0 0 1 1.967.061l16.956 1.99a11.566 11.566 0 0 1 8.918 6.146 11.548 11.548 0 0 1 1.303 5.337z" fill="#fff"/><path d="M472.904 370.526c-1.153 0-2.299-.151-3.422-.459l-18.928-5.132c-.32-.091-3.88-1.212-4.152-1.309a1.508 1.508 0 0 1-.917-1.924 1.508 1.508 0 0 1 1.925-.916c.26.09 3.657 1.158 3.94 1.242l18.917 5.126a9.98 9.98 0 0 0 3.85.278l68.57-8.329c5.045-.615 8.846-4.903 8.846-9.981v-43.291a1.508 1.508 0 0 1 3.017 0v43.291c0 6.598-4.942 12.176-11.501 12.972l-68.57 8.329c-.531.067-1.062.097-1.587.097l.012.006z" fill="#B0B3D1"/><path d="M510.809 218.386a2.412 2.412 0 0 1-2.414-2.412v-64.985c0-.422-.217-.687-.35-.814a1.094 1.094 0 0 0-.832-.302l-25.657 1.46a1.123 1.123 0 0 0-1.056 1.116v58.561a2.413 2.413 0 1 1-4.827 0v-58.561a5.95 5.95 0 0 1 5.605-5.935l25.657-1.459a5.974 5.974 0 0 1 4.423 1.61 5.963 5.963 0 0 1 1.865 4.318v64.985a2.413 2.413 0 0 1-2.414 2.412v.006z" fill="#4D4D66"/><path d="M471.775 364.097a1.51 1.51 0 0 1-1.509-1.508V243.536c0-4.3 3.361-7.883 7.657-8.154l67.617-4.282c.827-.043 1.551.579 1.599 1.411a1.502 1.502 0 0 1-1.412 1.598l-67.617 4.282a5.166 5.166 0 0 0-4.833 5.145v119.053a1.51 1.51 0 0 1-1.508 1.508h.006zM457.04 366.642a1.508 1.508 0 0 1-1.508-1.508V237.312a5.682 5.682 0 0 1 5.304-5.657 1.52 1.52 0 0 1 1.605 1.405c.054.832-.58 1.55-1.406 1.604a2.663 2.663 0 0 0-2.486 2.648v127.822c0 .833-.676 1.508-1.509 1.508z" fill="#B0B3D1"/><path d="M560.735 215.147c-.331-2.876-.681-5.747-1.122-8.612-1.611-10.44-4.706-21.03-12.032-29.088-3.216-3.54-7.18-6.429-11.651-8.075-5.497-2.027-11.411-2.039-17.119-1.761-6.13.295-12.261.699-18.386 1.055-6.233.362-12.472.663-18.699 1.104-6.004.428-12.014 1.14-17.873 2.442-4.972 1.11-9.889 2.962-13.353 6.803-3.288 3.643-5.117 8.353-6.456 13.058-.441 1.544-.839 3.1-1.219 4.668a157.459 157.459 0 0 0-2.957 12.062c-.386 1.918-.73 3.842-1.044 5.778-.024.138-.06.277-.078.41-.03.187-.048.374-.079.561-.06.373-.126.747-.181 1.121a.777.777 0 0 0 0 .236c-.271 2.273-.374 4.571-.434 6.857-.036 1.291.036 2.666.73 3.818.658 1.091 1.732 1.821 2.806 2.448 4.918 2.865 10.354 4.716 15.924 5.537 5.804.85 11.597.319 17.281-.718 5.901-1.08 11.712-2.527 17.65-3.444 6.027-.929 12.11-1.495 18.21-1.857 6.052-.356 12.122-.513 18.193-.597 5.883-.085 11.808.072 17.673-.254 2.553-.144 5.129-.452 7.537-1.302 2.293-.809 4.646-2.075 6.046-4.12 1.623-2.37.953-5.434.639-8.136l-.006.006z" fill="#EBB396"/><path d="M477.019 185.957c3.385-.476 6.818-.748 10.203-1.309.773-.126 1.201-1.085 1.014-1.779-.223-.82-1.008-1.14-1.78-1.013-.465.078-.923.151-1.388.217l-.652.09c-.181.025-.211.031-.09.013-.103.012-.205.03-.314.042-.754.096-1.514.181-2.275.271-1.834.205-3.662.422-5.491.676-.772.108-1.2 1.097-1.013 1.779.229.832 1.001 1.122 1.78 1.013h.006z" fill="#A6665D"/><path d="M485.593 183.985c6.01 8.992 10.789 18.998 18.675 26.585 3.542 3.407 7.645 6.254 12.267 7.973a24.676 24.676 0 0 0 13.329 1.092c4.882-.953 9.329-3.565 12.243-7.624.459-.633.109-1.61-.519-1.978-.73-.428-1.526-.12-1.979.519-4.724 6.592-14.113 7.937-21.402 5.518-9.003-2.991-15.514-10.651-20.57-18.316-3.295-5.006-6.215-10.247-9.546-15.229-1.032-1.543-3.542-.096-2.498 1.46z" fill="#A6665D"/><path d="M528.615 219.544c5.666-2.744 10.01-7.858 12.068-13.781 2.106-6.079 1.394-12.822-1.587-18.479-1.708-3.245-4.151-6.019-7.108-8.172l-.344 2.648c3.071-.459 6.143-.917 9.208-1.382-.471-.126-.941-.247-1.412-.373 4.918 5.132 6.052 12.918 5.147 19.727-.446 3.384-1.424 6.761-3.114 9.734a24.541 24.541 0 0 1-7.059 7.841c-2.939 2.092-6.27 3.558-9.824 4.203-3.91.712-7.983.314-11.778-.79-7.995-2.334-14.608-7.84-19.58-14.39-2.915-3.842-5.214-8.015-7.501-12.249-2.142-3.962-4.887-7.382-8.079-10.542-1.328-1.315-3.373.736-2.046 2.044a59.309 59.309 0 0 1 4.381 4.837c1.695 2.099 2.932 4.523 4.194 6.894 2.467 4.65 5.273 9.113 8.683 13.135 6.752 7.967 16.328 14.041 27.014 14.288 9.479.223 18.524-4.879 23.538-12.876 2.432-3.884 3.681-8.372 4.158-12.901.465-4.481.078-9.185-1.472-13.437-.755-2.063-1.756-4.029-3.09-5.778-.736-.959-1.569-2.358-2.932-2.165-.242.036-.483.072-.718.109l-7.845 1.176c-.211.03-.428.066-.639.096-.549.085-.978.7-1.038 1.206-.072.616.199 1.086.694 1.442 4.531 3.293 7.56 8.576 8.321 14.106.754 5.495-.93 11.188-4.399 15.5-1.985 2.461-4.441 4.445-7.289 5.826-.706.344-.893 1.345-.519 1.978.422.718 1.273.863 1.979.519l-.012.006zM452.84 181.187c.085-.061.175-.109.26-.163.114-.073.289-.115.06-.036.259-.091.519-.151.784-.212.037-.006.314-.048.145-.024a10.832 10.832 0 0 1 .531-.036c.344-.012.682-.012 1.026.006 1.406.073 2.818.386 4.224.881.664.229 1.219.47 1.84.814.628.344 1.08.639 1.515 1.055.102.097.199.205.301.308.049.048.091.102.139.157-.018-.024-.114-.157-.024-.024.253.368.471.772.634 1.188.386.995.567 2.08.687 3.136 1.093 9.451 1.956 18.925 2.921 28.388.543 5.326 1.086 10.657 1.653 15.982.085.778.604 1.448 1.448 1.448.718 0 1.533-.663 1.449-1.448-1.074-10.096-2.076-20.204-3.108-30.306-.507-4.981-.905-9.999-1.581-14.963-.283-2.062-.82-4.221-2.317-5.759-1.128-1.164-2.619-1.918-4.109-2.515a18.033 18.033 0 0 0-5.425-1.225c-1.478-.102-3.252-.03-4.513.845-.64.446-.935 1.266-.519 1.978.374.633 1.334.965 1.979.519v.006z" fill="#A6665D"/><path d="M459.049 179.932c4.097-2.684 8.937-3.721 13.746-4.215 5.485-.561 11.018-.754 16.515-1.092 11.621-.706 23.237-1.454 34.858-2.111 5.672-.326 11.712-.543 17.01 1.858.712.325 1.557.205 1.979-.519.362-.621.199-1.659-.519-1.978-4.972-2.256-10.408-2.588-15.797-2.383-5.828.218-11.651.676-17.474 1.026-5.986.362-11.978.723-17.963 1.091-5.733.35-11.483.591-17.209 1.086-5.775.494-11.682 1.508-16.618 4.74-1.551 1.02-.103 3.522 1.46 2.497h.012zM469.82 207.012c6.294-.622 12.587-1.249 18.881-1.87.778-.078 1.448-.609 1.448-1.448 0-.723-.664-1.525-1.448-1.447-6.294.621-12.587 1.248-18.881 1.87-.778.078-1.448.609-1.448 1.447 0 .724.664 1.526 1.448 1.448zM500.979 204.063l37.604-2.895c.779-.061 1.449-.621 1.449-1.448 0-.735-.664-1.507-1.449-1.447l-37.604 2.895c-.778.06-1.448.621-1.448 1.447 0 .736.664 1.508 1.448 1.448zM547.647 200.311a35.93 35.93 0 0 0 9.431-.923c.736-.169 1.243-1.055 1.014-1.779a1.48 1.48 0 0 0-1.78-1.013 32.453 32.453 0 0 1-8.659.82c-.76-.03-1.484.688-1.448 1.447.036.809.634 1.418 1.448 1.448h-.006zM440.911 226.522a112.316 112.316 0 0 1 14.18-8.359c-.585-.078-1.171-.151-1.756-.229 4.888 5.223 9.775 10.446 14.669 15.662 1.279 1.364 3.319-.687 2.045-2.044-4.887-5.223-9.775-10.446-14.668-15.663-.459-.494-1.189-.506-1.756-.229a113.398 113.398 0 0 0-14.18 8.359c-.64.446-.935 1.267-.519 1.978.374.634 1.333.965 1.979.519l.006.006z" fill="#A6665D"/><path d="M455.936 215.316a321.255 321.255 0 0 1 2.957-34.027c.108-.772-.187-1.556-1.014-1.779-.676-.187-1.671.229-1.78 1.013a329.298 329.298 0 0 0-3.059 34.793c-.067 1.864 2.83 1.864 2.896 0z" fill="#A6665D"/><path d="M477.881 176.38c-.217-1.803-2.027-2.527-3.415-3.353-.7-.417-1.678-1.279-2.522-.785-.392.23-.561.64-.718 1.038-.043.108-.079.223-.121.338-.428.85-.73 1.767-.996 2.683-.277.971-.543 2.057-.235 3.052.338 1.098 1.454 2.057 2.655 1.677 1.231-.392 1.527-1.888 1.617-3.01 0-.054 0-.114.006-.169.157.139.32.278.495.404.658.483 1.569.676 2.311.266.76-.416 1.026-1.321.929-2.141h-.006z" fill="#fff"/><path d="M471.377 174.07c.362.609.682 1.242.959 1.894l-.144-.344c.289.699.531 1.417.718 2.153.187.736 1.05 1.248 1.78 1.013.76-.247 1.206-.995 1.013-1.779a16.385 16.385 0 0 0-1.822-4.397c-.386-.651-1.321-.947-1.979-.518-.652.422-.935 1.284-.519 1.978h-.006z" fill="#B0B3D1"/><path d="M505.282 149.487a42.849 42.849 0 0 0-.127-3.058c-.121-1.622-.181-3.504-1.152-4.818-.658-.893-1.654-1.267-2.583-1.032-1.159-2.406-3.898-3.268-5.962-1.875-.923-1.707-3.065-2.111-4.851-1.647-1.044.272-2.076.682-3.095 1.074a.69.69 0 0 0-.773-.229c-.543.168-1.128-.193-1.659-.326a3.92 3.92 0 0 0-1.834-.012c-1.147.253-2.233 1.049-2.957 2.068-.791 1.104-1.273 2.515-.978 3.939.218 1.043.905 2.014 1.805 2.412.736.965 1.949 1.484 2.962 1.912a16.35 16.35 0 0 0 4.803 1.2c.682.067 1.491.163 2.203.018.211.947.41 1.96.887 2.769.458.778 1.164 1.29 2.015 1.242.314-.018.616-.121.875-.29.513.652 1.128 1.195 1.937 1.297a2.053 2.053 0 0 0 1.406-.313 2.525 2.525 0 0 0 2.202.693c1.008-.181 1.744-.965 2.317-1.876.23.199.495.35.791.399.706.114 1.309-.368 1.569-1.086.271-.754.193-1.665.187-2.461h.012z" fill="#FFA682"/><path d="M484.712 144.035c1.412.712 2.83 1.424 4.242 2.135.646.326 1.316.621 1.937.983.042.024.302.151.109.055-.163-.085 0 .018.048.048.127.084-.108-.199-.036-.06.09.168-.072-.302-.024-.067-.012-.042-.03-.344-.036-.145 0-.042.06-.343 0-.15.03-.067.054-.133.084-.205.151-.175.187-.224.115-.145-.091.084-.024.048.199-.109a.643.643 0 0 1 .458-.163c-.754.055-1.484.628-1.448 1.448.03.736.64 1.502 1.448 1.447.7-.048 1.346-.368 1.708-.989a2.365 2.365 0 0 0 .266-1.725c-.266-1.097-1.231-1.652-2.161-2.123-1.816-.916-3.638-1.827-5.454-2.744-.676-.337-1.599-.199-1.98.519-.35.657-.205 1.616.519 1.978l.006.012z" fill="#994C41"/><path d="M491.893 140.513a57.464 57.464 0 0 1 2.317 9.403c.12.771 1.086 1.2 1.78 1.013.82-.229 1.134-1.007 1.013-1.779a57.722 57.722 0 0 0-2.317-9.403c-.247-.742-.995-1.224-1.78-1.013-.724.199-1.261 1.037-1.013 1.779zM496.333 140.917a74.883 74.883 0 0 1 1.804 9.861c.091.778.604 1.447 1.449 1.447.712 0 1.538-.663 1.448-1.447a81.444 81.444 0 0 0-1.907-10.627c-.193-.76-1.038-1.212-1.78-1.013-.772.211-1.201 1.019-1.014 1.779zM500.937 143.287c.549 2.744.73 5.597.555 8.498-.048.76.7 1.484 1.448 1.447.827-.036 1.4-.639 1.449-1.447a36.168 36.168 0 0 0-.658-9.264c-.151-.742-1.074-1.242-1.78-1.013-.791.253-1.171.983-1.014 1.779z" fill="#994C41"/><path d="m510.722 250.5-29.173 8.587a1.224 1.224 0 0 0-.829 1.52l2.514 8.534a1.226 1.226 0 0 0 1.521.828l29.173-8.587a1.224 1.224 0 0 0 .829-1.52l-2.514-8.534a1.225 1.225 0 0 0-1.521-.828z" fill="#454F8C"/><path d="M516.451 279.288c3.332 0 6.034-3.114 6.034-6.954 0-3.841-2.702-6.954-6.034-6.954s-6.034 3.113-6.034 6.954c0 3.84 2.702 6.954 6.034 6.954z" fill="#D67D53"/><path d="M509.91 286.187c2.663 0 4.821-2.489 4.821-5.56 0-3.071-2.158-5.561-4.821-5.561s-4.821 2.49-4.821 5.561c0 3.071 2.158 5.56 4.821 5.56z" fill="#D67D53"/><path d="M510.761 276.833c.139.085.266.175.392.272-.096-.079-.193-.151-.295-.229.271.217.519.464.73.741-.079-.096-.151-.193-.229-.295.211.277.386.579.525.898l-.145-.343c.126.307.217.627.271.959.055.331.386.699.664.862.308.181.766.259 1.116.145.35-.115.688-.332.863-.664l.145-.343a1.53 1.53 0 0 0 0-.772 4.973 4.973 0 0 0-.803-2.009 5.745 5.745 0 0 0-1.786-1.725 1.499 1.499 0 0 0-1.116-.144c-.338.09-.7.35-.863.663-.175.338-.265.742-.145 1.116.115.362.332.663.664.862l.012.006z" fill="#914123"/></g><defs><clipPath id="a"><path fill="#fff" d="M0 0h600v440H0z"/></clipPath></defs></svg>