<svg width="199" height="107" viewBox="0 0 199 107" fill="none" xmlns="http://www.w3.org/2000/svg">
<path d="M34.8704 56.7298C41.9722 54.8533 53.5935 54.8533 60.6934 56.7298L190.144 87.5876C209.133 91.0727 152.14 110.048 130.559 105.589C126.511 104.753 121.552 103.681 111.84 101.218C92.5336 96.3215 40.5292 82.9261 28.6362 79.0642C12.369 73.7803 4.56555 71.503 2.28883 69.9831C0.0121002 68.4631 -0.84993 66.1692 6.25188 64.2909L34.8722 56.7279L34.8704 56.7298Z" fill="#576485"/>
<path d="M47.2066 55.4721C49.5097 63.9475 46.2767 72.1661 39.986 73.8283C33.6952 75.4905 26.7292 69.9683 24.428 61.4929C22.1249 53.0176 25.3579 44.8008 31.6486 43.1367C37.9393 41.4745 44.9035 46.9967 47.2066 55.4721Z" fill="#001446"/>
<path d="M39.9878 73.8283L30.7036 76.281L22.3663 45.5912L31.6486 43.1367L39.9878 73.8283Z" fill="#001446"/>
<path d="M144.87 81.3266C147.173 89.802 143.94 98.0188 137.65 99.6829C131.359 101.345 124.393 95.8229 122.092 87.3475C119.788 78.8721 123.021 70.6553 129.312 68.9913C135.603 67.3291 142.567 72.8513 144.87 81.3266Z" fill="#001446"/>
<path d="M137.649 99.6829L128.365 102.136L120.028 71.444L129.312 68.9913L137.649 99.6829Z" fill="#001446"/>
<path d="M13.9159 60.4549L30.2585 55.363L101.052 76.641L111.736 89.9516L134.922 86.2356L132.638 66.823L24.7261 37.4814L8.40607 48.1675L13.9159 60.4549Z" fill="#001446"/>
<path d="M161.09 32.1146L167.324 36.9147C167.324 36.9147 166.681 33.4204 165.41 32.1146C163.493 30.1459 161.09 32.1146 161.09 32.1146Z" fill="#EBEDF0"/>
<path d="M12.7822 22.4644C17.728 15.3114 29.3228 11.1263 29.3228 11.1263C50.8339 4.28361 85.5658 -4.33767 113.079 3.5153C141.139 11.5234 168.873 38.2775 168.873 38.2775C168.873 38.2775 183.099 46.341 191.227 52.7792C199.934 59.6773 200.743 74.5042 196.531 81.1087C191.742 88.6181 155.071 96.2698 146.157 96.1996C141.203 96.05 140.296 95.5347 140.296 95.5347L138.527 95.0767C138.781 91.128 138.613 87.3567 137.753 83.0996C135.771 73.2889 127.445 66.7159 120.567 67.8295C114.016 68.8896 109.565 75.9854 111.738 89.9516L101.839 85.3731C85.5092 79.9784 67.8084 75.2078 48.3553 71.2389L41.112 70.3912C41.112 66.0343 40.8027 62.1965 39.5955 57.3927C37.1584 47.7058 28.938 41.7533 22.2531 43.5208C15.9511 45.1867 12.8387 52.1439 13.9177 60.4549C11.092 59.0217 9.50758 57.3447 8.62859 54.809C7.04977 50.2527 6.03496 44.2706 6.26886 41.9398C6.38391 40.7966 6.26508 38.5674 7.83823 37.8508C9.85275 30.4633 10.5563 25.6872 12.784 22.4662L12.7822 22.4644Z" fill="#EBEDF0"/>
<mask id="mask0_132_547" style="mask-type:luminance" maskUnits="userSpaceOnUse" x="6" y="0" width="193" height="97">
<path d="M12.7822 22.4644C17.728 15.3114 29.3228 11.1263 29.3228 11.1263C50.8339 4.28361 85.5658 -4.33767 113.079 3.5153C141.139 11.5234 168.873 38.2775 168.873 38.2775C168.873 38.2775 183.099 46.341 191.227 52.7792C199.934 59.6773 200.743 74.5042 196.531 81.1087C191.742 88.6181 155.071 96.2698 146.157 96.1996C141.203 96.05 140.296 95.5347 140.296 95.5347L138.527 95.0767C138.781 91.128 138.613 87.3567 137.753 83.0996C135.771 73.2889 127.445 66.7159 120.567 67.8295C114.016 68.8896 109.565 75.9854 111.738 89.9516L101.839 85.3731C85.5092 79.9784 67.8084 75.2078 48.3553 71.2389L41.112 70.3912C41.112 66.0343 40.8027 62.1965 39.5955 57.3927C37.1584 47.7058 28.938 41.7533 22.2531 43.5208C15.9511 45.1867 12.8387 52.1439 13.9177 60.4549C11.092 59.0217 9.50758 57.3447 8.62859 54.809C7.04977 50.2527 6.03496 44.2706 6.26886 41.9398C6.38391 40.7966 6.26508 38.5674 7.83823 37.8508C9.85275 30.4633 10.5563 25.6872 12.784 22.4662L12.7822 22.4644Z" fill="white"/>
</mask>
<g mask="url(#mask0_132_547)">
<path d="M71.6168 15.6603C56.0476 10.5869 44.5545 9.64872 23.2321 11.6304L21.0667 11.9832C42.6154 5.13492 85.6054 -4.3267 113.079 3.5152C120.137 5.53015 127.177 8.73266 133.758 12.395C134.115 12.6222 134.471 12.8494 134.828 13.0821C140.832 16.5321 146.255 20.0836 151.24 23.7128C155.45 26.8045 159.1 29.7392 161.971 32.1549C164.291 34.12 166.521 36.1017 168.681 38.0945C168.807 38.2146 168.873 38.2773 168.873 38.2773C164.384 45.6132 147.832 51.4272 116.391 52.1438C116.391 52.1438 99.3544 24.6953 71.6168 15.6585V15.6603Z" fill="#001446"/>
<path d="M127.713 9.23706L132.238 11.5623C123.776 16.3051 107.196 20.0728 87.5653 23.3676C86.4278 22.6104 85.0678 21.8255 83.4966 20.9223C101.642 17.4557 117.182 13.6622 127.713 9.23706Z" fill="#263762"/>
<path d="M166.351 38.4584C160.513 45.194 143.039 48.873 117.815 50.5149C117.815 50.5149 115.065 43.6667 134.828 39.212C155.899 34.4618 166.351 38.4584 166.351 38.4584Z" fill="#263762"/>
<path d="M126.73 20.3495L115.727 23.2565L111.551 19.4944L122.552 16.5874L126.73 20.3495Z" fill="#263762"/>
<path opacity="0.2" d="M201.4 75.5332C202.164 52.7758 174.63 46.8492 156.641 46.4964C144.47 33.6846 114.096 -3.21076 70.9039 0.983526L48.7477 -1.93087L73.4711 -4.66241L124.442 2.43149L209.958 61.8201L201.4 75.5351V75.5332Z" fill="white"/>
<path d="M203.29 81.1107C203.29 81.1107 201.917 61.4708 202.396 65.1461C204.129 78.4715 175.786 84.9928 167.326 85.5654C162.507 85.8923 153.345 86.8434 148.697 80.7948C146.117 77.4372 143.85 70.2823 131.657 63.0536C129.099 61.5373 125.262 59.7791 114.098 56.8887C51.1773 40.5991 23.7585 26.7401 21.2988 25.1259C18.8391 23.5117 11.0507 16.9054 11.0507 16.9054L-6.46901 68.9507L154.507 107.253L202.298 89.9536L203.29 81.1125V81.1107Z" fill="#C4C9D2"/>
</g>
<path d="M65.4016 13.7136C67.0917 14.192 68.4234 14.6408 70.5586 15.3093C84.136 10.4299 98.6716 6.63266 114.094 3.81246L108.542 2.42914C94.286 4.70081 79.9957 8.56081 65.3997 13.7136H65.4016Z" fill="#F7F6F6"/>
<path d="M13.7649 27.4215C13.1048 29.2148 11.5354 36.2312 11.2524 39.9841L7.83639 37.8509C9.07378 26.0918 12.7822 22.4663 12.7822 22.4663C12.7822 22.4663 14.4251 25.6282 13.7649 27.4234V27.4215Z" fill="#667290"/>
<path d="M72.9805 48.0086L65.4486 45.2826L65.7297 47.063L73.3917 49.8906L72.9805 48.0086Z" fill="#667290"/>
<path d="M40.7273 36.1423L33.2841 33.191L33.5105 34.9788L41.0801 38.0354L40.7273 36.1423Z" fill="#667290"/>
<path d="M111.736 53.6492C83.8644 45.377 55.9024 37.452 30.7791 27.1925C30.1208 26.9229 24.147 24.3686 23.6868 24.075C22.1117 23.0684 28.6514 14.2403 37.1811 13.4018C41.9704 12.9308 53.9048 12.5097 67.9651 17.0235C98.0907 26.6939 111.734 53.6492 111.734 53.6492H111.736Z" fill="#001446"/>
<path d="M69.5608 19.341L67.6085 39.4462L62.5891 37.8247L65.0017 17.869C66.4843 18.2975 67.9933 18.7721 69.5608 19.341Z" fill="#263762"/>
<path d="M34.9516 28.162L31.5374 26.7935L37.3434 14.242L40.3256 14.4138L34.9516 28.162Z" fill="#263762"/>
<path opacity="0.2" d="M109.073 52.7792C67.3067 22.4422 26.6953 21.2011 26.6953 21.2011C28.5137 18.3606 32.837 14.6557 37.8998 14.3233C45.2543 13.8394 57.715 15.4185 66.5654 18.2719C94.3577 27.2349 109.073 52.7773 109.073 52.7773V52.7792Z" fill="white"/>
<path d="M107.394 54.0317C107.394 54.0317 107.233 53.6383 105.532 54.7742C103.678 56.0134 96.9588 57.3783 95.2555 56.7079C92.8693 55.7696 92.6883 53.2985 93.5729 52.3732C96.3137 49.5087 98.4055 49.5604 99.4336 49.6195C100.46 49.6786 107.396 54.0299 107.396 54.0299L107.394 54.0317Z" fill="#BEC3CD"/>
<path d="M110.091 53.2115C110.091 53.2115 104.923 47.8279 102.501 47.7835C100.616 47.7484 96.2175 47.9221 95.1971 50.3821C94.1785 52.844 97.2531 54.1682 101.163 54.9605C105.074 55.751 107.745 55.1489 108.693 54.6447C109.642 54.1405 110.091 53.2115 110.091 53.2115Z" fill="#EBEDF0"/>
<mask id="mask1_132_547" style="mask-type:luminance" maskUnits="userSpaceOnUse" x="95" y="47" width="16" height="9">
<path d="M110.091 53.2115C110.091 53.2115 104.923 47.8279 102.501 47.7835C100.616 47.7484 96.2175 47.9221 95.1971 50.3821C94.1785 52.844 97.2531 54.1682 101.163 54.9605C105.074 55.751 107.745 55.1489 108.693 54.6447C109.642 54.1405 110.091 53.2115 110.091 53.2115Z" fill="white"/>
</mask>
<g mask="url(#mask1_132_547)">
<path d="M97.4661 47.9886C97.4661 47.9886 97.1285 50.6592 101.505 51.6934C103.779 52.2309 110.983 53.3224 110.983 53.3224L109.231 56.4603L94.748 56.7318L92.8712 50.5835L95.5195 47.0559L97.4643 47.9904L97.4661 47.9886Z" fill="#C4C9D2"/>
</g>
<path d="M127.713 9.23681C122.806 11.6488 107.462 16.9974 83.4966 20.9221C69.3854 13.5345 48.295 9.72993 29.3229 11.1262C42.491 5.43407 94.9689 -8.69648 127.713 9.23866V9.23681Z" fill="#EBEDF0"/>
<path d="M112.914 89.7524C110.598 81.2891 113.849 73.0827 120.176 71.423C126.502 69.7632 133.508 75.2786 135.824 83.7419C138.14 92.2052 134.889 100.412 128.563 102.071C122.237 103.731 115.231 98.2157 112.914 89.7524Z" fill="#263762"/>
<path d="M115.817 88.9911C114.088 82.6726 116.515 76.546 121.238 75.3068C125.962 74.0676 131.193 78.1851 132.922 84.5035C134.651 90.8219 132.223 96.9486 127.5 98.1878C122.777 99.427 117.546 95.3095 115.817 88.9911Z" fill="#E5E7EC"/>
<path d="M117.395 88.5772C115.985 83.4254 117.965 78.4297 121.817 77.4191C125.669 76.4085 129.934 79.7657 131.344 84.9176C132.754 90.0695 130.774 95.0652 126.922 96.0757C123.07 97.0863 118.805 93.7291 117.395 88.5772Z" fill="#001446"/>
<path d="M116.531 81.2914L117.832 78.9126L122.92 83.7921V76.7019L125.523 77.3853V84.4755L130.61 82.2647L131.911 85.3269L126.824 87.5376L131.911 92.4152L130.61 94.7959L125.523 89.9164V97.0048L122.92 96.3214V89.233L117.832 91.4419L116.531 88.3816L121.618 86.1709L116.531 81.2914Z" fill="#E5E7EC"/>
<path d="M125.464 86.4612C125.685 87.2701 125.376 88.0532 124.77 88.212C124.166 88.3708 123.497 87.8445 123.274 87.0355C123.054 86.2266 123.363 85.4435 123.968 85.2847C124.574 85.1259 125.242 85.6522 125.464 86.4612Z" fill="#263762"/>
<path d="M15.39 63.852C13.0739 55.3887 16.3248 47.1823 22.6512 45.5226C28.9775 43.8628 35.9837 49.3782 38.2997 57.8415C40.6158 66.3048 37.3649 74.5112 31.0385 76.171C24.7121 77.8307 17.706 72.3153 15.39 63.852Z" fill="#263762"/>
<path d="M18.2923 63.0907C16.5632 56.7723 18.9905 50.6456 23.7139 49.4064C28.4373 48.1672 33.6681 52.2848 35.3972 58.6032C37.1263 64.9216 34.699 71.0483 29.9756 72.2875C25.2522 73.5267 20.0214 69.4092 18.2923 63.0907Z" fill="#E5E7EC"/>
<path d="M19.8703 62.6767C18.4604 57.5248 20.4401 52.5291 24.2921 51.5185C28.1441 50.5079 32.4096 53.8651 33.8195 59.017C35.2294 64.1689 33.2497 69.1646 29.3977 70.1752C25.5457 71.1857 21.2802 67.8285 19.8703 62.6767Z" fill="#001446"/>
<path d="M19.0069 55.3905L20.3085 53.0099L25.3957 57.8894V50.801L27.9988 51.4844V58.5727L33.0861 56.3639L34.3876 59.4242L29.3003 61.6349L34.3876 66.5144L33.0861 68.8932L27.9988 64.0137V71.1039L25.3957 70.4205V63.3303L20.3085 65.541L19.0069 62.4789L24.0942 60.2682L19.0069 55.3905Z" fill="#E5E7EC"/>
<path d="M27.9385 60.5584C28.1591 61.3674 27.8498 62.1505 27.2443 62.3093C26.6407 62.4681 25.9711 61.9418 25.7485 61.1328C25.5259 60.3239 25.8371 59.5408 26.4426 59.382C27.0462 59.2231 27.7159 59.7495 27.9385 60.5584Z" fill="#263762"/>
<path d="M67.4274 16.9975C66.488 24.2059 64.9073 39.4686 64.9073 39.4686C64.9073 39.4686 62.6532 42.2574 63.1003 46.4461C63.8265 53.2335 64.7564 65.3989 64.1245 70.042" stroke="#001446" stroke-width="0.288975" stroke-miterlimit="10"/>
<path d="M111.649 53.5715C108.459 56.9181 107.85 69.5988 105.796 81.1105L50.1755 66.339C47.8271 65.7185 45.6409 63.6795 44.3809 60.935L32.5011 38.0078C31.1751 35.1174 31.0204 31.0745 32.9803 28.0844L39.188 13.4035" stroke="#001446" stroke-width="0.288975" stroke-miterlimit="10"/>
<path d="M116.497 52.1105C116.497 52.1105 116.733 53.4661 118.809 54.5853C121.114 55.8264 141.207 64.1208 146.238 66.4405C152.553 69.3549 161 71.3569 166.56 70.5609C175.199 69.3235 188.105 66.0397 191.163 64.5327C194.5 62.8871 195.89 60.4122 195.424 58.4822" stroke="#001446" stroke-width="0.288975" stroke-miterlimit="10"/>
<path d="M7.83629 37.8489C7.83629 37.8489 12.2973 40.5491 13.0669 41.2528C15.1456 43.1569 17.7279 46.0805 17.7279 46.0805" stroke="#001446" stroke-width="0.288975" stroke-miterlimit="10"/>
<path d="M141.756 64.4703C141.756 64.4703 134.109 66.5832 132.238 72.5357" stroke="#001446" stroke-width="0.288975" stroke-miterlimit="10"/>
<path d="M83.7739 20.9224C74.1577 15.0603 49.4306 9.4421 29.323 11.1265" stroke="#001446" stroke-width="0.288975" stroke-miterlimit="10"/>
<path d="M195.952 58.4824C196.705 60.056 194.311 63.7165 189.98 65.17C184.844 66.8932 174.396 70.1474 165.689 71.5326C161.083 72.2658 148.607 71.8077 146.802 69.9405C145.747 68.8509 143.695 66.8913 141.756 64.4719C152.792 67.6486 163.282 66.1766 163.282 66.1766C174.232 64.5347 181.175 62.5142 188.058 59.8602C191.021 58.2479 191.968 55.1451 192.057 53.4829C192.806 54.0573 195.545 57.631 195.952 58.4843V58.4824Z" fill="#667290"/>
<path d="M186.14 78.8073L173.03 82.2481V76.8441L186.14 73.4052V78.8073Z" fill="#001446"/>
<path d="M186.964 78.9868L173.855 82.4276V77.0254L186.964 73.5847V78.9868Z" fill="white"/>
<path d="M163.28 66.1747C172.86 64.6843 180.756 62.4292 188.056 59.8583L189.98 65.17C186.577 66.5515 175.328 70.0107 165.689 71.5325L163.282 66.1747H163.28Z" fill="#CBCFD7"/>
<path d="M177.195 66.7011C177.614 67.5618 178.534 67.9884 179.251 67.6541C179.968 67.3198 180.209 66.3502 179.791 65.4895C179.372 64.6289 178.451 64.2023 177.735 64.5365C177.018 64.8708 176.776 65.8405 177.195 66.7011Z" fill="#667290"/>
</svg>
