<svg width="211" height="109" viewBox="0 0 211 109" fill="none" xmlns="http://www.w3.org/2000/svg">
<path d="M169.271 32.3183L175.645 37.2937C175.645 37.2937 174.987 33.6707 173.689 32.3183C171.728 30.2773 169.271 32.3183 169.271 32.3183Z" fill="#EBEDF0"/>
<path d="M36.0956 56.3663C43.4025 54.3934 55.3602 54.3934 62.6672 56.3663L195.862 88.7939C215.402 92.4564 156.757 112.397 134.551 107.712C130.387 106.834 125.284 105.707 115.29 103.119C95.4248 97.9734 41.9157 83.8975 29.68 79.8387C12.9425 74.2858 4.9127 71.8932 2.57031 70.2969C0.22612 68.7007 -0.658112 66.2883 6.64706 64.3154L36.0956 56.3663Z" fill="#576485"/>
<path d="M52.5462 56.5314C54.9011 65.3163 51.5956 73.8357 45.1639 75.5593C38.7339 77.2829 31.6117 71.5579 29.2568 62.7712C26.9018 53.9863 30.2074 45.4669 36.6391 43.7433C43.0708 42.0197 50.1912 47.7447 52.5462 56.5314Z" fill="#001446"/>
<path d="M45.166 75.5615L35.674 78.1049L27.1492 46.2902L36.6413 43.7468L45.166 75.5615Z" fill="#001446"/>
<path d="M152.395 83.3327C154.75 92.1175 151.445 100.637 145.013 102.361C138.583 104.084 131.461 98.3591 129.106 89.5725C126.751 80.7876 130.057 72.2682 136.488 70.5446C142.918 68.821 150.04 74.546 152.395 83.3327Z" fill="#001446"/>
<path d="M145.012 102.361L135.52 104.904L126.995 73.0896L136.488 70.5462L145.012 102.361Z" fill="#001446"/>
<path d="M18.5096 61.6969L35.2167 56.4184L107.596 78.4756L118.519 92.2735L142.226 88.4209L139.889 68.2972L29.5616 37.882L12.876 48.959L18.5096 61.6969Z" fill="#001446"/>
<path d="M8.78313 30.6073L11.0825 18.6066C11.0825 18.6066 12.6787 17.9447 15.5036 17.0157C31.5829 11.4036 87.6981 -6.645 119.893 2.67255C148.581 10.975 176.937 38.7088 176.937 38.7088C176.937 38.7088 193.726 47.3771 202.036 54.0509C210.937 61.2019 213.24 78.7357 208.807 85.1943C202.612 94.2178 164.73 99.7599 160.734 100.242C154.159 101.035 149.924 101.035 145.872 100.242L145.912 97.5878C146.172 93.4931 146 89.585 145.121 85.171C143.096 75.0015 134.58 68.1878 127.551 69.341C120.854 70.4405 116.302 77.7959 118.522 92.2735L108.403 87.5278C91.7085 81.9354 73.6096 76.9906 53.7226 72.8762L46.317 71.9973C46.317 67.4811 46.0013 63.5012 44.7656 58.5241C42.2743 48.4819 33.8697 42.3121 27.0362 44.1433C20.5937 45.8687 17.412 53.0824 18.5132 61.6969C16.2892 59.6522 14.223 58.1133 10.6646 53.9469C9.37859 52.4403 7.18327 44.1433 7.18864 36.3754C7.19044 33.9577 8.78671 30.6091 8.78671 30.6091L8.78313 30.6073Z" fill="#EBEDF0"/>
<mask id="mask0_132_419" style="mask-type:luminance" maskUnits="userSpaceOnUse" x="7" y="0" width="204" height="101">
<path d="M8.78313 30.6073L11.0825 18.6066C11.0825 18.6066 12.6787 17.9447 15.5036 17.0157C31.5829 11.4036 87.6981 -6.645 119.893 2.67255C148.581 10.975 176.937 38.7088 176.937 38.7088C176.937 38.7088 193.726 47.3771 202.036 54.0509C210.937 61.2019 213.24 78.7357 208.807 85.1943C202.612 94.2178 164.73 99.7599 160.734 100.242C154.159 101.035 149.924 101.035 145.872 100.242L145.912 97.5878C146.172 93.4931 146 89.585 145.121 85.171C143.096 75.0015 134.58 68.1878 127.551 69.341C120.854 70.4405 116.302 77.7959 118.522 92.2735L108.403 87.5278C91.7085 81.9354 73.6096 76.9906 53.7226 72.8762L46.317 71.9973C46.317 67.4811 46.0013 63.5012 44.7656 58.5241C42.2743 48.4819 33.8697 42.3121 27.0362 44.1433C20.5937 45.8687 17.412 53.0824 18.5132 61.6969C16.2892 59.6522 14.223 58.1133 10.6646 53.9469C9.37859 52.4403 7.18327 44.1433 7.18864 36.3754C7.19044 33.9577 8.78671 30.6091 8.78671 30.6091L8.78313 30.6073Z" fill="white"/>
</mask>
<g mask="url(#mask0_132_419)">
<path d="M77.5016 15.2615C53.2868 7.07743 36.9098 11.4322 24.0535 14.5799L23.4742 14.3449C45.5063 7.24603 91.8035 -5.45598 119.892 2.67245C127.11 4.76195 134.306 8.08004 141.035 11.877C141.399 12.112 141.765 12.3487 142.129 12.5891C148.268 16.1654 153.811 19.8476 158.91 23.6087C163.214 26.8138 166.947 29.8557 169.881 32.3613C172.252 34.3988 174.532 36.4524 176.739 38.5186C176.869 38.6423 176.935 38.7087 176.935 38.7087C172.345 46.3134 155.423 52.3398 123.279 53.0823C123.279 53.0823 105.795 24.8247 77.5016 15.2615Z" fill="#001446"/>
<path d="M71.1257 13.3406C72.8547 13.8374 74.2339 14.2158 76.4149 14.9099C90.2971 9.8521 105.162 5.90627 120.929 2.98276L115.254 1.54791C100.678 3.90286 86.0463 8.00115 71.1239 13.3406H71.1257Z" fill="#263762"/>
<path d="M134.855 8.6037L139.48 11.0142C130.828 15.9304 113.879 19.8368 93.807 23.2517C92.6448 22.4661 91.2548 21.6519 89.6478 20.7174C108.2 17.1249 124.088 13.1916 134.855 8.6037Z" fill="#263762"/>
<path d="M174.358 38.8952C168.389 45.8775 150.523 49.6906 124.735 51.3927C124.735 51.3927 121.923 44.2938 142.129 39.6754C163.672 34.7503 174.358 38.8934 174.358 38.8934V38.8952Z" fill="#263762"/>
<path d="M133.848 20.1237L122.601 23.1369L118.33 19.2359L129.578 16.2227L133.848 20.1237Z" fill="#263762"/>
<path opacity="0.2" d="M210.191 77.3277C210.971 53.737 182.821 47.594 164.43 47.2264C151.987 33.9468 120.931 -4.30087 76.7735 0.0467281L54.1208 -2.97363L79.3975 -5.80566L131.509 1.54794L218.94 63.1119L210.191 77.3277Z" fill="white"/>
<path d="M11.0826 18.6064C11.0826 18.6064 28.2936 28.8028 79.3168 45.9152C94.9226 51.1488 124.194 57.9159 138.23 64.7763C152.265 71.6367 163.584 87.0255 170.64 91.5775C177.697 96.1296 202.384 88.254 206.746 84.371C212.222 79.4961 213.411 70.8601 213.411 70.8601L213.737 90.4601L155.186 110.238L-3.0256 68.1231L11.0789 18.6064H11.0826Z" fill="#C4C9D2"/>
</g>
<path d="M118.519 54.6429C90.0243 46.0678 61.4349 37.8515 35.7493 27.2175C33.4356 26.2597 29.6207 25.0491 28.862 23.2519C28.2934 21.9032 27.6011 19.4603 27.0326 17.3009C27.0326 17.3009 49.2261 8.60392 73.5343 16.6965C105.998 27.5063 118.52 54.6411 118.52 54.6411L118.519 54.6429Z" fill="#001446"/>
<path d="M43.3056 59.0083C45.6605 67.7932 42.355 76.3126 35.9233 78.0362C29.4934 79.7598 22.3711 74.0348 20.0162 65.2481C17.663 56.4633 20.9668 47.9439 27.3985 46.2202C33.8284 44.4966 40.9506 50.2217 43.3056 59.0083Z" fill="#263762"/>
<path d="M40.3553 59.7994C42.113 66.3584 39.6451 72.7184 34.8437 74.0044C30.0423 75.2904 24.7262 71.0163 22.9685 64.4572C21.2108 57.8982 23.6788 51.5382 28.4801 50.2522C33.2815 48.9662 38.5976 53.2403 40.3553 59.7994Z" fill="#E5E7EC"/>
<path d="M26.439 61.593L24.2401 65.0653C23.6375 66.0177 24.4841 67.6803 25.5297 67.5978L29.3428 67.2965C29.7984 67.2606 30.2845 67.587 30.5768 68.1215L33.0304 72.6126C33.703 73.843 35.0733 73.6618 35.1163 72.3364L35.2741 67.4992C35.2921 66.9216 35.5934 66.493 36.0364 66.4087L39.7527 65.7128C40.7714 65.5227 40.7714 63.7452 39.7527 63.0081L36.0364 60.3213C35.5934 60.0003 35.2921 59.4084 35.2741 58.8219L35.1163 53.9004C35.0733 52.5516 33.703 51.6351 33.0304 52.5068L30.5768 55.6814C30.2845 56.0598 29.7966 56.1244 29.3428 55.8446L25.5297 53.5004C24.4841 52.8583 23.6375 54.0672 24.2401 55.3424L26.439 59.9931C26.7009 60.5473 26.7009 61.1787 26.439 61.593Z" fill="#263762"/>
<path d="M33.5631 61.6181C33.9469 63.053 33.4088 64.4448 32.3578 64.7246C31.3068 65.0062 30.1445 64.0717 29.7607 62.6369C29.3769 61.202 29.9149 59.812 30.966 59.5304C32.0152 59.2488 33.1792 60.1833 33.5631 61.6181Z" fill="#E5E7EC"/>
<path d="M143.155 85.8095C145.51 94.5943 142.204 103.114 135.773 104.837C129.343 106.561 122.22 100.836 119.866 92.0493C117.512 83.2644 120.816 74.745 127.248 73.0214C133.678 71.2978 140.8 77.0228 143.155 85.8095Z" fill="#263762"/>
<path d="M140.203 86.6004C141.961 93.1594 139.493 99.5194 134.691 100.805C129.89 102.091 124.574 97.8173 122.816 91.2583C121.058 84.6992 123.526 78.3392 128.328 77.0532C133.129 75.7673 138.445 80.0413 140.203 86.6004Z" fill="#E5E7EC"/>
<path d="M126.288 88.3939L124.09 91.8662C123.487 92.8186 124.333 94.4812 125.379 94.3987L129.192 94.0974C129.648 94.0615 130.134 94.388 130.426 94.9225L132.88 99.4135C133.552 100.644 134.923 100.463 134.966 99.1373L135.124 94.3001C135.141 93.7226 135.443 93.2939 135.886 93.2096L139.602 92.5137C140.621 92.3236 140.621 90.5462 139.602 89.8108L135.886 87.1223C135.443 86.8012 135.141 86.2093 135.124 85.6228L134.966 80.7013C134.923 79.3525 133.552 78.436 132.88 79.3059L130.426 82.4805C130.134 82.859 129.646 82.9235 129.192 82.6437L125.379 80.2995C124.333 79.6574 123.487 80.8663 124.09 82.1415L126.288 86.7922C126.55 87.3465 126.55 87.9778 126.288 88.3921V88.3939Z" fill="#263762"/>
<path d="M133.412 88.4191C133.796 89.854 133.258 91.2458 132.207 91.5256C131.158 91.8071 129.994 90.8727 129.61 89.4379C129.226 88.003 129.764 86.6112 130.815 86.3296C131.864 86.048 133.028 86.9825 133.412 88.4173V88.4191Z" fill="#E5E7EC"/>
<path d="M75.6274 18.698L73.2492 39.4746L68.1178 37.7923L70.966 17.1735L75.6274 18.698Z" fill="#263762"/>
<path d="M40.0645 27.6837L36.5743 26.2632L40.3049 15.084L43.5728 14.6804L40.0645 27.6837Z" fill="#263762"/>
<path d="M73.2185 16.648C72.2572 24.12 70.6429 39.941 70.6429 39.941C70.6429 39.941 68.3382 42.8322 68.7956 47.1744C69.5381 54.2106 70.4887 66.8211 69.843 71.635" stroke="#001446" stroke-width="0.29251" stroke-miterlimit="10"/>
<path d="M42.0089 14.0062L38.0002 28.1394C35.9968 31.2405 36.1547 35.4303 37.5106 38.4273L49.6548 62.1956C50.9426 65.0402 53.1774 67.153 55.579 67.7969L112.444 83.1103C114.546 71.1759 115.166 58.0327 118.429 54.5622" stroke="#001446" stroke-width="0.29251" stroke-miterlimit="10"/>
<path d="M123.388 53.0484C123.388 53.0484 123.629 54.4546 125.752 55.6132C128.109 56.8992 148.651 65.4975 153.794 67.9027C160.251 70.923 168.866 72.8368 174.573 72.1731C183.53 71.1311 196.601 67.4866 199.726 65.9244C203.137 64.2187 206.717 60.3356 205.054 58.5815" stroke="#001446" stroke-width="0.29251" stroke-miterlimit="10"/>
<path d="M8.78321 30.6074C8.78321 30.6074 17.543 34.7343 18.5258 35.1648C19.5087 35.5953 20.0629 36.718 20.4808 38.2497C20.8969 39.7814 22.4071 46.7961 22.4071 46.7961" stroke="#001446" stroke-width="0.29251" stroke-miterlimit="10"/>
<path d="M149.21 65.8599C149.21 65.8599 144.626 67.5566 143.426 68.4498C141.951 69.5457 139.695 71.7392 139.48 74.2215" stroke="#001446" stroke-width="0.29251" stroke-miterlimit="10"/>
<path d="M176.438 87.1709C175.263 87.0436 178.049 82.8771 178.447 82.1292C181.83 75.7782 188.998 74.8545 196.2 72.9085C202.656 71.1634 203.81 73.6241 204.658 74.8617C204.984 75.3388 206.226 77.7709 205.454 78.3663C203.664 79.7509 199.539 81.5463 193.57 83.2663C187.11 85.1298 177.801 87.3144 176.438 87.1673V87.1709Z" fill="#CBCFD7"/>
<path d="M187.985 66.3062C188.424 67.2281 189.391 67.6854 190.144 67.3267C190.898 66.968 191.151 65.9295 190.711 65.0059C190.272 64.084 189.305 63.6266 188.552 63.9853C187.798 64.344 187.546 65.3825 187.985 66.3062Z" fill="#667290"/>
<path d="M10.2072 23.2518C10.2072 23.2518 12.6734 25.0562 13.841 26.1359C15.414 27.5923 15.7243 30.6072 16.7 34.3522L8.7168 30.7507L10.2072 23.2518Z" fill="#667290"/>
<path d="M149.21 65.8184C155.034 65.3647 166.575 64.875 174.67 67.099C176.106 67.4936 178.183 70.4978 178.746 71.669C178.746 71.669 169.492 73.6975 164.21 72.4851C157.222 70.8799 149.212 65.8202 149.212 65.8202L149.21 65.8184Z" fill="#667290"/>
<path d="M78.8971 48.7941L71.1955 45.9674L71.4825 47.8148L79.3168 50.7455L78.8971 48.7941Z" fill="#667290"/>
<path d="M45.9225 36.4937L38.3107 33.4338L38.542 35.2884L46.2812 38.4558L45.9225 36.4937Z" fill="#667290"/>
<path opacity="0.2" d="M116.273 53.0823C77.7492 27.1868 58.8128 21.86 28.2917 17.9643C28.2917 17.9643 49.1383 9.65836 73.0375 17.7473C104.348 28.3455 116.275 53.0823 116.275 53.0823H116.273Z" fill="white"/>
<path d="M114.081 55.0393C114.081 55.0393 114.772 55.2186 113.034 56.397C111.138 57.6812 104.373 59.8729 102.633 59.1788C100.194 58.2049 99.4064 52.878 100.656 52.4601C103.788 51.4127 104.891 50.4047 105.94 50.4657C106.99 50.5267 114.081 55.0375 114.081 55.0375V55.0393Z" fill="#BEC3CD"/>
<path d="M116.838 54.1889C116.838 54.1889 111.554 48.6092 109.077 48.5607C107.149 48.5231 102.653 48.7042 101.611 51.2547C100.569 53.8051 103.715 55.179 107.711 56.0004C111.708 56.8201 114.438 56.1959 115.409 55.674C116.379 55.1521 116.838 54.1889 116.838 54.1889Z" fill="#EBEDF0"/>
<mask id="mask1_132_419" style="mask-type:luminance" maskUnits="userSpaceOnUse" x="101" y="48" width="16" height="9">
<path d="M116.838 54.1889C116.838 54.1889 111.554 48.6092 109.077 48.5607C107.149 48.5231 102.653 48.7042 101.611 51.2547C100.569 53.8051 103.715 55.179 107.711 56.0004C111.708 56.8201 114.438 56.1959 115.409 55.674C116.379 55.1521 116.838 54.1889 116.838 54.1889Z" fill="white"/>
</mask>
<g mask="url(#mask1_132_419)">
<path d="M103.93 48.7725C103.93 48.7725 103.585 51.54 108.058 52.6126C110.383 53.1704 117.749 54.3003 117.749 54.3003L115.957 57.552L101.151 57.8336L99.2323 51.4611L101.941 47.804L103.93 48.7725Z" fill="#C4C9D2"/>
</g>
<path d="M199.528 84.1362L185.765 87.8237V82.0305L199.528 78.343V84.1362Z" fill="#001446"/>
<path d="M200.395 84.3281L186.629 88.0156V82.2224L200.395 78.5349V84.3281Z" fill="white"/>
</svg>
