<svg width="221" height="148" viewBox="0 0 221 148" fill="none" xmlns="http://www.w3.org/2000/svg">
<path d="M39.2765 90.3651C47.2607 88.2097 60.3278 88.2097 68.3139 90.3651L213.868 125.803C235.219 129.804 171.133 151.596 146.867 146.476C142.317 145.516 136.739 144.286 125.82 141.456C104.111 135.834 45.6359 120.451 32.2649 116.015C13.9732 109.946 5.20045 107.332 2.63789 105.588C0.077179 103.843 -0.891861 101.207 7.09427 99.0513L39.2746 90.3651H39.2765Z" fill="#576485"/>
<path d="M195.291 57.4332L190.889 58.6215C190.342 58.7688 189.963 59.2681 189.963 59.8374V70.8945C189.963 71.5338 190.412 72.0828 191.035 72.2062L191.908 72.3794C192.139 72.4254 192.374 72.418 192.601 72.3572L196.508 71.3237C197.288 71.1174 197.831 70.4081 197.831 69.5957V59.6826C197.831 58.9604 197.514 58.2733 196.963 57.809C196.499 57.4166 195.875 57.2766 195.289 57.4351L195.291 57.4332Z" fill="#263762"/>
<mask id="mask0_227_480" style="mask-type:luminance" maskUnits="userSpaceOnUse" x="189" y="57" width="9" height="16">
<path d="M195.291 57.4332L190.889 58.6215C190.342 58.7688 189.963 59.2681 189.963 59.8374V70.8945C189.963 71.5338 190.412 72.0828 191.035 72.2062L191.908 72.3794C192.139 72.4254 192.374 72.418 192.601 72.3572L196.508 71.3237C197.288 71.1174 197.831 70.4081 197.831 69.5957V59.6826C197.831 58.9604 197.514 58.2733 196.963 57.809C196.499 57.4166 195.875 57.2766 195.289 57.4351L195.291 57.4332Z" fill="white"/>
</mask>
<g mask="url(#mask0_227_480)">
<path opacity="0.1" d="M190.337 72.9781H191.787V60.25L190.337 59.5481V72.9781Z" fill="#3B4250"/>
</g>
<path d="M138.023 72.4364L133.621 73.6246C133.074 73.772 132.695 74.2713 132.695 74.8405V85.8977C132.695 86.5369 133.144 87.0859 133.767 87.2094L134.64 87.3825C134.87 87.4286 135.106 87.4212 135.333 87.3604L139.24 86.3269C140.02 86.1206 140.563 85.4113 140.563 84.5989V74.6858C140.563 73.9636 140.246 73.2765 139.695 72.8122C139.231 72.4198 138.607 72.2798 138.021 72.4382L138.023 72.4364Z" fill="#263762"/>
<mask id="mask1_227_480" style="mask-type:luminance" maskUnits="userSpaceOnUse" x="132" y="72" width="9" height="16">
<path d="M138.023 72.4364L133.621 73.6246C133.074 73.772 132.695 74.2713 132.695 74.8405V85.8977C132.695 86.5369 133.144 87.0859 133.767 87.2094L134.64 87.3825C134.87 87.4286 135.106 87.4212 135.333 87.3604L139.24 86.3269C140.02 86.1206 140.563 85.4113 140.563 84.5989V74.6858C140.563 73.9636 140.246 73.2765 139.695 72.8122C139.231 72.4198 138.607 72.2798 138.021 72.4382L138.023 72.4364Z" fill="white"/>
</mask>
<g mask="url(#mask1_227_480)">
<path d="M133.071 87.9811H134.52V75.253L133.071 74.5511V87.9811Z" fill="#001446"/>
</g>
<path d="M52.4134 92.0304C54.5799 100.175 51.5384 108.073 45.6192 109.67C39.7001 111.267 33.1472 105.96 30.9807 97.8151C28.8143 89.6705 31.8558 81.7728 37.7749 80.1756C43.6941 78.5784 50.2469 83.8859 52.4134 92.0304Z" fill="#001446"/>
<path d="M45.6193 109.67L36.8852 112.028L29.0391 82.5336L37.775 80.1755L45.6193 109.67Z" fill="#001446"/>
<path d="M160.45 121.213C162.617 129.358 159.575 137.256 153.656 138.853C147.737 140.45 141.184 135.143 139.017 126.998C136.851 118.854 139.892 110.956 145.812 109.359C151.731 107.761 158.284 113.069 160.45 121.213Z" fill="#001446"/>
<path d="M153.656 138.853L144.922 141.211L137.076 111.717L145.812 109.359L153.656 138.853Z" fill="#001446"/>
<path d="M20.3731 96.216L31.3289 94.9227L117.585 116.772L128.513 130.675L152.226 126.794L149.89 106.516L14.7542 69.8811L14.1408 84.8604L20.3731 96.216Z" fill="#001446"/>
<path d="M7.01877 69.8812C7.01877 69.8812 10.473 14.6488 13.299 13.7148C19.8647 11.4065 61.3318 -0.853639 64.6994 0.0472181C68.0671 0.948076 147.407 22.3844 164.75 27.574C172.977 30.0353 179.223 39.6205 179.223 39.6205L199.368 72.0587C199.368 72.0587 207.794 79.6801 214.494 85.8516C217.585 88.6997 217.689 90.039 218.142 93.4785C218.245 94.2578 220.107 97.6659 220.24 98.4526C221.819 107.754 220.796 116.54 218.472 122.713C216.399 128.218 180.144 136.989 169.374 137.598C164.768 137.86 159.776 137.103 155.913 136.029C156.172 131.904 156.001 127.965 155.12 123.518C153.094 113.27 144.577 106.406 137.544 107.568C130.843 108.675 126.291 116.087 128.513 130.675L48.1874 106.595C48.1874 106.595 47.8705 98.0344 46.6362 93.0179C44.1437 82.8985 35.7375 76.6809 28.901 78.5268C22.4568 80.2659 19.2734 87.5354 20.375 96.2142C18.1496 94.1546 12.1844 92.3308 8.62704 88.1323C7.33931 86.6143 5.41232 82.075 5.41785 74.2473C5.41969 71.8119 7.02246 69.8793 7.02246 69.8793L7.01877 69.8812Z" fill="#EBEDF0"/>
<mask id="mask2_227_480" style="mask-type:luminance" maskUnits="userSpaceOnUse" x="5" y="0" width="216" height="138">
<path d="M7.01877 69.8812C7.01877 69.8812 10.473 14.6488 13.299 13.7148C19.8647 11.4065 61.3318 -0.853639 64.6994 0.0472181C68.0671 0.948076 147.407 22.3844 164.75 27.574C172.977 30.0353 179.223 39.6205 179.223 39.6205L199.368 72.0587C199.368 72.0587 207.794 79.6801 214.494 85.8516C217.585 88.6997 217.689 90.039 218.142 93.4785C218.245 94.2578 220.107 97.6659 220.24 98.4526C221.819 107.754 220.796 116.54 218.472 122.713C216.399 128.218 180.144 136.989 169.374 137.598C164.768 137.86 159.776 137.103 155.913 136.029C156.172 131.904 156.001 127.965 155.12 123.518C153.094 113.27 144.577 106.406 137.544 107.568C130.843 108.675 126.291 116.087 128.513 130.675L48.1874 106.595C48.1874 106.595 47.8705 98.0344 46.6362 93.0179C44.1437 82.8985 35.7375 76.6809 28.901 78.5268C22.4568 80.2659 19.2734 87.5354 20.375 96.2142C18.1496 94.1546 12.1844 92.3308 8.62704 88.1323C7.33931 86.6143 5.41232 82.075 5.41785 74.2473C5.41969 71.8119 7.02246 69.8793 7.02246 69.8793L7.01877 69.8812Z" fill="white"/>
</mask>
<g mask="url(#mask2_227_480)">
<path d="M133.491 51.853C152.226 48.9349 172.102 43.2147 179.221 39.6205C179.221 39.6205 193.631 62.4625 199.366 72.0587C192.763 77.5376 165.625 84.2065 150.366 85.2842L133.489 51.853H133.491Z" fill="#001446"/>
<path d="M197.831 71.0123C192.118 74.2012 171.485 80.9272 150.364 83.4511C150.364 83.4511 146.972 78.4862 149.203 76.8577C156.72 71.3715 168.296 73.9948 176.946 72.0034C196.772 67.4383 197.831 71.0123 197.831 71.0123Z" fill="#263762"/>
<path d="M170.741 51.6485L160.389 54.4432L158.013 50.4069L168.364 47.614L170.741 51.6485Z" fill="#263762"/>
<path d="M8.23456 12.4677C8.23456 12.4677 112.332 41.0095 116.898 42.7965C121.461 44.5853 126.427 47.2658 130.724 53.4115C135.02 59.5554 144.459 78.7037 147.816 84.4884C150.723 89.4993 158.626 95.75 162.666 98.307C167.648 101.461 167.062 118.529 178.01 118.529C187.349 118.529 217.189 109.873 225.297 105.523C228.213 103.959 215.552 132.908 215.552 132.908L170.741 143.289L0.996384 94.9228L8.23456 12.4677Z" fill="#C4C9D2"/>
<path opacity="0.2" d="M160.12 24.9175C169.372 31.7872 173.136 35.4791 186.429 78.3057C200.349 82.1873 205.088 83.1564 220.995 89.3316L177.837 27.7877L160.118 24.9175H160.12Z" fill="white"/>
</g>
<path d="M21.6148 59.2054L57.8057 69.5478V66.3828L21.6148 56.0386V59.2054Z" fill="#263762"/>
<path d="M8.96596 43.3694L7.60823 61.1655L10.8414 62.1419L11.2117 51.0571C11.2669 49.4119 8.96596 43.3694 8.96596 43.3694Z" fill="#667290"/>
<path d="M88.7996 74.4536L96.1317 76.5501V79.7151L88.7996 77.6204V74.4536Z" fill="#667290"/>
<path d="M101.898 78.337L109.23 80.4335V83.5985L101.898 81.5039V78.337Z" fill="#667290"/>
<path d="M97.1451 72.1158L20.1946 50.1286C17.6136 49.3531 16.6519 46.995 16.5414 45.5415L15.2758 23.6022L97.147 45.9173V72.1158H97.1451Z" fill="#001446"/>
<path opacity="0.2" d="M95.522 70.2551L16.5892 25.2344L95.522 47.4832V70.2551Z" fill="white"/>
<path d="M151.946 123.64C154.113 131.725 151.071 139.566 145.152 141.152C139.233 142.738 132.68 137.469 130.513 129.384C128.347 121.298 131.389 113.458 137.308 111.871C143.227 110.285 149.78 115.554 151.946 123.64Z" fill="#263762"/>
<path d="M149.568 124.277C151.254 130.568 148.886 136.67 144.283 137.904C139.677 139.139 134.578 135.038 132.892 128.746C131.206 122.455 133.574 116.354 138.177 115.119C142.783 113.885 147.882 117.986 149.568 124.277Z" fill="#E5E7EC"/>
<path d="M148.308 124.614C149.739 129.955 147.729 135.134 143.82 136.18C139.911 137.228 135.582 133.746 134.15 128.408C132.719 123.067 134.729 117.888 138.638 116.842C142.547 115.794 146.876 119.276 148.308 124.614Z" fill="#001446"/>
<path d="M136.423 126.018L134.399 129.213C133.844 130.088 134.624 131.619 135.585 131.543L139.095 131.267C139.513 131.234 139.962 131.534 140.231 132.026L142.49 136.158C143.109 137.291 144.371 137.123 144.41 135.904L144.555 131.453C144.572 130.922 144.85 130.526 145.257 130.451L148.676 129.809C149.614 129.634 149.614 127.999 148.676 127.321L145.257 124.846C144.85 124.552 144.572 124.006 144.555 123.467L144.41 118.938C144.369 117.697 143.109 116.853 142.49 117.654L140.231 120.576C139.962 120.924 139.513 120.985 139.095 120.727L135.585 118.57C134.624 117.979 133.844 119.091 134.399 120.265L136.423 124.544C136.665 125.055 136.665 125.637 136.423 126.016V126.018Z" fill="#E5E7EC"/>
<path d="M142.98 126.042C143.334 127.363 142.838 128.643 141.871 128.901C140.904 129.161 139.833 128.301 139.48 126.98C139.126 125.659 139.623 124.378 140.589 124.121C141.556 123.863 142.626 124.721 142.98 126.042Z" fill="#263762"/>
<path d="M22.4772 100.198C20.3108 92.1128 23.3523 84.2728 29.2705 82.687C35.1888 81.1012 41.7428 86.3701 43.9092 94.4554C46.0757 102.541 43.0342 110.381 37.1159 111.966C31.1977 113.552 24.6437 108.283 22.4772 100.198Z" fill="#263762"/>
<path d="M41.5313 95.0923C43.217 101.384 40.8497 107.485 36.2459 108.719C31.6403 109.954 26.541 105.853 24.8553 99.5616C23.1696 93.2703 25.5369 87.1688 30.1407 85.9345C34.7463 84.7002 39.8456 88.801 41.5313 95.0923Z" fill="#E5E7EC"/>
<path d="M40.2713 95.4313C41.7027 100.772 39.6928 105.95 35.7836 106.997C31.8743 108.045 27.5451 104.563 26.1136 99.2244C24.6822 93.8838 26.6921 88.7052 30.6014 87.6588C34.5106 86.6106 38.8399 90.0924 40.2713 95.4313Z" fill="#001446"/>
<path d="M28.3868 96.8351L26.3622 100.03C25.8077 100.905 26.587 102.437 27.5486 102.36L31.0581 102.084C31.4763 102.05 31.9258 102.351 32.1948 102.843L34.4533 106.975C35.0723 108.108 36.3343 107.94 36.373 106.721L36.5185 102.27C36.5351 101.739 36.8133 101.343 37.2204 101.268L40.6396 100.626C41.5773 100.451 41.5773 98.8155 40.6396 98.1376L37.2204 95.6634C36.8133 95.3687 36.5351 94.8234 36.5185 94.2836L36.373 89.7553C36.3324 88.5137 35.0723 87.6718 34.4533 88.4713L32.1948 91.3931C31.9258 91.7413 31.4763 91.8021 31.0581 91.5442L27.5486 89.3869C26.587 88.7955 25.8077 89.9082 26.3622 91.0818L28.3868 95.3613C28.6282 95.8716 28.6282 96.4537 28.3868 96.8332V96.8351Z" fill="#E5E7EC"/>
<path d="M34.9434 96.8589C35.2971 98.1798 34.7997 99.4602 33.8344 99.7181C32.8672 99.9778 31.7969 99.1175 31.4432 97.7966C31.0894 96.4757 31.585 95.1954 32.5522 94.9375C33.5194 94.6796 34.5897 95.538 34.9434 96.8589Z" fill="#263762"/>
<path d="M133.491 51.8529C133.491 51.8529 127.8 42.1645 119.923 39.7162C112.043 37.2679 18.9086 12.101 18.9086 12.101" stroke="#001446" stroke-width="0.301511" stroke-miterlimit="10"/>
<path d="M7.60833 61.1654C7.60833 61.1654 149.159 103.933 154.012 105.42C156.64 106.225 162.666 100.755 162.666 100.755" stroke="#001446" stroke-width="0.301511" stroke-miterlimit="10"/>
<path d="M146.097 22.272C146.097 22.272 103.705 33.7142 101.047 34.4308C98.3886 35.1474 97.6167 36.4167 97.4159 39.2814C97.215 42.1479 97.1469 45.9153 97.1469 45.9153" stroke="#001446" stroke-width="0.301511" stroke-miterlimit="10"/>
<path d="M150.366 85.3835C150.366 85.3835 150.211 87.959 152.226 89.9892C153.142 90.9121 159.794 96.9363 163.158 98.563C168.23 101.013 173.381 101.081 179.427 100.341C186.031 99.532 219.22 91.918 216.224 87.8429" stroke="#001446" stroke-width="0.301511" stroke-miterlimit="10"/>
<path d="M100.432 46.8125V118.308L124.276 125.285C126.26 110.466 129.554 107.658 132.932 105.61C134.327 104.764 135.25 103.312 135.416 101.68L138.319 73.2598" stroke="#001446" stroke-width="0.301511" stroke-miterlimit="10"/>
<path d="M125.011 53.5127L15.2756 23.6021L16.5413 45.5413C16.6647 47.6986 18.1311 49.539 20.1944 50.1285L144.459 85.6341L130.946 58.4039C129.751 55.9942 127.592 54.2146 125.011 53.5109V53.5127Z" stroke="#001446" stroke-width="0.301511" stroke-miterlimit="10"/>
<path d="M58.8558 35.4808V105.536L97.145 117.31V45.9171" stroke="#001446" stroke-width="0.301511" stroke-miterlimit="10"/>
<path d="M144.459 85.6341L100.432 73.0534V46.8125L125.083 53.5201C127.62 54.2183 129.742 55.9721 130.917 58.3413L144.461 85.6341H144.459Z" fill="#001446"/>
<path opacity="0.2" d="M140.981 83.1564L102.874 49.5557L124.209 55.3624C126.405 55.9667 128.242 57.4847 129.259 59.5351L140.981 83.1564Z" fill="white"/>
<path d="M138.023 72.4365L133.621 73.6248C133.074 73.7721 132.695 74.2714 132.695 74.8406V85.8978C132.695 86.5371 133.144 87.086 133.767 87.2095L134.64 87.3826C134.87 87.4287 135.106 87.4213 135.333 87.3605L139.24 86.327C140.02 86.1207 140.563 85.4114 140.563 84.599V74.6859C140.563 73.9637 140.246 73.2766 139.695 72.8123C139.231 72.4199 138.607 72.2799 138.021 72.4384L138.023 72.4365Z" fill="#263762"/>
<mask id="mask3_227_480" style="mask-type:luminance" maskUnits="userSpaceOnUse" x="132" y="72" width="9" height="16">
<path d="M138.023 72.4365L133.621 73.6248C133.074 73.7721 132.695 74.2714 132.695 74.8406V85.8978C132.695 86.5371 133.144 87.086 133.767 87.2095L134.64 87.3826C134.87 87.4287 135.106 87.4213 135.333 87.3605L139.24 86.327C140.02 86.1207 140.563 85.4114 140.563 84.599V74.6859C140.563 73.9637 140.246 73.2766 139.695 72.8123C139.231 72.4199 138.607 72.2799 138.021 72.4384L138.023 72.4365Z" fill="white"/>
</mask>
<g mask="url(#mask3_227_480)">
<path d="M133.071 87.9812H134.52V75.2532L133.071 74.5513V87.9812Z" fill="#001446"/>
</g>
<path d="M180.893 99.8656C191.696 97.736 201.353 95.3595 209.107 92.5721L208.785 98.2518C202.083 100.577 193.229 102.673 183.45 104.674L180.892 99.8656H180.893Z" fill="#CBCFD7"/>
<path d="M212.954 84.4368C212.595 86.9054 215.185 89.2248 209.109 92.5721L208.787 98.2518C213.739 96.6177 217.042 94.7404 218.138 93.4803C218.138 91.2807 217.291 87.143 212.952 84.4386L212.954 84.4368Z" fill="#667290"/>
<path d="M183.452 104.674L180.893 99.8655C164.884 100.753 164.472 93.635 161.677 96.1018C159.781 97.7745 161.624 99.9502 163.304 101.864C166.426 105.42 174.983 106.444 183.452 104.674Z" fill="#667290"/>
<path d="M207.508 121.302L193.64 125.018V119.182L207.508 115.464V121.302Z" fill="#001446"/>
<path d="M208.382 121.495L194.511 125.213V119.375L208.382 115.659V121.495Z" fill="white"/>
<path d="M193.972 93.7309C194.756 94.4273 195.852 94.4733 196.422 93.8322C196.991 93.193 196.816 92.1097 196.031 91.4134C195.246 90.717 194.15 90.6709 193.581 91.312C193.012 91.9513 193.187 93.0345 193.972 93.7309Z" fill="#667290"/>
<path d="M123.931 20.7706L126.463 20.0927L68.8371 4.651L66.3077 5.32895L123.931 20.7706Z" fill="#CBCFD7"/>
<path d="M116.708 22.705L119.239 22.027L61.6136 6.58716L59.0842 7.2651L116.708 22.705Z" fill="#CBCFD7"/>
<path d="M109.484 24.6411L112.016 23.9632L54.3902 8.52148L51.8608 9.20127L109.484 24.6411Z" fill="#CBCFD7"/>
<path d="M102.261 26.5773L104.792 25.8975L47.1667 10.4576L44.6373 11.1356L102.261 26.5773Z" fill="#CBCFD7"/>
<path d="M95.0375 28.5117L97.5687 27.8338L39.9433 12.3939L37.4121 13.0719L95.0375 28.5117Z" fill="#CBCFD7"/>
</svg>
