<svg width="249" height="159" viewBox="0 0 249 159" fill="none" xmlns="http://www.w3.org/2000/svg">
<path d="M44.7463 90.375C54.0128 88.2033 69.0407 88.6535 78.1413 91.3761L244.168 136.622C268.57 141.902 194.02 164.433 166.309 157.783C161.111 156.537 154.746 154.948 142.297 151.36C117.549 144.229 50.8944 124.75 35.6873 119.254C14.8864 111.734 4.89601 108.464 2.019 106.395C-0.858032 104.325 -1.87045 101.299 7.39786 99.1273L44.7463 90.375Z" fill="#576485"/>
<path d="M24.4267 102.702L37.4675 101.262L139.581 120.737L157.805 147.059L194.542 130.09L178.153 110.303L18.2159 77.4833L17.3582 99.2585L24.4267 102.702Z" fill="#001446"/>
<path d="M48.4497 94.6056C50.5294 102.424 47.6097 110.006 41.9276 111.539C36.2455 113.072 29.955 107.977 27.8753 100.159C25.7956 92.3402 28.7153 84.7588 34.3974 83.2255C40.0795 81.6922 46.37 86.7872 48.4497 94.6056Z" fill="#001446"/>
<path d="M41.9293 111.539L33.5432 113.802L26.0113 85.4892L34.3974 83.2256L41.9293 111.539Z" fill="#001446"/>
<path d="M39.9894 96.9362C42.0691 104.698 39.1493 112.225 33.4672 113.747C27.7851 115.27 21.4947 110.212 19.415 102.45C17.3352 94.6885 20.255 87.1619 25.9371 85.6392C31.6192 84.1166 37.9096 89.1744 39.9894 96.9362Z" fill="#263762"/>
<path d="M37.7061 97.5481C39.3243 103.587 37.0518 109.445 32.6324 110.63C28.2112 111.814 23.3161 107.878 21.6979 101.838C20.0798 95.7991 22.3523 89.9419 26.7717 88.757C31.1929 87.5722 36.088 91.5088 37.7061 97.5481Z" fill="#E5E7EC"/>
<path d="M36.4967 97.8717C37.8708 102.999 35.9414 107.97 32.1887 108.974C28.436 109.98 24.2801 106.638 22.906 101.513C21.5319 96.3862 23.4613 91.415 27.214 90.4105C30.9667 89.4043 35.1226 92.7467 36.4967 97.8717Z" fill="#001446"/>
<path d="M25.0882 99.2193L23.1446 102.286C22.6123 103.126 23.3604 104.595 24.2835 104.523L27.6524 104.258C28.0539 104.226 28.4854 104.514 28.7436 104.986L30.9117 108.953C31.506 110.041 32.7173 109.88 32.7545 108.709L32.8942 104.436C32.9101 103.927 33.1772 103.547 33.568 103.474L36.8503 102.859C37.7504 102.691 37.7504 101.12 36.8503 100.47L33.568 98.0946C33.1772 97.8116 32.9101 97.2882 32.8942 96.77L32.7545 92.4231C32.7156 91.2311 31.506 90.4212 30.9117 91.1905L28.7436 93.9953C28.4854 94.3295 28.0539 94.3879 27.6524 94.1403L24.2835 92.0694C23.3604 91.5017 22.6123 92.5699 23.1446 93.6964L25.0882 97.8046C25.3198 98.2944 25.3198 98.8533 25.0882 99.2176V99.2193Z" fill="#E5E7EC"/>
<path d="M31.3821 99.2423C31.7217 100.51 31.246 101.739 30.3175 101.987C29.3891 102.236 28.3616 101.41 28.022 100.142C27.6825 98.8745 28.16 97.6454 29.0866 97.3978C30.0151 97.1502 31.0426 97.9743 31.3821 99.2423Z" fill="#263762"/>
<path d="M4.54214 72.0876C4.54214 72.0876 7.86685 15.1074 10.5815 14.1418C16.8843 11.7614 56.6926 -0.881398 59.9236 0.0488189C63.1564 0.979036 139.316 23.1079 155.962 28.4647C163.86 31.0059 169.854 40.8935 169.854 40.8935L189.187 74.3636C189.187 74.3636 197.276 82.228 203.704 88.5963C206.672 91.5355 206.771 92.9167 207.204 96.466C207.301 97.2689 209.091 100.785 209.218 101.598C210.732 111.194 209.749 120.259 207.517 126.627C206.323 130.032 199.644 131.88 196.715 132.99C193.463 134.223 184.101 139.18 181.266 135.606C179.598 133.503 190.946 129.996 190.547 127.296C190.246 125.264 190.479 123.124 189.574 121.18C187.57 116.876 168.46 114.423 163.972 113.832C156.824 112.892 151.739 116.466 150.441 123.372C150.142 124.958 148.984 129.215 146.727 127.115C145.97 126.412 145.764 123.771 145.364 122.763C144.734 121.175 143.94 119.647 142.976 118.232C140.168 114.103 135.215 110.035 129.833 110.99C123.401 112.131 131.883 122.512 134.012 137.564L44.0534 109.974C44.0534 109.974 43.751 101.142 42.5661 95.9655C40.1751 85.5245 32.1056 79.1102 25.5428 81.0131C19.3549 82.8063 16.299 90.3046 17.3565 99.2602C15.222 97.1345 9.49562 95.2528 6.07893 90.9201C4.84454 89.3532 2.99295 84.6703 3.00002 76.5954C3.00179 74.0824 4.54037 72.0894 4.54037 72.0894L4.54214 72.0876Z" fill="#EBEDF0"/>
<mask id="mask0_227_747" style="mask-type:luminance" maskUnits="userSpaceOnUse" x="3" y="0" width="207" height="138">
<path d="M4.54214 72.0876C4.54214 72.0876 7.86685 15.1074 10.5815 14.1418C16.8843 11.7614 56.6926 -0.881398 59.9236 0.0488189C63.1564 0.979036 139.316 23.1079 155.962 28.4647C163.86 31.0059 169.854 40.8935 169.854 40.8935L189.187 74.3636C189.187 74.3636 197.276 82.228 203.704 88.5963C206.672 91.5355 206.771 92.9167 207.204 96.466C207.301 97.2689 209.091 100.785 209.218 101.598C210.732 111.194 209.749 120.259 207.517 126.627C206.323 130.032 199.644 131.88 196.715 132.99C193.463 134.223 184.101 139.18 181.266 135.606C179.598 133.503 190.946 129.996 190.547 127.296C190.246 125.264 190.479 123.124 189.574 121.18C187.57 116.876 168.46 114.423 163.972 113.832C156.824 112.892 151.739 116.466 150.441 123.372C150.142 124.958 148.984 129.215 146.727 127.115C145.97 126.412 145.764 123.771 145.364 122.763C144.734 121.175 143.94 119.647 142.976 118.232C140.168 114.103 135.215 110.035 129.833 110.99C123.401 112.131 131.883 122.512 134.012 137.564L44.0534 109.974C44.0534 109.974 43.751 101.142 42.5661 95.9655C40.1751 85.5245 32.1056 79.1102 25.5428 81.0131C19.3549 82.8063 16.299 90.3046 17.3565 99.2602C15.222 97.1345 9.49562 95.2528 6.07893 90.9201C4.84454 89.3532 2.99295 84.6703 3.00002 76.5954C3.00179 74.0824 4.54037 72.0894 4.54037 72.0894L4.54214 72.0876Z" fill="white"/>
</mask>
<g mask="url(#mask0_227_747)">
<path d="M125.953 53.5062C143.94 50.498 163.02 44.6002 169.854 40.8934C169.854 40.8934 183.683 64.4601 189.187 74.3636C182.847 80.0138 156.795 86.8914 142.147 88.0003L125.953 53.5062Z" fill="#001446"/>
<path d="M187.714 73.2832C182.23 76.5725 162.423 83.5085 142.145 86.1099C142.145 86.1099 138.89 80.9866 141.033 79.3066C148.25 73.6475 159.361 76.355 167.664 74.3018C186.699 69.5941 187.714 73.2814 187.714 73.2814V73.2832Z" fill="#263762"/>
<path d="M161.712 53.3029L151.775 56.1838L149.493 52.019L159.432 49.1382L161.712 53.3029Z" fill="#263762"/>
<path d="M5.71996 17.5709C5.71996 17.5709 105.644 48.7438 110.026 50.5883C114.407 52.4346 119.175 48.7739 123.297 55.1138C127.419 61.4538 136.479 81.2094 139.7 87.178C142.49 92.349 150.075 98.7969 153.953 101.437C158.734 104.691 158.169 122.3 168.679 122.302C177.644 122.302 206.291 113.376 214.076 108.891C216.876 107.279 204.716 137.143 204.716 137.143L161.698 147.846L-1.24252 97.9215L5.71996 17.5709Z" fill="#C4C9D2"/>
<path opacity="0.2" d="M151.522 25.7236C160.401 32.8134 164.014 36.6227 176.769 80.8062C190.129 84.8118 194.68 85.8145 209.949 92.1863L168.529 28.6858L151.52 25.7218L151.522 25.7236Z" fill="white"/>
</g>
<path d="M221.909 77.3188L217.684 78.4595C217.159 78.6009 216.794 79.0802 216.794 79.6267V90.241C216.794 90.8547 217.226 91.3817 217.824 91.5002L218.662 91.6664C218.883 91.7106 219.109 91.7036 219.327 91.6452L223.078 90.6531C223.826 90.455 224.347 89.7742 224.347 88.9943V79.4781C224.347 78.7849 224.043 78.1252 223.514 77.6796C223.069 77.3029 222.469 77.1685 221.907 77.3206L221.909 77.3188Z" fill="#263762"/>
<mask id="mask1_227_747" style="mask-type:luminance" maskUnits="userSpaceOnUse" x="216" y="77" width="9" height="15">
<path d="M221.909 77.3188L217.684 78.4595C217.159 78.6009 216.794 79.0802 216.794 79.6267V90.241C216.794 90.8547 217.226 91.3817 217.824 91.5002L218.662 91.6664C218.883 91.7106 219.109 91.7036 219.327 91.6452L223.078 90.6531C223.826 90.455 224.347 89.7742 224.347 88.9943V79.4781C224.347 78.7849 224.043 78.1252 223.514 77.6796C223.069 77.3029 222.469 77.1685 221.907 77.3206L221.909 77.3188Z" fill="white"/>
</mask>
<g mask="url(#mask1_227_747)">
<path opacity="0.1" d="M217.153 92.2428H218.545V80.0244L217.153 79.3489V92.2428Z" fill="#3B4250"/>
</g>
<path d="M166.934 91.7211L162.709 92.8618C162.184 93.0033 161.82 93.4825 161.82 94.029V104.643C161.82 105.257 162.251 105.784 162.849 105.903L163.687 106.069C163.908 106.113 164.134 106.106 164.352 106.048L168.103 105.055C168.851 104.857 169.373 104.176 169.373 103.397V93.8804C169.373 93.1872 169.069 92.5276 168.54 92.0819C168.094 91.7052 167.495 91.5708 166.932 91.7229L166.934 91.7211Z" fill="#263762"/>
<mask id="mask2_227_747" style="mask-type:luminance" maskUnits="userSpaceOnUse" x="161" y="91" width="9" height="16">
<path d="M166.934 91.7211L162.709 92.8618C162.184 93.0033 161.82 93.4825 161.82 94.029V104.643C161.82 105.257 162.251 105.784 162.849 105.903L163.687 106.069C163.908 106.113 164.134 106.106 164.352 106.048L168.103 105.055C168.851 104.857 169.373 104.176 169.373 103.397V93.8804C169.373 93.1872 169.069 92.5276 168.54 92.0819C168.094 91.7052 167.495 91.5708 166.932 91.7229L166.934 91.7211Z" fill="white"/>
</mask>
<g mask="url(#mask2_227_747)">
<path d="M162.18 106.645H163.572V94.4269L162.18 93.7513V106.645Z" fill="#001446"/>
</g>
<path d="M188.64 138.193C190.72 146.012 187.8 153.593 182.118 155.126C176.436 156.66 170.145 151.565 168.066 143.746C165.986 135.928 168.906 128.346 174.588 126.813C180.27 125.28 186.56 130.375 188.64 138.193Z" fill="#001446"/>
<path d="M182.118 155.126L173.734 157.39L166.202 129.077L174.588 126.813L182.118 155.126Z" fill="#001446"/>
<path d="M47.1251 79.5506C45.9296 77.8847 44.7324 76.2205 43.7102 74.4326C41.9506 71.359 42.039 69.4862 42.2901 65.928C42.833 58.2458 43.4379 50.5688 44.193 42.9043C44.6033 38.7342 45.0242 34.55 45.6927 30.41C45.8412 29.4922 46.0481 25.3946 47.2135 24.9808C53.5164 22.6004 93.3247 9.95759 96.5557 10.8878C99.7885 11.818 175.948 33.9469 192.594 39.3036C200.492 41.8449 206.486 51.7325 206.486 51.7325L225.819 85.2026C225.819 85.2026 233.908 93.067 240.336 99.4353C243.304 102.374 243.403 103.756 243.836 107.305C243.933 108.108 245.723 111.624 245.85 112.437C247.364 122.033 246.381 131.098 244.149 137.466C242.158 143.147 207.354 152.189 197.016 152.817C192.594 153.085 187.802 152.306 184.093 151.195C184.345 146.938 184.18 142.876 183.336 138.287C181.393 127.715 173.217 122.399 166.467 123.596C160.035 124.737 155.663 130.615 157.793 145.665L80.6872 120.811C80.6872 120.811 80.3848 111.979 79.1999 106.803C77.9726 101.439 74.9432 95.9337 70.0074 93.1006C68.002 91.9493 65.878 92.1067 63.8566 91.2826C61.4338 90.2958 60.5956 88.1595 57.5786 88.4725C56.0771 88.6281 54.6995 89.5637 53.2299 88.7749C51.6524 87.9261 50.388 84.3679 49.5161 83.0097C48.7574 81.8284 47.9422 80.6877 47.1251 79.5488V79.5506Z" fill="#EBEDF0"/>
<mask id="mask3_227_747" style="mask-type:luminance" maskUnits="userSpaceOnUse" x="42" y="10" width="205" height="143">
<path d="M47.1251 79.5506C45.9296 77.8847 44.7324 76.2205 43.7102 74.4326C41.9506 71.359 42.039 69.4862 42.2901 65.928C42.833 58.2458 43.4379 50.5688 44.193 42.9043C44.6033 38.7342 45.0242 34.55 45.6927 30.41C45.8412 29.4922 46.0481 25.3946 47.2135 24.9808C53.5164 22.6004 93.3247 9.95759 96.5557 10.8878C99.7885 11.818 175.948 33.9469 192.594 39.3036C200.492 41.8449 206.486 51.7325 206.486 51.7325L225.819 85.2026C225.819 85.2026 233.908 93.067 240.336 99.4353C243.304 102.374 243.403 103.756 243.836 107.305C243.933 108.108 245.723 111.624 245.85 112.437C247.364 122.033 246.381 131.098 244.149 137.466C242.158 143.147 207.354 152.189 197.016 152.817C192.594 153.085 187.802 152.306 184.093 151.195C184.345 146.938 184.18 142.876 183.336 138.287C181.393 127.715 173.217 122.399 166.467 123.596C160.035 124.737 155.663 130.615 157.793 145.665L80.6872 120.811C80.6872 120.811 80.3848 111.979 79.1999 106.803C77.9726 101.439 74.9432 95.9337 70.0074 93.1006C68.002 91.9493 65.878 92.1067 63.8566 91.2826C61.4338 90.2958 60.5956 88.1595 57.5786 88.4725C56.0771 88.6281 54.6995 89.5637 53.2299 88.7749C51.6524 87.9261 50.388 84.3679 49.5161 83.0097C48.7574 81.8284 47.9422 80.6877 47.1251 79.5488V79.5506Z" fill="white"/>
</mask>
<g mask="url(#mask3_227_747)">
<path d="M163.982 69.771C181.959 66.1262 198.137 61.1833 209.543 56.2811C209.543 56.2811 220.313 75.3028 225.817 85.2045C219.477 90.8548 193.426 97.7324 178.777 98.8412L163.981 69.771H163.982Z" fill="#001446"/>
<path d="M224.346 84.1238C218.862 87.4132 199.055 94.3492 178.777 96.9506C178.777 96.9506 175.522 91.8273 177.665 90.1473C184.882 84.4882 195.993 87.1957 204.296 85.1425C223.33 80.4348 224.346 84.1221 224.346 84.1221V84.1238Z" fill="#263762"/>
<path d="M199.143 66.5417L189.206 69.4226L186.925 65.2578L196.864 62.377L199.143 66.5417Z" fill="#263762"/>
<path d="M42.352 28.9087C42.352 28.9087 142.278 58.3697 146.658 60.216C151.039 62.0623 155.807 64.8282 159.929 71.1681C164.051 77.5081 173.111 95.9586 176.332 101.927C179.122 107.098 186.707 109.64 190.585 112.278C195.366 115.532 194.802 133.141 205.312 133.143C214.276 133.143 242.923 124.217 250.708 119.732C253.508 118.119 241.348 147.984 241.348 147.984L198.33 158.686L35.3896 108.762L42.352 28.9087Z" fill="#C4C9D2"/>
<path opacity="0.2" d="M188.154 36.5644C197.033 43.6542 200.646 47.4635 213.401 91.647C226.761 95.6526 231.312 96.6553 246.581 103.027L205.161 39.5266L188.152 36.5626L188.154 36.5644Z" fill="white"/>
</g>
<path d="M122.317 100.422L122.416 93.2792L124.793 93.8911L124.694 101.211L122.317 100.422Z" fill="#667290"/>
<path d="M133.851 103.268L133.952 96.1248L136.329 96.7384L136.228 104.058L133.851 103.268Z" fill="#667290"/>
<path d="M127.693 89.4381L53.8242 65.4929C51.3465 64.6476 50.4234 62.0798 50.3173 60.497L49.1023 36.6031L127.695 60.9055V89.4363L127.693 89.4381Z" fill="#001446"/>
<path d="M180.477 140.52C182.557 148.282 179.637 155.809 173.955 157.331C168.273 158.854 161.982 153.796 159.902 146.034C157.823 138.273 160.743 130.746 166.425 129.223C172.107 127.701 178.397 132.759 180.477 140.52Z" fill="#263762"/>
<path d="M178.194 141.132C179.812 147.172 177.539 153.029 173.12 154.214C168.699 155.398 163.804 151.462 162.185 145.423C160.567 139.383 162.84 133.526 167.259 132.341C171.68 131.156 176.576 135.093 178.194 141.132Z" fill="#E5E7EC"/>
<path d="M176.984 141.458C178.358 146.584 176.429 151.556 172.676 152.56C168.923 153.566 164.767 150.224 163.393 145.099C162.019 139.972 163.949 135.001 167.701 133.996C171.454 132.99 175.61 136.333 176.984 141.458Z" fill="#001446"/>
<path d="M165.576 142.805L163.632 145.872C163.1 146.712 163.848 148.181 164.771 148.109L168.14 147.844C168.541 147.812 168.973 148.1 169.231 148.572L171.399 152.539C171.993 153.626 173.205 153.466 173.242 152.295L173.382 148.022C173.398 147.513 173.665 147.133 174.055 147.06L177.338 146.445C178.238 146.277 178.238 144.706 177.338 144.055L174.055 141.68C173.665 141.397 173.398 140.874 173.382 140.356L173.242 136.009C173.203 134.817 171.993 134.007 171.399 134.776L169.231 137.581C168.973 137.915 168.541 137.974 168.14 137.726L164.771 135.655C163.848 135.088 163.1 136.156 163.632 137.282L165.576 141.39C165.807 141.88 165.807 142.439 165.576 142.803V142.805Z" fill="#E5E7EC"/>
<path d="M171.87 142.826C172.209 144.094 171.733 145.324 170.805 145.571C169.877 145.82 168.849 144.995 168.51 143.727C168.17 142.459 168.647 141.229 169.574 140.982C170.503 140.734 171.53 141.558 171.87 142.826Z" fill="#263762"/>
<path d="M165.919 71.962C165.919 71.962 160.456 62.6616 152.894 60.3113C145.33 57.961 9.98897 16.2427 9.98897 16.2427" stroke="#001446" stroke-width="0.251123" stroke-miterlimit="10"/>
<path d="M8.59017 66.1754C8.59017 66.1754 177.623 121.957 182.283 123.384C184.806 124.157 190.591 118.906 190.591 118.906" stroke="#001446" stroke-width="0.251123" stroke-miterlimit="10"/>
<path d="M190.684 38.681C190.684 38.681 133.989 54.5495 131.439 55.2392C128.887 55.9272 128.146 57.1457 127.953 59.8956C127.76 62.6474 127.695 66.2639 127.695 66.2639" stroke="#001446" stroke-width="0.251123" stroke-miterlimit="10"/>
<path d="M178.779 98.8411C178.779 98.8411 178.634 106.622 180.569 108.571C181.448 109.457 187.834 115.24 191.063 116.802C195.932 119.154 200.876 119.219 206.68 118.508C213.02 117.732 244.879 110.423 242.004 106.511" stroke="#001446" stroke-width="0.251123" stroke-miterlimit="10"/>
<path d="M130.848 67.1235V135.756L153.738 142.453C155.642 128.228 158.804 125.533 162.048 123.566C163.386 122.754 164.272 121.361 164.432 119.794L167.219 92.5117" stroke="#001446" stroke-width="0.251123" stroke-miterlimit="10"/>
<path d="M173.113 104.162L130.848 90.4621V61.8835L154.512 69.1891C156.947 69.9496 158.985 71.8595 160.113 74.4397L173.115 104.162H173.113Z" fill="#001446"/>
<path opacity="0.2" d="M169.774 101.464L133.193 64.8704L153.674 71.1944C155.782 71.8523 157.545 73.5058 158.521 75.7394L169.774 101.465V101.464Z" fill="white"/>
<path d="M166.934 89.7881L162.709 91.0826C162.184 91.2435 161.82 91.7865 161.82 92.4072V104.451C161.82 105.146 162.251 105.745 162.849 105.879L163.687 106.067C163.908 106.116 164.134 106.108 164.352 106.042L168.103 104.916C168.851 104.691 169.373 103.918 169.373 103.032V92.2357C169.373 91.4487 169.069 90.7006 168.54 90.1948C168.094 89.7669 167.495 89.6148 166.932 89.7881H166.934Z" fill="#263762"/>
<mask id="mask4_227_747" style="mask-type:luminance" maskUnits="userSpaceOnUse" x="161" y="89" width="9" height="18">
<path d="M166.934 89.7881L162.709 91.0826C162.184 91.2435 161.82 91.7865 161.82 92.4072V104.451C161.82 105.146 162.251 105.745 162.849 105.879L163.687 106.067C163.908 106.116 164.134 106.108 164.352 106.042L168.103 104.916C168.851 104.691 169.373 103.918 169.373 103.032V92.2357C169.373 91.4487 169.069 90.7006 168.54 90.1948C168.094 89.7669 167.495 89.6148 166.932 89.7881H166.934Z" fill="white"/>
</mask>
<g mask="url(#mask4_227_747)">
<path d="M162.18 106.718H163.572V92.8563L162.18 92.0906V106.718Z" fill="#001446"/>
</g>
<path d="M208.088 118.052C218.458 116.008 227.729 113.726 235.172 111.051L234.863 116.503C228.429 118.735 219.93 120.747 210.543 122.668L208.086 118.052H208.088Z" fill="#CBCFD7"/>
<path d="M238.865 103.243C238.52 105.612 241.006 107.839 235.174 111.052L234.865 116.504C239.618 114.936 242.789 113.134 243.841 111.924C243.841 109.813 243.028 105.841 238.863 103.244L238.865 103.243Z" fill="#667290"/>
<path d="M210.545 122.668L208.088 118.052C192.72 118.904 192.324 112.071 189.641 114.439C187.821 116.045 189.59 118.133 191.203 119.971C194.2 123.384 202.415 124.367 210.545 122.668Z" fill="#667290"/>
<path d="M233.637 138.63L220.324 142.199V136.594L233.637 133.027V138.63Z" fill="#001446"/>
<path d="M234.476 138.817L221.161 142.384V136.78L234.476 133.213V138.817Z" fill="white"/>
<path d="M220.643 112.163C221.396 112.831 222.448 112.875 222.995 112.26C223.541 111.646 223.373 110.607 222.62 109.938C221.866 109.27 220.814 109.225 220.268 109.841C219.721 110.454 219.889 111.494 220.643 112.163Z" fill="#667290"/>
<path d="M167.797 41.401L170.243 40.8174L59.4886 7.31018L57.0411 7.89378L167.797 41.401Z" fill="#CBCFD7"/>
<path d="M160.813 43.0652L163.261 42.4816L52.5048 8.97437L50.059 9.55796L160.813 43.0652Z" fill="#CBCFD7"/>
<path d="M153.83 44.7294L156.277 44.1458L45.5211 10.6385L43.0754 11.2221L153.83 44.7294Z" fill="#CBCFD7"/>
<path d="M146.848 46.3935L149.293 45.8099L38.5391 12.3026L36.0916 12.8862L146.848 46.3935Z" fill="#CBCFD7"/>
<path d="M139.864 48.0577L142.31 47.4741L31.5555 13.9668L29.1079 14.5504L139.864 48.0577Z" fill="#CBCFD7"/>
<path d="M96.0729 79.158L19.169 54.7177C16.6914 53.8723 15.7683 51.3045 15.6622 49.7217L14.4472 25.8279L85.3435 47.9409L96.0729 79.1562V79.158Z" fill="#001446"/>
<path opacity="0.2" d="M126.135 87.4114L50.3632 38.3822L126.135 62.6121V87.4114Z" fill="white"/>
<path d="M79.7995 51.3947L79.7889 118.006L127.684 133.519L127.695 65.6362" stroke="#001446" stroke-width="0.251123" stroke-miterlimit="10"/>
</svg>
