<svg width="220" height="129" viewBox="0 0 220 129" fill="none" xmlns="http://www.w3.org/2000/svg">
<path d="M38.7478 72.3245C46.7037 70.1778 59.7211 70.1778 67.6769 72.3245L212.696 107.631C233.969 111.619 170.121 133.329 145.944 128.228C141.41 127.272 135.854 126.045 124.974 123.228C103.346 117.626 45.0863 102.299 31.7654 97.8799C13.5404 91.8339 4.79985 89.2282 2.24782 87.4905C-0.304199 85.7527 -1.26839 83.1267 6.68748 80.9781L38.7497 72.3245H38.7478Z" fill="#576485"/>
<path d="M180.523 47.4854L190.296 56.3203C190.296 56.3203 191.605 49.188 189.915 47.4299C187.367 44.7761 180.523 47.4835 180.523 47.4835V47.4854Z" fill="#EBEDF0"/>
<path d="M140.77 53.8161L136.267 55.032C135.708 55.1837 135.319 55.6927 135.319 56.2756V67.5848C135.319 68.2381 135.778 68.8007 136.415 68.9265L137.309 69.1024C137.544 69.1486 137.786 69.1412 138.018 69.0801L142.015 68.0234C142.813 67.8125 143.368 67.087 143.368 66.2561V56.1165C143.368 55.3762 143.044 54.6748 142.481 54.1992C142.008 53.7976 141.367 53.6551 140.77 53.8161Z" fill="#263762"/>
<mask id="mask0_132_349" style="mask-type:luminance" maskUnits="userSpaceOnUse" x="135" y="53" width="9" height="17">
<path d="M140.77 53.8161L136.267 55.032C135.708 55.1837 135.319 55.6927 135.319 56.2756V67.5848C135.319 68.2381 135.778 68.8007 136.415 68.9265L137.309 69.1024C137.544 69.1486 137.786 69.1412 138.018 69.0801L142.015 68.0234C142.813 67.8125 143.368 67.087 143.368 66.2561V56.1165C143.368 55.3762 143.044 54.6748 142.481 54.1992C142.008 53.7976 141.367 53.6551 140.77 53.8161Z" fill="white"/>
</mask>
<g mask="url(#mask0_132_349)">
<path d="M135.703 69.7149H137.187V56.6975L135.703 55.9795V69.7149Z" fill="#001446"/>
</g>
<path d="M54.1006 73.6161C56.4454 82.4325 53.1531 90.9806 46.7481 92.7091C40.343 94.4376 33.2477 88.6932 30.9029 79.8787C28.5582 71.0641 31.8505 62.5142 38.2555 60.7857C44.6624 59.0572 51.7559 64.8016 54.1006 73.6161Z" fill="#001446"/>
<path d="M46.7482 92.7073L37.2933 95.2594L28.8007 63.336L38.2556 60.7839L46.7482 92.7073Z" fill="#001446"/>
<path d="M164.598 103.463C166.943 112.28 163.651 120.828 157.246 122.556C150.841 124.285 143.745 118.541 141.401 109.724C139.056 100.91 142.348 92.3615 148.753 90.6311C155.158 88.9026 162.254 94.647 164.598 103.462V103.463Z" fill="#001446"/>
<path d="M157.246 122.556L147.791 125.108L139.298 93.1851L148.753 90.6331L157.246 122.556Z" fill="#001446"/>
<path d="M20.4396 78.1374L31.6433 76.8142L119.865 99.1624L131.041 113.383L155.295 109.411L152.906 88.673L14.6915 51.2032L14.066 66.5228L20.4396 78.1374Z" fill="#001446"/>
<path d="M9.02484 53.7516C9.02484 53.7516 9.81322 40.5862 12.6613 32.7636C17.1269 20.4976 24.0742 13.0192 25.8397 12.4363C32.5538 10.0748 69.9921 -0.255388 73.5212 0.251685C84.6805 1.85433 125.631 12.0328 143.368 17.3386C151.783 19.8573 151.407 18.8394 160.76 25.0798C170.115 31.3201 191.244 56.5961 191.244 56.5961C191.244 56.5961 204.605 63.2084 212.026 71.7435C217.419 77.9468 216.627 82.8158 217.095 83.569C222.016 91.4823 219.853 101.751 216.721 106.561C212.396 113.201 193.892 118.629 170.657 121C165.964 121.479 163.016 120.493 159.065 119.394C159.331 115.174 159.957 110.612 159.057 106.063C156.985 95.5833 149.567 87.5072 140.279 88.8156C133.402 89.7834 127.835 98.4629 130.108 113.385L48.1916 90.0203C48.1916 90.0203 49.3649 80.001 48.1028 74.871C45.5545 64.5205 36.1533 57.0939 29.1616 58.9815C22.5696 60.76 18.7795 69.2636 19.9084 78.1411C17.634 76.0351 14.3084 76.7161 10.6701 72.4227C9.35426 70.87 7.38148 66.2267 7.38704 58.2209C7.38889 55.73 9.02855 53.7535 9.02855 53.7535L9.02484 53.7516Z" fill="#EBEDF0"/>
<mask id="mask1_132_349" style="mask-type:luminance" maskUnits="userSpaceOnUse" x="7" y="0" width="213" height="122">
<path d="M9.02484 53.7516C9.02484 53.7516 9.81322 40.5862 12.6613 32.7636C17.1269 20.4976 24.0742 13.0192 25.8397 12.4363C32.5538 10.0748 69.9921 -0.255388 73.5212 0.251685C84.6805 1.85433 125.631 12.0328 143.368 17.3386C151.783 19.8573 151.407 18.8394 160.76 25.0798C170.115 31.3201 191.244 56.5961 191.244 56.5961C191.244 56.5961 204.605 63.2084 212.026 71.7435C217.419 77.9468 216.627 82.8158 217.095 83.569C222.016 91.4823 219.853 101.751 216.721 106.561C212.396 113.201 193.892 118.629 170.657 121C165.964 121.479 163.016 120.493 159.065 119.394C159.331 115.174 159.957 110.612 159.057 106.063C156.985 95.5833 149.567 87.5072 140.279 88.8156C133.402 89.7834 127.835 98.4629 130.108 113.385L48.1916 90.0203C48.1916 90.0203 49.3649 80.001 48.1028 74.871C45.5545 64.5205 36.1533 57.0939 29.1616 58.9815C22.5696 60.76 18.7795 69.2636 19.9084 78.1411C17.634 76.0351 14.3084 76.7161 10.6701 72.4227C9.35426 70.87 7.38148 66.2267 7.38704 58.2209C7.38889 55.73 9.02855 53.7535 9.02855 53.7535L9.02484 53.7516Z" fill="white"/>
</mask>
<g mask="url(#mask1_132_349)">
<path d="M113.989 37.5903C133.152 34.6052 153.48 28.7535 160.762 25.0781C168.355 30.8354 185.725 47.0914 191.245 56.5944C184.493 62.1981 156.735 69.0195 141.13 70.1207C131.576 57.3143 122.169 45.0742 113.991 37.5903H113.989Z" fill="#001446"/>
<path d="M189.413 56.0557C183.571 59.3184 162.468 66.1972 140.866 68.7788C140.866 68.7788 137.396 63.7007 139.68 62.0351C147.367 56.424 159.207 59.1074 168.053 57.0699C188.333 52.4007 189.415 56.0557 189.415 56.0557H189.413Z" fill="#263762"/>
<path d="M154.892 36.4873L144.302 39.3447L140.422 35.6101L151.009 32.7509L154.892 36.4873Z" fill="#263762"/>
<path d="M1.69446 34.4996C29.1653 45.7792 114.677 72.0564 136.2 77.2196C146.627 79.7217 155.506 83.0695 161.036 91.8637C165.764 99.3847 165.664 108.403 176.779 109.756C187.12 111.016 219.307 103.926 223.878 94.5342C225.358 91.4917 220.064 115.665 220.064 115.665L174.233 126.282L0.621078 76.8144L1.69446 34.4996Z" fill="#C4C9D2"/>
<path opacity="0.2" d="M34.5636 2.71705C40.282 6.96425 140.392 17.1686 151.955 29.0182C160.847 38.1308 168.251 51.2018 173.233 64.0267C187.47 67.9963 202.842 65.0723 217.369 76.7461L162.465 9.25348L74.7057 -5.81067L34.5636 2.71705Z" fill="white"/>
</g>
<path d="M19.6066 43.9024L49.2538 52.7762L49.5203 50.1816L19.8731 41.3097L19.6066 43.9024Z" fill="#263762"/>
<path d="M11.2734 37.0847C10.1871 41.5281 9.51898 47.352 9.02487 53.7497L12.7243 55.1118L13.0426 42.2091C13.0981 40.5251 11.2734 37.0829 11.2734 37.0829V37.0847Z" fill="#667290"/>
<path d="M72.3036 60.8802L79.8024 63.0233V66.2619L72.3036 64.117V60.8802Z" fill="#667290"/>
<path d="M85.8983 64.6666L93.3971 66.8097V70.0483L85.8983 67.9034V64.6666Z" fill="#667290"/>
<path d="M155.393 106.089C157.738 114.841 154.446 123.326 148.041 125.043C141.636 126.759 134.54 121.057 132.196 112.306C129.851 103.554 133.143 95.0688 139.548 93.3514C145.953 91.634 153.048 97.3376 155.393 106.089Z" fill="#263762"/>
<path d="M152.821 106.779C154.646 113.59 152.084 120.193 147.099 121.529C142.113 122.865 136.594 118.427 134.77 111.617C132.945 104.807 135.506 98.2036 140.492 96.8675C145.477 95.5313 150.998 99.9691 152.823 106.779H152.821Z" fill="#E5E7EC"/>
<path d="M151.455 107.144C153.004 112.924 150.83 118.529 146.599 119.664C142.369 120.798 137.683 117.03 136.134 111.251C134.585 105.469 136.759 99.8655 140.99 98.731C145.22 97.5966 149.906 101.364 151.455 107.144Z" fill="#001446"/>
<path d="M138.591 108.665L136.4 112.124C135.799 113.072 136.643 114.73 137.684 114.646L141.482 114.347C141.935 114.312 142.42 114.635 142.713 115.168L145.157 119.641C145.827 120.868 147.193 120.687 147.236 119.366L147.393 114.548C147.411 113.975 147.711 113.545 148.153 113.462L151.855 112.768C152.869 112.577 152.869 110.808 151.855 110.075L148.153 107.398C147.711 107.077 147.411 106.489 147.393 105.904L147.236 101.002C147.193 99.6582 145.827 98.7458 145.157 99.6119L142.713 102.775C142.422 103.152 141.935 103.217 141.482 102.938L137.684 100.602C136.643 99.9617 135.799 101.166 136.4 102.436L138.591 107.068C138.852 107.621 138.852 108.249 138.591 108.662V108.665Z" fill="#E5E7EC"/>
<path d="M145.689 108.689C146.072 110.118 145.533 111.504 144.488 111.785C143.442 112.067 142.283 111.134 141.9 109.705C141.517 108.277 142.056 106.891 143.101 106.609C144.147 106.33 145.305 107.261 145.689 108.689Z" fill="#263762"/>
<path d="M44.8955 76.2404C47.2403 84.992 43.948 93.4772 37.543 95.1945C31.1379 96.9101 24.0426 91.2083 21.6979 82.4566C19.3531 73.705 22.6454 65.2199 29.0504 63.5025C35.4555 61.7869 42.5508 67.4887 44.8955 76.2404Z" fill="#263762"/>
<path d="M42.3232 76.9308C44.148 83.7411 41.5867 90.3442 36.6011 91.6804C31.6155 93.0165 26.0969 88.5787 24.2722 81.7684C22.4475 74.958 25.0087 68.355 29.9943 67.0188C34.9799 65.6827 40.5004 70.1205 42.3232 76.9308Z" fill="#E5E7EC"/>
<path d="M40.9593 77.2954C42.5083 83.0749 40.3338 88.6805 36.1032 89.8149C31.8727 90.9493 27.1869 87.1815 25.6379 81.4019C24.0889 75.6206 26.2634 70.0168 30.494 68.8824C34.7245 67.748 39.4103 71.5159 40.9593 77.2954Z" fill="#001446"/>
<path d="M28.0955 78.8167L25.9044 82.2756C25.3029 83.2231 26.1468 84.8812 27.1887 84.798L30.9862 84.4982C31.4396 84.463 31.9245 84.7869 32.2169 85.3198L34.6616 89.7928C35.3315 91.0198 36.6973 90.8384 36.7398 89.5171L36.8971 84.6999C36.9156 84.1262 37.2155 83.6968 37.6578 83.6136L41.359 82.9196C42.3732 82.729 42.3732 80.9598 41.359 80.2269L37.6578 77.549C37.2155 77.2289 36.9156 76.6404 36.8971 76.0556L36.7398 71.1533C36.6973 69.8097 35.3315 68.8973 34.6616 69.7634L32.2169 72.9262C31.9263 73.3037 31.4396 73.3685 30.9862 73.089L27.1887 70.7535C26.1468 70.1132 25.3029 71.318 25.9044 72.5875L28.0955 77.2196C28.3565 77.773 28.3565 78.4003 28.0955 78.813V78.8167Z" fill="#E5E7EC"/>
<path d="M35.1909 78.8407C35.574 80.2694 35.0373 81.6555 33.9899 81.9368C32.9443 82.2181 31.7858 81.2854 31.4027 79.8567C31.0196 78.428 31.5581 77.0419 32.6038 76.7606C33.6494 76.4812 34.8079 77.412 35.1909 78.8407Z" fill="#263762"/>
<path d="M209.369 105.536L195.182 109.337V103.367L209.369 99.5658V105.536Z" fill="#001446"/>
<path d="M210.261 105.734L196.076 109.535V103.565L210.261 99.7638V105.734Z" fill="white"/>
<path d="M136.282 73.4125L28.4361 40.4102C24.2148 39.1296 21.4056 37.6454 23.3228 33.672C26.2635 27.5779 30.4533 17.2218 37.7744 18.2489C46.9794 19.5406 96.9817 30.0504 107.064 36.5017C119.965 44.7555 136.28 73.4125 136.28 73.4125H136.282Z" fill="#001446"/>
<path d="M188.068 95.2204C182.009 95.8108 174.233 94.2266 170.655 93.0459C167.078 91.8652 159.183 85.7896 166.582 86.1024C173.981 86.417 181.365 87.8993 183.543 88.6285C185.721 89.3576 188.066 95.2186 188.066 95.2186L188.068 95.2204Z" fill="#667290"/>
<path d="M211.443 88.9007C214.138 87.9643 217.367 85.1014 216.927 82.3772C216.314 78.0523 215.456 76.7569 214.295 74.81C213.285 73.1148 211.701 80.2342 211.292 81.7721C210.883 83.31 211.443 88.9007 211.443 88.9007Z" fill="#667290"/>
<path d="M87.2845 57.1051L82.0527 55.3784L85.0804 31.446L89.5756 32.7248L87.2845 57.1051Z" fill="#263762"/>
<path d="M53.1644 46.8432L47.9308 45.1165L54.0915 23.751L58.3184 24.7633L53.1644 46.8432Z" fill="#263762"/>
<path d="M113.989 37.5901C113.989 37.5901 107.338 32.2214 97.3111 28.7219C90.6007 26.3808 43.628 14.4331 26.6077 12.2142" stroke="#001446" stroke-width="0.291362" stroke-miterlimit="10"/>
<path d="M56.1975 23.8193L49.9904 47.2224C47.3237 57.5823 51.4191 85.5398 54.8595 86.8852C58.2998 88.2288 126.444 107.068 126.444 107.068L128.322 70.9975L129.22 63.9503" stroke="#001446" stroke-width="0.291362" stroke-miterlimit="10"/>
<path d="M83.4424 95.0891C81.229 80.2581 81.6676 66.9058 84.6805 57.7526L87.2843 31.4755" stroke="#001446" stroke-width="0.291362" stroke-miterlimit="10"/>
<path d="M166.582 86.1043C166.582 86.1043 148.405 75.7592 145.811 74.412C143.366 73.1424 142.289 71.6786 141.127 70.1222" stroke="#001446" stroke-width="0.291362" stroke-miterlimit="10"/>
<path d="M23.6836 62.409C23.6836 62.409 21.92 58.4616 19.6067 57.601C17.2934 56.7405 9.02289 53.7869 9.02289 53.7869" stroke="#001446" stroke-width="0.291362" stroke-miterlimit="10"/>
<path opacity="0.2" d="M129.956 68.6807C103.132 48.1498 63.7278 39.7164 28.8008 29.7471C28.8008 29.7471 32.3559 19.7111 38.9386 20.7382C46.9296 21.9855 95.2127 32.5897 104.303 38.4043C115.932 45.8439 129.956 68.6789 129.956 68.6789V68.6807Z" fill="white"/>
<path d="M126.818 69.3414C126.818 69.3414 127.612 69.5486 125.613 70.9033C123.435 72.3801 115.657 74.9007 113.656 74.1012C110.851 72.9834 109.947 66.8578 111.383 66.3785C114.983 65.1737 116.253 64.0152 117.459 64.0856C118.666 64.1559 126.818 69.3414 126.818 69.3414Z" fill="#BEC3CD"/>
<path d="M129.988 68.3661C129.988 68.3661 123.912 61.9518 121.066 61.8963C118.851 61.8537 113.68 62.061 112.483 64.9943C111.285 67.9275 114.9 69.5061 119.495 70.4499C124.09 71.3919 127.229 70.6757 128.345 70.0742C129.459 69.4746 129.988 68.3661 129.988 68.3661Z" fill="#EBEDF0"/>
<mask id="mask2_132_349" style="mask-type:luminance" maskUnits="userSpaceOnUse" x="112" y="61" width="18" height="10">
<path d="M129.988 68.3661C129.988 68.3661 123.912 61.9518 121.066 61.8963C118.851 61.8537 113.68 62.061 112.483 64.9943C111.285 67.9275 114.9 69.5061 119.495 70.4499C124.09 71.3919 127.229 70.6757 128.345 70.0742C129.459 69.4746 129.988 68.3661 129.988 68.3661Z" fill="white"/>
</mask>
<g mask="url(#mask2_132_349)">
<path d="M115.15 62.1407C115.15 62.1407 114.754 65.3238 119.896 66.5563C122.569 67.1966 131.037 68.4976 131.037 68.4976L128.977 72.2359L111.957 72.5597L109.751 65.2331L112.864 61.0284L115.15 62.1425V62.1407Z" fill="#C4C9D2"/>
</g>
<path d="M188.068 95.2205C198.036 93.257 204.291 91.4749 211.445 88.9006L212.006 89.8981C212.398 92.2114 211.003 94.4525 208.754 95.1225C204.181 96.4864 198.842 97.9003 193.063 99.1365C190.885 99.6028 188.682 98.3259 187.816 96.2754L188.068 95.2205Z" fill="#CBCFD7"/>
<path d="M199.277 89.1448C199.627 90.1386 200.565 90.7141 201.378 90.4291C202.188 90.1441 202.564 89.1078 202.214 88.114C201.866 87.1202 200.926 86.5447 200.114 86.8297C199.303 87.1146 198.928 88.151 199.277 89.1448Z" fill="#667290"/>
</svg>
