<svg width="182" height="94" viewBox="0 0 182 94" fill="none" xmlns="http://www.w3.org/2000/svg">
<path d="M147.632 26.4914L154.131 32.3977C154.131 32.3977 153.84 28.5514 152.557 26.9945C150.621 24.6466 147.632 26.4914 147.632 26.4914Z" fill="#EBEDF0"/>
<path d="M31.8212 50.7243C38.2393 49.1073 48.7418 49.1073 55.1599 50.7243L172.147 77.3147C189.308 80.3177 137.8 96.6681 118.297 92.8265C114.64 92.1066 110.157 91.1826 101.38 89.0609C83.932 84.8428 36.9326 73.2991 26.1861 69.9701C11.4839 65.4166 4.43198 63.4546 2.37453 62.1462C0.315384 60.8361 -0.462509 58.8584 5.95558 57.2414L31.8212 50.7243Z" fill="#576485"/>
<path d="M26.8327 55.5955C24.6069 47.8404 27.7314 40.3207 33.8114 38.7998C39.8915 37.2788 46.6248 42.3326 48.8506 50.0877C51.0765 57.8428 47.952 65.3626 41.8719 66.8835C35.7918 68.4045 29.0585 63.3507 26.8327 55.5955Z" fill="#001446"/>
<path d="M41.8702 66.885L32.896 69.1299L24.8356 41.0462L33.8097 38.8013L41.8702 66.885Z" fill="#001446"/>
<path d="M110.464 76.5121C108.238 68.757 111.362 61.2373 117.442 59.7163C123.522 58.1954 130.256 63.2492 132.482 71.0043C134.707 78.7594 131.583 86.2791 125.503 87.8001C119.423 89.321 112.689 84.2672 110.464 76.5121Z" fill="#001446"/>
<path d="M125.504 87.8L116.53 90.0449L108.469 61.9612L117.443 59.7163L125.504 87.8Z" fill="#001446"/>
<path d="M16.1142 52.8444L33.5975 48.0931L94.3364 65.3738L99.6817 76.7514L123.397 73.1646L121.437 57.3996L19.48 30.8851L14.8499 42.2485L16.1142 52.8444Z" fill="#001446"/>
<path d="M155.223 66.0585C152.997 58.3033 156.121 50.7836 162.202 49.2627C168.282 47.7417 175.015 52.7955 177.241 60.5507C179.467 68.3058 176.342 75.8255 170.262 77.3464C164.182 78.8674 157.449 73.8136 155.223 66.0585Z" fill="#001230"/>
<path d="M170.262 77.344L161.287 79.5889L153.227 51.5051L162.201 49.2602L170.262 77.344Z" fill="#001230"/>
<path d="M146.486 68.2421C144.26 60.487 147.384 52.9672 153.464 51.4463C159.544 49.9254 166.278 54.9792 168.504 62.7343C170.729 70.4894 167.605 78.0091 161.525 79.5301C155.445 81.051 148.711 75.9972 146.486 68.2421Z" fill="#263762"/>
<path d="M11.2518 24.3933C13.2449 21.2906 12.5297 13.2863 15.4243 12.0901C29.0181 6.47174 39.707 5.54299 50.7095 3.87536C59.9867 2.4672 70.2926 0.938799 80.1104 0.52901C90.979 0.0765023 103.325 2.14918 110.052 3.61429C132.801 8.56815 154.131 32.4451 154.131 32.4451C154.131 32.4451 174.365 41.6218 180.178 51.0802C183.383 56.2951 181.751 66.9417 179.912 71.8782C177.838 77.4459 160.837 82.4725 142.568 84.387C136.563 85.0167 126.784 83.4978 126.784 83.4978C127.003 80.2907 127.694 74.8147 125.339 68.3768C122.527 60.6889 115.082 55.9439 109.171 56.7793C102.363 57.7428 97.819 65.407 99.6816 76.7497L92.6957 73.7578C78.6851 69.3767 65.4506 65.5446 48.7605 62.3217L42.8729 62.1809C43.0152 58.4485 43.7796 54.4962 41.3747 47.805C38.1716 38.8925 29.6299 35.4133 23.8948 36.8483C18.4885 38.2011 15.1888 46.0947 16.1141 52.8428C14.2482 51.2416 12.6619 49.9901 9.6774 46.7244C8.59782 45.5441 6.65051 36.7977 8.18597 30.8835C8.81474 28.4659 9.25877 27.4944 11.2518 24.3917V24.3933Z" fill="#EBEDF0"/>
<mask id="mask0_132_480" style="mask-type:luminance" maskUnits="userSpaceOnUse" x="7" y="0" width="175" height="85">
<path d="M11.2518 24.3933C13.2449 21.2906 12.5297 13.2863 15.4243 12.0901C29.0181 6.47174 39.707 5.54299 50.7095 3.87536C59.9867 2.4672 70.2926 0.938799 80.1104 0.52901C90.979 0.0765023 103.325 2.14918 110.052 3.61429C132.801 8.56815 154.131 32.4451 154.131 32.4451C154.131 32.4451 174.365 41.6218 180.178 51.0802C183.383 56.2951 181.751 66.9417 179.912 71.8782C177.838 77.4459 160.837 82.4725 142.568 84.387C136.563 85.0167 126.784 83.4978 126.784 83.4978C127.003 80.2907 127.694 74.8147 125.339 68.3768C122.527 60.6889 115.082 55.9439 109.171 56.7793C102.363 57.7428 97.819 65.407 99.6816 76.7497L92.6957 73.7578C78.6851 69.3767 65.4506 65.5446 48.7605 62.3217L42.8729 62.1809C43.0152 58.4485 43.7796 54.4962 41.3747 47.805C38.1716 38.8925 29.6299 35.4133 23.8948 36.8483C18.4885 38.2011 15.1888 46.0947 16.1141 52.8428C14.2482 51.2416 12.6619 49.9901 9.6774 46.7244C8.59782 45.5441 6.65051 36.7977 8.18597 30.8835C8.81474 28.4659 9.25877 27.4944 11.2518 24.3917V24.3933Z" fill="white"/>
</mask>
<g mask="url(#mask0_132_480)">
<path d="M81.539 17.5361C101.875 15.6612 117.29 12.8117 121.532 7.56668C134.579 14.2736 144.513 22.3903 154.131 32.4483C154.131 37.4923 134.462 43.4604 107.486 44.0411C97.7376 29.7206 89.6654 22.5232 81.539 17.5361Z" fill="#001446"/>
<path d="M151.42 32.2616C146.071 38.1031 130.835 40.709 107.725 42.133C107.725 42.133 103.42 36.6143 121.527 32.7505C140.832 28.6305 151.42 32.2616 151.42 32.2616Z" fill="#263762"/>
<path d="M120.287 17.283L110.847 19.6436L107.264 16.5884L116.704 14.2262L120.287 17.283Z" fill="#263762"/>
<path d="M187.82 76.0029L185.395 68.6298C185.395 68.6298 160.837 80.9757 144.864 78.5803C134.045 76.9569 132.98 57.6731 110.104 50.5896C84.2947 42.598 55.504 37.5128 29.6808 25.1922C22.6288 21.8285 11.2518 14.4697 11.2518 14.4697L-2.08263 14.8478L-13.441 62.6998L136.594 94.1443L187.82 76.0029Z" fill="#C4C9D2"/>
<path opacity="0.2" d="M185.444 62.7141C186.122 43.5885 161.998 38.6441 146.027 38.3467C138.599 30.9467 121.473 8.76908 94.1279 5.16009C75.7735 2.73775 53.3297 4.14115 41.3392 5.24236L49.9045 -2.39173L71.8569 -4.6875L117.114 1.27422L193.042 51.1878L185.444 62.7141Z" fill="white"/>
</g>
<path d="M101.736 78.6915C99.5112 70.9398 102.634 63.4233 108.712 61.9031C114.789 60.3828 121.519 65.4344 123.744 73.1862C125.969 80.9379 122.846 88.4543 116.769 89.9746C110.691 91.4949 103.961 86.4433 101.736 78.6915Z" fill="#263762"/>
<path d="M104.524 77.994C102.863 72.2064 105.195 66.5944 109.732 65.4593C114.27 64.3242 119.295 68.0958 120.956 73.8834C122.617 79.6711 120.285 85.2831 115.748 86.4182C111.21 87.5533 106.185 83.7817 104.524 77.994Z" fill="#E5E7EC"/>
<path d="M107.805 75.4649L105.727 78.5281C105.157 79.3682 105.957 80.8349 106.945 80.7621L110.548 80.4963C110.979 80.4647 111.438 80.7526 111.716 81.2241L114.035 85.1859C114.67 86.2713 115.965 86.1115 116.006 84.9423L116.155 80.6751C116.172 80.1656 116.456 79.7859 116.877 79.7131L120.388 79.0992C121.351 78.9315 121.351 77.3636 120.388 76.7133L116.877 74.3416C116.458 74.0583 116.173 73.5362 116.155 73.0188L116.006 68.6773C115.965 67.4875 114.67 66.679 114.035 67.4463L111.716 70.2484C111.44 70.5823 110.979 70.6392 110.548 70.3924L106.945 68.3229C105.957 67.7565 105.157 68.8229 105.727 69.9478L107.805 74.0504C108.052 74.5393 108.052 75.0963 107.805 75.4618V75.4649Z" fill="#263762"/>
<path d="M110.943 76.3882C110.579 75.1221 111.089 73.8944 112.082 73.6461C113.075 73.3978 114.174 74.2228 114.538 75.4889C114.901 76.755 114.391 77.9826 113.398 78.231C112.405 78.4793 111.306 77.6543 110.943 76.3882Z" fill="#E5E7EC"/>
<path d="M18.096 57.7753C15.8711 50.0236 18.9942 42.5071 25.0716 40.9869C31.149 39.4666 37.8792 44.5182 40.1041 52.27C42.329 60.0217 39.2059 67.5381 33.1285 69.0584C27.0511 70.5787 20.3208 65.527 18.096 57.7753Z" fill="#263762"/>
<path d="M20.8822 57.0779C19.2211 51.2902 21.553 45.6782 26.0907 44.5431C30.6284 43.408 35.6535 47.1796 37.3146 52.9673C38.9758 58.7549 36.6439 64.3669 32.1062 65.502C27.5685 66.6371 22.5433 62.8655 20.8822 57.0779Z" fill="#E5E7EC"/>
<path d="M24.1643 54.5502L22.0865 57.6133C21.5171 58.4535 22.317 59.9202 23.3051 59.8474L26.9082 59.5816C27.3386 59.5499 27.7979 59.8379 28.0759 60.3094L30.3943 64.2712C31.0298 65.3566 32.3246 65.1968 32.3653 64.0275L32.5145 59.7604C32.5314 59.2509 32.8161 58.8712 33.2364 58.7984L36.748 58.1845C37.7106 58.0168 37.7106 56.4488 36.748 55.7985L33.2364 53.4268C32.8178 53.1436 32.5331 52.6215 32.5145 52.1041L32.3653 47.7626C32.3246 46.5728 31.0298 45.7642 30.3943 46.5316L28.0759 49.3337C27.7996 49.6675 27.3386 49.7245 26.9082 49.4777L23.3051 47.4082C22.317 46.8417 21.5171 47.9081 22.0865 49.0331L24.1643 53.1357C24.4118 53.6246 24.4118 54.1815 24.1643 54.547V54.5502Z" fill="#263762"/>
<path d="M30.8977 54.5738C31.2604 55.8396 30.7503 57.0674 29.7588 57.3158C28.7657 57.5642 27.6675 56.7399 27.3031 55.4725C26.9404 54.2068 27.4506 52.979 28.442 52.7306C29.4351 52.4822 30.5333 53.3065 30.8977 54.5738Z" fill="#E5E7EC"/>
<path d="M102.361 44.6011C57.7598 34.4418 36.6701 25.6479 32.4315 23.6781C28.1471 21.6861 24.8219 13.9935 24.8219 13.9935C24.8219 13.9935 42.2459 8.58554 63.6102 13.8796C89.3063 20.2479 102.363 44.6011 102.363 44.6011H102.361Z" fill="#001446"/>
<path d="M37.9919 24.5785L35.0633 23.4646L38.5122 13.2705L41.578 13.0158L37.9919 24.5785Z" fill="#263762"/>
<path d="M67.5013 16.5789L65.6591 33.7046L61.3527 32.3882L63.6661 15.454L67.5013 16.5789Z" fill="#263762"/>
<path d="M149.12 80.7006C147.886 80.5772 150.809 76.4935 151.228 75.761C154.777 69.5382 162.302 68.6332 169.859 66.7266C176.636 65.0163 177.846 67.4276 178.736 68.6411C179.078 69.1094 180.381 71.4922 179.573 72.0761C177.694 73.4336 173.365 75.1914 167.101 76.878C160.322 78.7039 150.552 80.8446 149.121 80.7006H149.12Z" fill="#C4C9D2"/>
<path d="M172.792 69.2659L160.839 72.2563V67.5603L172.792 64.57V69.2659Z" fill="#001446"/>
<path d="M173.543 69.4226L161.59 72.413V67.7155L173.543 64.7267V69.4226Z" fill="white"/>
<path d="M40.5663 9.08248C49.774 5.95448 62.4017 2.6556 76.2023 0.747467C56.7819 2.60813 45.5032 3.51473 18.6072 12.0902C27.703 10.0729 33.8974 9.51284 40.5663 9.0809V9.08248Z" fill="#001446"/>
<path d="M164.513 58.1718C164.895 58.9202 165.735 59.2904 166.388 58.9993C167.042 58.7082 167.262 57.8665 166.881 57.1181C166.5 56.3697 165.659 55.9995 165.007 56.2906C164.352 56.5817 164.132 57.4234 164.513 58.1718Z" fill="#667290"/>
<path opacity="0.2" d="M99.9442 43.0649C69.9552 25.5231 60.8357 23.0074 27.4317 15.0046C27.4317 15.0046 43.0423 10.2232 63.6643 15.454C85.2743 20.9363 99.9425 43.0664 99.9425 43.0664L99.9442 43.0649Z" fill="white"/>
<path d="M65.7809 14.4698C64.9742 20.3239 63.4421 34.214 63.4421 34.214C63.4421 34.214 61.5355 36.8025 61.7592 40.2169C62.1964 46.8827 62.5015 57.4692 61.9592 61.2395" stroke="#001446" stroke-width="0.273085" stroke-miterlimit="10"/>
<path d="M102.361 44.6011C99.6239 47.3193 97.8444 60.4136 96.0818 69.7628L50.7908 58.4485C48.7757 57.9438 46.7945 54.8458 45.7149 52.6181L35.5226 33.9972C34.3854 31.6493 34.5125 27.5023 36.192 25.0721L40.3103 12.0901" stroke="#001446" stroke-width="0.273085" stroke-miterlimit="10"/>
<path d="M11.2516 24.3934C11.2516 24.3934 18.2594 30.0845 19.5898 31.4421C20.1982 32.0623 20.8795 32.6588 21.2304 33.8581C21.5795 35.0574 22.1354 37.5114 22.1354 37.5114" stroke="#001446" stroke-width="0.273085" stroke-miterlimit="10"/>
<path d="M130.628 56.6008C130.628 56.6008 125.24 57.3144 122.91 63.9438" stroke="#001446" stroke-width="0.273085" stroke-miterlimit="10"/>
<path d="M81.9541 17.6136C73.1871 12.5174 58.6476 7.5667 40.3119 9.03023" stroke="#001446" stroke-width="0.273085" stroke-miterlimit="10"/>
<path d="M107.55 43.9161C107.55 43.9161 107.759 45.0553 109.603 45.9951C111.65 47.0378 126.161 54.6513 130.626 56.6006C136.234 59.0498 153.923 62.2965 158.878 61.7507C167.566 60.7918 170.83 59.2255 173.543 57.9581C176.506 56.5753 179.117 50.6879 177.673 49.2655" stroke="#001446" stroke-width="0.273085" stroke-miterlimit="10"/>
<path d="M70.9892 41.4637L63.3237 38.9369L63.6305 40.6425L71.4281 43.2642L70.9892 41.4637Z" fill="#667290"/>
<path d="M173.543 57.9581C172.584 55.126 175.204 52.8634 175.807 49.4221C176.134 47.5504 175.846 46.06 175.846 46.06C175.846 46.06 181.114 50.2322 180.556 52.884C179.968 55.6829 173.543 57.9565 173.543 57.9565V57.9581Z" fill="#667290"/>
<path d="M130.628 56.6005C137.805 56.5388 154.668 56.1907 158.88 61.7506C158.88 61.7506 149.759 63.1461 143.654 62.0053C137.549 60.8645 130.63 56.6005 130.63 56.6005H130.628Z" fill="#667290"/>
<path d="M14.8684 12.4399C14.1227 14.5316 14.4294 21.8302 15.1718 27.6163L11.2534 24.3934C11.2534 24.3934 12.1313 15.0315 14.8701 12.4383L14.8684 12.4399Z" fill="#667290"/>
<path d="M98.0766 44.8116C98.0766 44.8116 98.6765 44.9572 97.1665 45.9128C95.5209 46.9555 89.7282 48.4713 88.1334 48.1691C83.61 47.3115 87.1589 42.845 88.2452 42.5048C90.9653 41.6551 90.0959 41.0555 91.006 41.1045C91.9178 41.1536 98.0749 44.8116 98.0749 44.8116H98.0766Z" fill="#BEC3CD"/>
<path d="M100.471 44.1218C100.471 44.1218 95.882 39.5983 93.7313 39.5587C92.0569 39.5287 88.1522 39.6742 87.2471 41.7437C86.3421 43.8117 89.0741 44.9255 92.545 45.5916C96.0159 46.2562 98.3886 45.7499 99.2309 45.3274C100.073 44.9034 100.471 44.1234 100.471 44.1234V44.1218Z" fill="#EBEDF0"/>
<mask id="mask1_132_480" style="mask-type:luminance" maskUnits="userSpaceOnUse" x="87" y="39" width="14" height="7">
<path d="M100.471 44.1218C100.471 44.1218 95.882 39.5983 93.7313 39.5587C92.0569 39.5287 88.1522 39.6742 87.2471 41.7437C86.3421 43.8117 89.0741 44.9255 92.545 45.5916C96.0159 46.2562 98.3886 45.7499 99.2309 45.3274C100.073 44.9034 100.471 44.1234 100.471 44.1234V44.1218Z" fill="white"/>
</mask>
<g mask="url(#mask1_132_480)">
<path d="M89.2603 39.7312C89.2603 39.7312 88.9603 41.9747 92.8465 42.8449C94.8666 43.2975 101.263 44.2135 101.263 44.2135L99.7069 46.8495L86.8487 47.0773L85.1827 41.9099L87.535 38.9448L89.262 39.7296L89.2603 39.7312Z" fill="#C4C9D2"/>
</g>
</svg>
