<svg width="79" height="74" viewBox="0 0 79 74" fill="none" xmlns="http://www.w3.org/2000/svg">
<path d="M30.2383 5.64941C34.2068 3.85016 39.1517 3.03027 43.4268 3.29883L43.9775 3.3418C49.6317 3.86467 54.0375 6.89024 56.541 12.04L56.79 12.5703C59.1116 17.6774 59.4016 23.3101 58.9307 28.7168C59.4184 29.0214 59.82 29.4658 60.0752 30.0508L60.1719 30.2979V30.2988L60.2568 30.5918C60.4164 31.2687 60.32 31.9023 60.1299 32.4648C59.9206 33.0838 59.5751 33.6701 59.3076 34.1465L59.3086 34.1475C59.1342 34.4587 58.9347 34.7578 58.7598 35.0244C58.6694 35.1622 58.5849 35.2933 58.5059 35.4209L58.2871 35.7988C58.1946 35.9742 58.1398 36.1363 58.0889 36.3301L57.9131 37.0508C57.5939 38.2886 57.1758 39.4969 56.6836 40.6699L56.4688 41.1699C54.5402 45.5462 51.3108 49.8437 46.8506 52.1377L46.415 52.3535C42.1112 54.4031 37.308 54.0724 33.2764 51.6699L32.8887 51.4316C28.5278 48.6568 25.4972 44.1449 23.7773 39.4619V39.4609C23.5516 38.8479 23.4044 38.1852 23.2666 37.5996C23.1232 36.9903 22.9877 36.454 22.7871 35.9893V35.9883C22.6126 35.5838 22.3527 35.19 22.0439 34.7334C21.7862 34.3523 21.4896 33.9213 21.249 33.4561L21.1494 33.2539C20.2258 31.2822 20.5895 29.2045 21.9512 27.7031C21.5532 25.7105 21.1026 23.4603 20.9902 21.2441C20.8666 18.8038 21.1469 16.3062 22.4199 14.1299L22.6885 13.6982C23.5928 12.3285 24.7934 11.1074 25.7637 9.96582L25.9805 9.7041C26.1933 9.44002 26.3965 9.16851 26.6045 8.88965C26.8775 8.52361 27.1623 8.13965 27.4668 7.77344C28.0829 7.03236 28.8142 6.32328 29.8574 5.82617L30.2383 5.64941ZM41.7432 6.53906L41.2891 6.5498C39.5085 6.61262 37.7365 6.88697 35.9844 7.2959L35.2344 7.47949C34.3265 7.71128 33.3759 7.91608 32.4648 8.22949C31.5582 8.54141 30.7954 8.92912 30.2734 9.46289L30.2715 9.46484C29.7668 9.97853 29.3121 10.5783 28.8359 11.2266C28.4863 11.7025 28.1215 12.2098 27.7305 12.6963L27.3301 13.1738C26.4505 14.1766 25.6311 15.0597 25.0811 16.1143L25.0801 16.1152C24.2385 17.7245 24.0989 19.7065 24.29 21.8174C24.4337 23.4041 24.754 24.9882 25.0605 26.4795L25.3555 27.9375L25.3564 27.9385L25.3828 28.1299C25.4402 28.7873 25.1181 29.294 24.6924 29.6016C24.6534 29.6363 24.613 29.6714 24.5693 29.7041C24.1166 30.0445 23.9646 30.3541 23.9199 30.6162C23.8709 30.9037 23.9304 31.2534 24.1152 31.6914C24.3002 32.1296 24.5779 32.5845 24.8887 33.0732C25.1103 33.4218 25.3579 33.7997 25.5654 34.1719L25.7568 34.54L25.7578 34.541L25.8428 34.7324C26.0311 35.1816 26.1481 35.655 26.2432 36.083C26.358 36.6002 26.4394 37.0358 26.5684 37.4434H26.5674C26.9187 38.5446 27.3484 39.6161 27.8584 40.6523L28.1729 41.2646C29.7994 44.3169 32.2633 47.1705 35.1611 48.8594C38.2243 50.6446 41.7501 51.125 45.373 49.207L45.6855 49.0371C48.8913 47.2324 51.3251 44.1727 52.9912 40.8496C53.9148 39.0056 54.3247 37.1713 54.9932 35.083C55.208 34.4094 55.6378 33.8592 55.8975 33.4434C56.0782 33.1538 56.546 32.454 56.8125 31.8193C56.8663 31.6912 56.904 31.5771 56.9307 31.4805C56.5878 31.425 56.2695 31.2611 56.0293 31.04C55.7304 30.7648 55.4706 30.3232 55.5273 29.7842V29.7822L55.6406 28.6406C55.644 28.6026 55.6461 28.5644 55.6494 28.5264L55.3301 28.21L55.6738 28.2119C56.1125 22.8202 55.7574 17.3144 53.1514 12.6445L52.8662 12.1514C50.4579 8.13892 46.4174 6.48289 41.7432 6.53906Z" fill="black" stroke="black" stroke-width="1"/>
<path d="M30.4336 47.665C31.0365 46.9413 31.9714 46.9783 32.5703 47.3232C32.8946 47.5101 33.1905 47.8178 33.3232 48.2295C33.4637 48.6655 33.394 49.1379 33.1152 49.5547L33.1143 49.5557C32.2846 50.7922 31.3196 52.2648 30.1523 53.5117C29.0536 54.6855 27.7281 55.7124 26.0898 56.1709L25.7588 56.2549C24.3428 56.5773 22.8539 56.7808 21.4297 56.9893L20.0312 57.2041C19.5184 57.2888 18.9873 57.3578 18.4658 57.4268C17.9399 57.4963 17.4209 57.5666 16.9092 57.6533C16.0102 57.8057 15.1697 58.0057 14.4238 58.3262L14.1104 58.4707C10.8071 60.1122 8.7449 63.2003 8.55859 66.8027L8.54688 67.1533C8.53769 67.6546 8.32463 68.0745 7.98535 68.3584C7.66148 68.6294 7.25855 68.748 6.88281 68.748C6.50767 68.748 6.10191 68.6299 5.7793 68.3516C5.43964 68.0584 5.24085 67.628 5.25 67.126L5.26172 66.7617C5.42663 63.0019 7.09985 59.5381 10.1123 57.1465V57.1455L10.5254 56.832C12.5938 55.3262 14.7119 54.7655 17.0977 54.3711L20.7256 53.7725C21.9346 53.573 23.144 53.373 24.3535 53.1729L24.6006 53.126C25.8226 52.8628 26.8233 52.1847 27.7207 51.2656C28.6907 50.2722 29.4951 49.0459 30.3174 47.8203H30.3184L30.4336 47.665Z" fill="black" stroke="black" stroke-width="1"/>
<path d="M48.4297 47.3257C49.0285 46.9814 49.9635 46.9447 50.5664 47.6685L50.6816 47.8237L50.6826 47.8247L51.2988 48.7407C51.9174 49.6496 52.552 50.5253 53.2793 51.27C54.2363 52.2498 55.3109 52.9552 56.6465 53.1763L60.2744 53.7759C61.4833 53.9753 62.6925 54.1743 63.9023 54.3745L64.8438 54.5435C67.0089 54.9658 68.9627 55.6228 70.8877 57.1489H70.8867C73.9973 59.6121 75.6803 63.2269 75.75 67.1265V67.1431H75.749C75.7544 67.6393 75.5584 68.065 75.2217 68.356C74.8988 68.6349 74.4917 68.7528 74.1162 68.7524C73.7404 68.752 73.3372 68.6329 73.0137 68.3618C72.7172 68.1132 72.5172 67.7605 72.4658 67.3403L72.4531 67.1567C72.3856 63.5347 70.427 60.3474 67.209 58.6372L66.8936 58.4761C66.0664 58.0704 65.1159 57.8342 64.0908 57.6597C63.5799 57.5727 63.061 57.5023 62.5352 57.4321C62.014 57.3626 61.4825 57.2929 60.9678 57.2075V57.2065C59.3733 56.9429 57.628 56.742 55.9541 56.4097L55.2422 56.2583C53.4485 55.8521 52.0183 54.7672 50.8467 53.5151C49.9715 52.5799 49.2101 51.5173 48.5342 50.5229L47.8857 49.5591C47.6058 49.1424 47.5352 48.6698 47.6758 48.2329C47.8085 47.8205 48.1052 47.5124 48.4297 47.3257Z" fill="black" stroke="black" stroke-width="1"/>
</svg>
