<svg width="64" height="65" viewBox="0 0 64 65" fill="none" xmlns="http://www.w3.org/2000/svg">
<g clip-path="url(#clip0_925_560)">
<path d="M32 65C14.3652 65 0 50.4104 0 32.5C0 14.5896 14.3652 0 32 0C49.6348 0 64 14.5896 64 32.5C64 50.4104 49.6348 65 32 65ZM32 5.00838C17.072 5.00838 4.93132 17.3388 4.93132 32.5C4.93132 47.6612 17.072 59.9916 32 59.9916C46.928 59.9916 59.0687 47.6612 59.0687 32.5C59.0687 17.3388 46.928 5.00838 32 5.00838Z" fill="black"/>
<path d="M27.7652 43.1153C27.1488 43.1153 26.5056 42.8703 26.0232 42.3804L18.4922 34.7317C17.5273 33.7518 17.5273 32.1731 18.4922 31.1932C19.457 30.2133 21.0114 30.2133 21.9763 31.1932L27.7652 37.0726L42.0232 22.5919C42.988 21.612 44.5424 21.612 45.5072 22.5919C46.4721 23.5718 46.4721 25.1505 45.5072 26.1304L29.5072 42.3804C29.0248 42.8703 28.4084 43.1153 27.7652 43.1153Z" fill="black"/>
</g>
<defs>
<clipPath id="clip0_925_560">
<rect width="64" height="65" fill="white"/>
</clipPath>
</defs>
</svg>
