<svg width="107" height="70" viewBox="0 0 107 70" fill="none" xmlns="http://www.w3.org/2000/svg">
<path d="M103.99 29.6174C103.679 30.8002 102.812 31.5259 101.811 32.1149C100.102 33.1187 98.2533 33.8255 96.2755 34.047C94.5467 34.2402 92.7939 34.2684 91.0555 34.325C89.2261 34.3815 87.3968 34.3863 85.5722 34.4051C85.3615 34.4051 85.2418 34.4616 85.1364 34.6548C84.26 36.2287 75.4388 51.6473 73.5711 54.8516C72.9725 55.8789 72.1345 56.6375 70.9277 56.8967C69.7927 57.1418 68.7391 56.9674 67.8388 56.1946C67.3982 55.8176 67.2545 55.337 67.3791 54.7762C67.8867 52.5049 68.3704 50.2336 68.9115 47.9717C69.989 43.4856 71.0953 39.0043 72.1871 34.5229C72.1967 34.4805 72.1967 34.4334 72.2063 34.358C72.0866 34.3486 71.9812 34.3391 71.8759 34.3344C69.9842 34.2449 68.0926 34.1978 66.2058 34.0611C63.9789 33.9009 61.7616 33.604 59.5635 33.194C59.3528 33.1563 59.2091 33.194 59.0559 33.359C56.9919 35.6586 54.9231 37.9487 52.8542 40.2389C52.4472 40.6865 52.0162 41.1012 51.4559 41.3604C50.9339 41.6007 50.4023 41.6573 49.9282 41.285C49.4349 40.9033 49.2051 40.3991 49.3152 39.7582C49.7845 37.0487 50.5316 34.4051 51.2547 31.7521C51.3026 31.5825 51.3457 31.4175 51.3888 31.2479C51.3888 31.2337 51.3792 31.2149 51.3792 31.2008C51.0488 31.0782 49.8947 30.5835 49.8899 30.2913C49.8803 29.9944 51.0201 29.4666 51.3792 29.3206C51.2308 28.8305 51.0632 28.3263 50.9195 27.8221C50.3209 25.6686 49.7271 23.5151 49.1476 21.3568C49.0231 20.8998 48.9082 20.438 49.1093 19.9573C49.4493 19.1656 50.1964 18.7934 50.9913 19.1374C51.4654 19.3447 51.93 19.6463 52.2939 20.0044C53.3188 21.0176 54.2909 22.0873 55.2918 23.1287C56.5369 24.4245 57.7868 25.7063 59.032 27.0021C59.1565 27.1294 59.2762 27.1388 59.4294 27.1058C60.4447 26.9173 61.4552 26.6958 62.4752 26.545C63.955 26.3236 65.4443 26.1068 66.9337 25.9607C68.6146 25.7958 70.3003 25.7157 71.9812 25.5979C72.01 25.5979 72.0339 25.5837 72.1009 25.5696C72.0531 25.367 72.0052 25.1691 71.9525 24.9712C70.3434 19.0667 68.7343 13.1669 67.13 7.26248C66.9528 6.6169 66.8331 5.95718 66.6703 5.3116C66.5027 4.6566 66.723 4.14296 67.2354 3.72828C68.4949 2.71515 70.511 2.75756 71.7992 3.86494C72.2015 4.20893 72.5703 4.62361 72.848 5.06656C74.8115 8.19079 84.3367 23.779 85.0263 24.9335C85.1172 25.089 85.2178 25.1408 85.3998 25.1361C87.6458 25.0984 89.8966 25.0466 92.1474 25.0513C93.5745 25.0513 95.0064 25.0513 96.4191 25.2162C98.4448 25.4471 100.394 26.0079 102.151 27.0775C103.033 27.61 103.722 28.3121 104 29.33V29.6033L103.99 29.6174Z" stroke="black" stroke-width="3"/>
<path d="M14.308 3H21.131C23.6069 3 25.6138 4.99484 25.6138 7.45582C25.6138 9.91681 23.6069 11.9116 21.131 11.9116H12.0989C7.07356 11.9116 3 15.9607 3 20.9558C3 25.9509 7.07356 30 12.0989 30H43" stroke="#333333" stroke-width="3" stroke-linecap="round" stroke-linejoin="round"/>
</svg>
