<svg width="76" height="76" viewBox="0 0 76 76" fill="none" xmlns="http://www.w3.org/2000/svg">
<path d="M28.5254 54.0509C42.6228 54.0509 54.0509 42.6228 54.0509 28.5254C54.0509 14.4281 42.6228 3 28.5254 3C14.4281 3 3 14.4281 3 28.5254C3 42.6228 14.4281 54.0509 28.5254 54.0509Z" stroke="#333333" stroke-width="4" stroke-linecap="round" stroke-linejoin="round"/>
<path d="M50.9377 50.9375L54.71 54.7098" stroke="#333333" stroke-width="5" stroke-linecap="round" stroke-linejoin="round"/>
<path d="M55.8306 53.5893L53.5914 55.8285C52.5413 56.8786 52.5413 58.5813 53.5914 59.6315L66.0588 72.0988C67.1089 73.149 68.8116 73.149 69.8618 72.0988L72.101 69.8596C73.1511 68.8095 73.1511 67.1068 72.1009 66.0566L59.6336 53.5893C58.5835 52.5391 56.8808 52.5391 55.8306 53.5893Z" stroke="#333333" stroke-width="3" stroke-linecap="round" stroke-linejoin="round"/>
</svg>
