<svg width="74" height="73" viewBox="0 0 74 73" fill="none" xmlns="http://www.w3.org/2000/svg">
<path d="M4.73345 31.016L6.15493 29.0595L4.73345 31.016L21.3466 43.0861L15.0009 62.616C13.9532 65.8406 17.6438 68.522 20.3869 66.5291L37 54.459L53.6131 66.5291C56.3561 68.522 60.0468 65.8406 58.9991 62.616L52.6534 43.0861L69.2665 31.016C72.0095 29.0231 70.5998 24.6844 67.2093 24.6844L46.6743 24.6844L40.3287 5.15451C39.281 1.92997 34.719 1.92987 33.6713 5.15451L27.3257 24.6844L6.7907 24.6844C3.40019 24.6844 1.99044 29.023 4.73345 31.016ZM47.0111 25.7209L47.0104 25.7186C47.0106 25.7194 47.0109 25.7201 47.0111 25.7209L45.5845 26.1844L47.0111 25.7209ZM38.4266 6.69959L38.1756 6.61803L38.4266 6.69959C38.4263 6.70054 38.426 6.7015 38.4257 6.70245L38.4266 6.69959ZM54.2438 64.1611C54.2435 64.1602 54.2432 64.1593 54.2429 64.1584L54.2438 64.1611Z" stroke="black" stroke-width="3"/>
</svg>
