<?xml version="1.0" encoding="UTF-8"?>
<svg id="Layer_37" xmlns="http://www.w3.org/2000/svg" xmlns:xlink="http://www.w3.org/1999/xlink" version="1.1" viewBox="0 0 70 70">
  <!-- Generator: Adobe Illustrator 29.3.1, SVG Export Plug-In . SVG Version: 2.1.0 Build 151)  -->
  <path d="M60.5,36.5v-7.5c0-3-2.5-5.5-5.5-5.5h-2l2.3-3.9c.5-.8.6-1.8.3-2.7-.2-.9-.8-1.7-1.6-2.1L31.5,1.8c-1.7-1-3.8-.4-4.8,1.3l-11.8,20.4h-7.9c-3,0-5.5,2.5-5.5,5.5v28c0,3,2.5,5.5,5.5,5.5h48c3,0,5.5-2.5,5.5-5.5v-7.5h2v-13h-2ZM16.1,27.5L29.3,4.6h0c0-.1.2-.2.3-.2.1,0,.3,0,.4,0l2.5,1.4-12.5,21.7h-3.9ZM23.4,27.5l11.7-20.2,2.6,1.5-10.8,18.7h-3.5ZM55,59.5H7c-1.4,0-2.5-1.1-2.5-2.5v-28c0-1.4,1.1-2.5,2.5-2.5h6.2l-.6,1h-5.1v3h47v-3h-3.8l.6-1h3.7c1.4,0,2.5,1.1,2.5,2.5v7.5h-10.5c-3,0-5.5,2.5-5.5,5.5v2c0,3,2.5,5.5,5.5,5.5h10.5v7.5c0,1.4-1.1,2.5-2.5,2.5ZM44.5,42c0-1.4,1.1-2.5,2.5-2.5h12.5v7h-12.5c-1.4,0-2.5-1.1-2.5-2.5v-2ZM30.3,27.5l9.9-17.2,12.3,7.1c.1,0,.2.2.2.3,0,.1,0,.3,0,.4l-5.4,9.4h-16.9Z"/>
</svg>