<?xml version="1.0" encoding="UTF-8" standalone="no"?>
<!-- Created by User:Dancraggs for the English Wikipedia -->

<svg
   xmlns:dc="http://purl.org/dc/elements/1.1/"
   xmlns:cc="http://creativecommons.org/ns#"
   xmlns:rdf="http://www.w3.org/1999/02/22-rdf-syntax-ns#"
   xmlns:svg="http://www.w3.org/2000/svg"
   xmlns="http://www.w3.org/2000/svg"
   version="1.1"
   width="299.16882"
   height="125"
   id="svg4577">
  <defs
     id="defs4579" />
  <metadata
     id="metadata4582">
    <rdf:RDF>
      <cc:Work
         rdf:about="">
        <dc:format>image/svg+xml</dc:format>
        <dc:type
           rdf:resource="http://purl.org/dc/dcmitype/StillImage" />
        <dc:title></dc:title>
      </cc:Work>
    </rdf:RDF>
  </metadata>
  <g
     transform="translate(-194.26701,-402.70964)"
     id="layer1">
    <g
       id="g5093">
      <g
         transform="matrix(2.0218031,0,0,-2.0218031,281.2286,515.5671)"
         id="g4065">
        <path
           d="m 0,0 c -0.034,0.241 -0.051,0.49 -0.068,0.628 l -0.018,0 C -0.146,0.465 -0.258,0.215 -0.37,-0.009 l -0.929,-1.806 1.592,0 L 0,0 z m 1.686,-4.121 -0.765,0 c -0.181,0 -0.232,0.069 -0.258,0.206 l -0.224,1.265 -2.168,0 -0.68,-1.291 c -0.06,-0.111 -0.129,-0.18 -0.267,-0.18 l -0.766,0 c -0.137,0 -0.111,0.129 -0.068,0.206 l 3.08,5.576 c 0.06,0.103 0.138,0.172 0.267,0.172 l 0.688,0 c 0.13,0 0.198,-0.06 0.215,-0.155 l 1.128,-5.55 C 1.893,-4.001 1.833,-4.121 1.686,-4.121"
           id="path4067"
           style="fill:#0e2050;fill-opacity:1;fill-rule:nonzero;stroke:none" />
      </g>
      <g
         transform="matrix(2.0218031,0,0,-2.0218031,300.01883,519.06422)"
         id="g4069">
        <path
           d="m 0,0 -0.378,-2.176 c -0.026,-0.156 -0.104,-0.216 -0.25,-0.216 l -0.602,0 c -0.129,0 -0.19,0.043 -0.19,0.146 0,0.018 0,0.044 0.009,0.07 l 0.413,2.356 c 0.017,0.104 0.026,0.199 0.026,0.285 0,0.318 -0.112,0.533 -0.525,0.533 -0.327,0 -0.74,-0.172 -1.041,-0.387 l -0.456,-2.787 c -0.026,-0.156 -0.103,-0.216 -0.25,-0.216 l -0.567,0 c -0.13,0 -0.19,0.043 -0.19,0.146 0,0.018 0,0.044 0.009,0.07 l 0.413,2.356 c 0.017,0.113 0.034,0.224 0.034,0.319 0,0.293 -0.12,0.499 -0.507,0.499 -0.336,0 -0.715,-0.189 -1.033,-0.43 l -0.482,-2.744 c -0.025,-0.156 -0.112,-0.216 -0.258,-0.216 l -0.602,0 c -0.129,0 -0.19,0.043 -0.19,0.146 0,0.018 0,0.044 0.009,0.07 l 0.663,3.759 c 0.025,0.138 0.112,0.198 0.241,0.198 l 0.559,0 c 0.12,0 0.181,-0.034 0.181,-0.129 l 0,-0.034 -0.027,-0.216 c 0.405,0.311 0.904,0.491 1.352,0.491 0.524,0 0.843,-0.232 0.989,-0.559 0.456,0.37 1.05,0.559 1.575,0.559 0.628,0 0.972,-0.31 1.092,-0.645 C 0.069,1.101 0.086,0.938 0.086,0.748 0.086,0.534 0.052,0.293 0,0"
           id="path4071"
           style="fill:#0e2050;fill-opacity:1;fill-rule:nonzero;stroke:none" />
      </g>
      <g
         transform="matrix(2.0218031,0,0,-2.0218031,306.58039,516.95931)"
         id="g4073">
        <path
           d="m 0,0 c -0.335,0 -0.663,-0.155 -0.861,-0.37 -0.361,-0.378 -0.542,-0.972 -0.542,-1.445 0,-0.49 0.232,-0.869 0.723,-0.869 0.422,0 0.835,0.318 1.007,0.585 L 0.68,-0.138 C 0.533,-0.077 0.327,0 0,0 M 1.962,-3.028 C 1.944,-3.132 1.867,-3.235 1.772,-3.287 1.669,-3.338 1.342,-3.51 0.929,-3.51 c -0.447,0 -0.602,0.293 -0.611,0.585 l -0.017,0 c -0.327,-0.379 -0.826,-0.611 -1.308,-0.611 -1.032,0 -1.488,0.8 -1.488,1.661 0,0.748 0.31,1.531 0.843,2.073 0.404,0.405 1.015,0.654 1.626,0.654 0.559,0 1.101,-0.129 1.678,-0.387 C 1.764,0.413 1.815,0.361 1.79,0.232 L 1.342,-2.28 C 1.325,-2.366 1.316,-2.452 1.316,-2.512 c 0,-0.104 0.052,-0.164 0.138,-0.164 0.146,0 0.336,0.078 0.456,0.147 0.017,0.009 0.034,0.017 0.052,0.017 0.043,0 0.069,-0.034 0.069,-0.078 l 0,-0.017 -0.069,-0.421 z"
           id="path4075"
           style="fill:#0e2050;fill-opacity:1;fill-rule:nonzero;stroke:none" />
      </g>
      <g
         transform="matrix(2.0218031,0,0,-2.0218031,319.24637,515.82812)"
         id="g4077">
        <path
           d="M 0,0 -0.043,-0.241 C -0.06,-0.344 -0.095,-0.43 -0.181,-0.525 l -2.375,-2.736 0,-0.017 1.859,0 c 0.086,0 0.146,-0.026 0.146,-0.112 l 0,-0.034 -0.069,-0.405 c -0.017,-0.103 -0.094,-0.163 -0.197,-0.163 l -2.918,0 c -0.128,0 -0.18,0.069 -0.18,0.155 0,0.017 0.008,0.034 0.008,0.051 l 0.044,0.215 c 0.026,0.121 0.042,0.181 0.137,0.293 l 2.341,2.736 0,0.009 -1.592,0 c -0.121,0 -0.164,0.026 -0.164,0.12 0,0.026 0,0.06 0.009,0.103 L -3.08,0 c 0.017,0.103 0.086,0.181 0.198,0.181 l 2.719,0 c 0.128,0 0.172,-0.061 0.172,-0.13 C 0.009,0.034 0,0.017 0,0"
           id="path4079"
           style="fill:#0e2050;fill-opacity:1;fill-rule:nonzero;stroke:none" />
      </g>
      <g
         transform="matrix(2.0218031,0,0,-2.0218031,322.34418,514.34937)"
         id="g4081">
        <path
           d="m 0,0 c -0.258,0 -0.499,0.163 -0.499,0.439 0,0.37 0.344,0.645 0.697,0.645 0.267,0 0.481,-0.164 0.481,-0.439 C 0.679,0.284 0.344,0 0,0 m 0.396,-0.748 -0.662,-3.76 c -0.027,-0.156 -0.113,-0.216 -0.259,-0.216 l -0.602,0 c -0.129,0 -0.19,0.043 -0.19,0.146 0,0.018 0,0.044 0.009,0.07 l 0.663,3.76 c 0.025,0.146 0.12,0.197 0.258,0.197 l 0.602,0 c 0.12,0 0.189,-0.034 0.189,-0.137 0,-0.018 -0.008,-0.035 -0.008,-0.06"
           id="path4083"
           style="fill:#0e2050;fill-opacity:1;fill-rule:nonzero;stroke:none" />
      </g>
      <g
         transform="matrix(2.0218031,0,0,-2.0218031,332.79913,518.78581)"
         id="g4085">
        <path
           d="m 0,0 -0.413,-2.306 c -0.025,-0.146 -0.086,-0.223 -0.241,-0.223 l -0.619,0 c -0.129,0 -0.181,0.052 -0.181,0.155 0,0.017 0.009,0.043 0.009,0.068 l 0.413,2.341 c 0.017,0.111 0.034,0.249 0.034,0.344 0,0.309 -0.138,0.464 -0.542,0.464 -0.335,0 -0.783,-0.18 -1.092,-0.412 L -3.114,-2.314 C -3.14,-2.46 -3.209,-2.529 -3.355,-2.529 l -0.628,0 c -0.112,0 -0.181,0.052 -0.181,0.155 0,0.017 0.009,0.034 0.009,0.051 l 0.662,3.752 c 0.026,0.137 0.095,0.215 0.25,0.215 l 0.559,0 c 0.103,0 0.181,-0.026 0.181,-0.13 l 0,-0.034 -0.035,-0.223 c 0.448,0.318 0.989,0.498 1.489,0.498 0.8,0 1.119,-0.439 1.119,-1.144 C 0.07,0.49 0.026,0.164 0,0"
           id="path4087"
           style="fill:#0e2050;fill-opacity:1;fill-rule:nonzero;stroke:none" />
      </g>
      <g
         transform="matrix(2.0218031,0,0,-2.0218031,339.29053,516.94152)"
         id="g4089">
        <path
           d="m 0,0 c -0.834,0 -1.282,-0.93 -1.282,-1.661 0,-0.249 0.034,-0.533 0.189,-0.714 0.129,-0.154 0.344,-0.232 0.577,-0.232 0.335,0 0.74,0.198 0.955,0.413 l 0.344,1.97 C 0.602,-0.077 0.284,0 0,0 M 1.919,0.189 1.308,-3.158 C 1.05,-4.552 0.335,-5.326 -1.11,-5.326 c -0.422,0 -0.843,0.086 -1.23,0.266 -0.078,0.035 -0.112,0.087 -0.112,0.138 0,0.035 0.008,0.069 0.034,0.112 l 0.224,0.448 c 0.043,0.086 0.068,0.12 0.129,0.12 0.035,0 0.077,-0.009 0.129,-0.034 0.293,-0.13 0.628,-0.224 0.929,-0.224 0.809,0 1.101,0.507 1.231,1.144 l 0.069,0.345 c -0.302,-0.25 -0.818,-0.439 -1.197,-0.439 -0.533,0 -0.929,0.172 -1.178,0.49 -0.215,0.276 -0.31,0.68 -0.31,1.076 0,1.514 1.024,2.719 2.598,2.719 0.422,0 1.076,-0.181 1.54,-0.405 C 1.858,0.378 1.927,0.344 1.927,0.249 1.927,0.232 1.919,0.215 1.919,0.189"
           id="path4091"
           style="fill:#0e2050;fill-opacity:1;fill-rule:nonzero;stroke:none" />
      </g>
      <g
         transform="matrix(2.0218031,0,0,-2.0218031,351.66113,514.36655)"
         id="g4093">
        <path
           d="m 0,0 c -0.258,0 -0.49,0.164 -0.49,0.439 0,0.361 0.335,0.653 0.688,0.653 0.266,0 0.491,-0.171 0.491,-0.447 C 0.689,0.284 0.353,0 0,0 m 0.379,-0.731 -0.663,-3.786 c -0.137,-0.783 -0.404,-1.351 -0.869,-1.695 -0.335,-0.25 -0.74,-0.379 -1.325,-0.379 -0.163,0 -0.361,0.026 -0.559,0.06 -0.086,0.017 -0.121,0.06 -0.121,0.121 0,0.026 0.009,0.06 0.018,0.094 l 0.171,0.482 c 0.027,0.069 0.061,0.112 0.13,0.112 l 0.025,0 c 0.078,-0.008 0.155,-0.026 0.232,-0.026 0.396,0 0.801,0.138 0.991,0.422 0.103,0.154 0.189,0.378 0.241,0.663 l 0.688,3.932 c 0.025,0.128 0.12,0.189 0.241,0.189 l 0.636,0 c 0.112,0 0.172,-0.043 0.172,-0.138 0,-0.017 -0.008,-0.034 -0.008,-0.051"
           id="path4095"
           style="fill:#0e2050;fill-opacity:1;fill-rule:nonzero;stroke:none" />
      </g>
      <g
         transform="matrix(2.0218031,0,0,-2.0218031,358.49847,516.88916)"
         id="g4097">
        <path
           d="m 0,0 c -0.808,0 -1.325,-0.886 -1.325,-1.79 0,-0.516 0.155,-0.963 0.74,-0.963 0.921,0 1.342,1.032 1.342,1.806 C 0.757,-0.439 0.585,0 0,0 m -0.713,-3.571 c -1.154,0 -1.696,0.758 -1.696,1.73 0,1.436 1.016,2.658 2.538,2.658 1.153,0 1.713,-0.74 1.713,-1.686 0,-1.463 -0.99,-2.702 -2.555,-2.702"
           id="path4099"
           style="fill:#0e2050;fill-opacity:1;fill-rule:nonzero;stroke:none" />
      </g>
      <g
         transform="matrix(2.0218031,0,0,-2.0218031,370.60928,523.41331)"
         id="g4101">
        <path
           d="m 0,0 c -0.026,-0.163 -0.095,-0.241 -0.267,-0.241 l -0.55,0 c -0.096,0 -0.173,0.043 -0.173,0.147 0,0.077 0.018,0.163 0.026,0.24 -0.422,-0.301 -0.929,-0.49 -1.454,-0.49 -0.723,0 -1.127,0.344 -1.127,1.084 0,0.155 0.017,0.31 0.042,0.456 l 0.448,2.539 c 0.025,0.146 0.12,0.197 0.259,0.197 l 0.601,0 c 0.13,0 0.207,-0.051 0.181,-0.197 L -2.436,1.377 C -2.453,1.274 -2.461,1.162 -2.461,1.076 c 0,-0.353 0.181,-0.5 0.525,-0.5 0.352,0 0.8,0.199 1.075,0.414 l 0.482,2.745 c 0.026,0.146 0.112,0.197 0.249,0.197 l 0.612,0 c 0.128,0 0.206,-0.051 0.18,-0.197 L 0,0 z"
           id="path4103"
           style="fill:#0e2050;fill-opacity:1;fill-rule:nonzero;stroke:none" />
      </g>
      <g
         transform="matrix(2.0218031,0,0,-2.0218031,379.25672,515.58489)"
         id="g4105">
        <path
           d="m 0,0 -0.215,-0.662 c -0.026,-0.078 -0.06,-0.112 -0.13,-0.112 -0.094,0 -0.18,0.026 -0.275,0.026 -0.292,0 -0.628,-0.155 -0.895,-0.413 l -0.482,-2.736 c -0.025,-0.138 -0.102,-0.216 -0.249,-0.216 l -0.628,0 c -0.112,0 -0.172,0.052 -0.172,0.156 0,0.016 0.008,0.034 0.008,0.06 l 0.654,3.742 c 0.026,0.172 0.13,0.215 0.258,0.215 l 0.551,0 c 0.12,0 0.181,-0.034 0.181,-0.129 l 0,-0.034 -0.035,-0.276 c 0.319,0.336 0.654,0.551 1.136,0.551 0.069,0 0.155,-0.017 0.232,-0.034 C -0.009,0.121 0.008,0.095 0.008,0.06 0.008,0.044 0.008,0.017 0,0"
           id="path4107"
           style="fill:#0e2050;fill-opacity:1;fill-rule:nonzero;stroke:none" />
      </g>
      <g
         transform="matrix(2.0218031,0,0,-2.0218031,387.69452,518.78581)"
         id="g4109">
        <path
           d="M 0,0 -0.414,-2.306 C -0.439,-2.452 -0.5,-2.529 -0.654,-2.529 l -0.62,0 c -0.129,0 -0.18,0.052 -0.18,0.155 0,0.017 0.008,0.043 0.008,0.068 l 0.413,2.341 c 0.018,0.111 0.035,0.249 0.035,0.344 0,0.309 -0.138,0.464 -0.542,0.464 -0.336,0 -0.784,-0.18 -1.093,-0.412 L -3.115,-2.314 C -3.141,-2.46 -3.21,-2.529 -3.356,-2.529 l -0.628,0 c -0.112,0 -0.181,0.052 -0.181,0.155 0,0.017 0.009,0.034 0.009,0.051 l 0.662,3.752 c 0.026,0.137 0.095,0.215 0.25,0.215 l 0.559,0 c 0.103,0 0.181,-0.026 0.181,-0.13 l 0,-0.034 -0.035,-0.223 c 0.448,0.318 0.99,0.498 1.489,0.498 0.8,0 1.119,-0.439 1.119,-1.144 C 0.069,0.49 0.026,0.164 0,0"
           id="path4111"
           style="fill:#0e2050;fill-opacity:1;fill-rule:nonzero;stroke:none" />
      </g>
      <g
         transform="matrix(2.0218031,0,0,-2.0218031,394.09757,516.85418)"
         id="g4113">
        <path
           d="m 0,0 c -0.551,0 -1.024,-0.508 -1.162,-0.955 l 1.747,0 c 0.018,0.086 0.026,0.18 0.026,0.266 C 0.611,-0.276 0.465,0 0,0 M 1.531,-1.411 C 1.497,-1.618 1.42,-1.635 1.205,-1.635 l -2.513,0 c 0,-0.034 -0.008,-0.094 -0.008,-0.146 0,-0.62 0.387,-0.972 1.015,-0.972 0.361,0 0.774,0.085 1.11,0.206 0.034,0.009 0.069,0.026 0.103,0.026 0.06,0 0.094,-0.034 0.103,-0.104 l 0.043,-0.473 0,-0.026 c 0,-0.103 -0.06,-0.145 -0.163,-0.189 -0.456,-0.18 -0.998,-0.275 -1.446,-0.275 -1.161,0 -1.849,0.637 -1.858,1.669 -0.009,1.497 1.024,2.719 2.546,2.719 0.93,0 1.472,-0.551 1.472,-1.445 0,-0.173 -0.043,-0.585 -0.078,-0.766"
           id="path4115"
           style="fill:#0e2050;fill-opacity:1;fill-rule:nonzero;stroke:none" />
      </g>
      <g
         transform="matrix(2.0218031,0,0,-2.0218031,407.16489,515.88109)"
         id="g4117">
        <path
           d="m 0,0 -2.487,-4.457 c -0.568,-1.015 -1.11,-1.385 -2.142,-1.385 -0.164,0 -0.301,0.009 -0.448,0.043 -0.086,0.018 -0.112,0.061 -0.112,0.112 0,0.035 0.018,0.069 0.026,0.112 l 0.147,0.464 c 0.043,0.13 0.086,0.138 0.171,0.138 0.121,0 0.225,-0.026 0.345,-0.026 0.533,0 0.792,0.19 1.032,0.594 l 0.233,0.387 -0.852,4.036 c 0,0.017 -0.009,0.026 -0.009,0.042 0,0.086 0.061,0.147 0.155,0.147 l 0.826,0 c 0.12,0 0.172,-0.061 0.19,-0.147 l 0.455,-2.847 1.394,2.796 c 0.069,0.137 0.146,0.198 0.293,0.198 l 0.697,0 C 0,0.207 0.034,0.164 0.034,0.112 0.034,0.078 0.017,0.035 0,0"
           id="path4119"
           style="fill:#0e2050;fill-opacity:1;fill-rule:nonzero;stroke:none" />
      </g>
      <g
         transform="matrix(2.0218031,0,0,-2.0218031,413.86778,516.17647)"
         id="g4121">
        <path
           d="m 0,0 -0.189,-0.464 c -0.026,-0.061 -0.078,-0.095 -0.138,-0.095 -0.026,0 -0.06,0.008 -0.086,0.017 -0.283,0.112 -0.611,0.207 -0.92,0.207 -0.276,0 -0.62,-0.147 -0.62,-0.474 0,-0.567 1.712,-0.456 1.712,-1.574 0,-0.387 -0.198,-0.774 -0.473,-1.033 -0.37,-0.344 -0.904,-0.507 -1.445,-0.507 -0.371,0 -0.921,0.12 -1.24,0.301 -0.043,0.025 -0.077,0.052 -0.077,0.112 0,0.034 0.017,0.069 0.034,0.103 l 0.181,0.439 c 0.026,0.061 0.069,0.12 0.137,0.12 0.035,0 0.061,-0.008 0.096,-0.017 0.335,-0.138 0.662,-0.266 1.032,-0.266 0.327,0 0.722,0.146 0.722,0.533 0,0.637 -1.763,0.439 -1.763,1.626 0,0.946 0.955,1.437 1.79,1.437 0.387,0 0.86,-0.069 1.204,-0.258 C 0,0.181 0.034,0.155 0.034,0.104 0.034,0.069 0.018,0.035 0,0"
           id="path4123"
           style="fill:#0e2050;fill-opacity:1;fill-rule:nonzero;stroke:none" />
      </g>
      <g
         transform="matrix(2.0218031,0,0,-2.0218031,425.45695,516.17647)"
         id="g4125">
        <path
           d="m 0,0 -0.19,-0.464 c -0.025,-0.061 -0.077,-0.095 -0.137,-0.095 -0.026,0 -0.061,0.008 -0.087,0.017 -0.283,0.112 -0.61,0.207 -0.92,0.207 -0.276,0 -0.62,-0.147 -0.62,-0.474 0,-0.567 1.713,-0.456 1.713,-1.574 0,-0.387 -0.198,-0.774 -0.473,-1.033 -0.371,-0.344 -0.904,-0.507 -1.446,-0.507 -0.37,0 -0.921,0.12 -1.239,0.301 -0.044,0.025 -0.078,0.052 -0.078,0.112 0,0.034 0.017,0.069 0.034,0.103 l 0.182,0.439 c 0.025,0.061 0.068,0.12 0.137,0.12 0.035,0 0.06,-0.008 0.095,-0.017 0.335,-0.138 0.662,-0.266 1.032,-0.266 0.328,0 0.724,0.146 0.724,0.533 0,0.637 -1.765,0.439 -1.765,1.626 0,0.946 0.955,1.437 1.79,1.437 0.387,0 0.86,-0.069 1.205,-0.258 C 0,0.181 0.034,0.155 0.034,0.104 0.034,0.069 0.017,0.035 0,0"
           id="path4127"
           style="fill:#0e2050;fill-opacity:1;fill-rule:nonzero;stroke:none" />
      </g>
      <g
         transform="matrix(2.0218031,0,0,-2.0218031,432.12042,516.57659)"
         id="g4129">
        <path
           d="m 0,0 c -0.018,-0.103 -0.095,-0.163 -0.198,-0.163 l -0.964,0 -0.327,-1.85 c -0.051,-0.284 -0.06,-0.396 -0.06,-0.516 0,-0.284 0.137,-0.371 0.421,-0.371 0.198,0 0.379,0.052 0.568,0.104 0.026,0.009 0.052,0.017 0.087,0.017 0.059,0 0.094,-0.043 0.094,-0.103 l 0.009,-0.474 0,-0.008 c 0,-0.06 -0.026,-0.121 -0.112,-0.155 -0.37,-0.146 -0.714,-0.207 -1.041,-0.207 -0.603,0 -1.111,0.284 -1.111,0.956 0,0.241 0.043,0.438 0.087,0.688 l 0.343,1.919 -0.403,0 -0.009,0 c -0.086,0 -0.189,0.043 -0.172,0.146 l 0.077,0.396 c 0.017,0.103 0.077,0.172 0.189,0.172 l 0.439,0 0.172,0.938 c 0.026,0.146 0.112,0.189 0.25,0.206 0.181,0.026 0.482,0.078 0.646,0.078 0.094,0 0.163,-0.018 0.163,-0.129 0,-0.017 -0.009,-0.043 -0.009,-0.061 l -0.181,-1.032 0.973,0 c 0.078,0 0.155,-0.061 0.137,-0.147 L 0,0 z"
           id="path4131"
           style="fill:#0e2050;fill-opacity:1;fill-rule:nonzero;stroke:none" />
      </g>
      <g
         transform="matrix(2.0218031,0,0,-2.0218031,437.77215,516.95931)"
         id="g4133">
        <path
           d="m 0,0 c -0.336,0 -0.662,-0.155 -0.86,-0.37 -0.362,-0.378 -0.543,-0.972 -0.543,-1.445 0,-0.49 0.232,-0.869 0.723,-0.869 0.421,0 0.835,0.318 1.007,0.585 L 0.68,-0.138 C 0.533,-0.077 0.327,0 0,0 M 1.961,-3.028 C 1.944,-3.132 1.866,-3.235 1.773,-3.287 1.669,-3.338 1.342,-3.51 0.929,-3.51 c -0.447,0 -0.602,0.293 -0.611,0.585 l -0.017,0 c -0.327,-0.379 -0.826,-0.611 -1.308,-0.611 -1.033,0 -1.488,0.8 -1.488,1.661 0,0.748 0.309,1.531 0.843,2.073 0.404,0.405 1.015,0.654 1.626,0.654 0.559,0 1.101,-0.129 1.678,-0.387 C 1.763,0.413 1.815,0.361 1.789,0.232 L 1.342,-2.28 C 1.325,-2.366 1.316,-2.452 1.316,-2.512 c 0,-0.104 0.052,-0.164 0.138,-0.164 0.146,0 0.335,0.078 0.456,0.147 0.017,0.009 0.034,0.017 0.051,0.017 0.044,0 0.069,-0.034 0.069,-0.078 l 0,-0.017 -0.069,-0.421 z"
           id="path4135"
           style="fill:#0e2050;fill-opacity:1;fill-rule:nonzero;stroke:none" />
      </g>
      <g
         transform="matrix(2.0218031,0,0,-2.0218031,448.99499,515.58489)"
         id="g4137">
        <path
           d="m 0,0 -0.216,-0.662 c -0.025,-0.078 -0.059,-0.112 -0.129,-0.112 -0.094,0 -0.18,0.026 -0.275,0.026 -0.292,0 -0.628,-0.155 -0.895,-0.413 l -0.482,-2.736 c -0.025,-0.138 -0.102,-0.216 -0.25,-0.216 l -0.627,0 c -0.112,0 -0.172,0.052 -0.172,0.156 0,0.016 0.008,0.034 0.008,0.06 l 0.654,3.742 c 0.026,0.172 0.129,0.215 0.258,0.215 l 0.551,0 c 0.12,0 0.181,-0.034 0.181,-0.129 l 0,-0.034 -0.035,-0.276 c 0.319,0.336 0.654,0.551 1.136,0.551 0.069,0 0.155,-0.017 0.232,-0.034 C -0.009,0.121 0.008,0.095 0.008,0.06 0.008,0.044 0.008,0.017 0,0"
           id="path4139"
           style="fill:#0e2050;fill-opacity:1;fill-rule:nonzero;stroke:none" />
      </g>
      <g
         transform="matrix(2.0218031,0,0,-2.0218031,455.135,516.57659)"
         id="g4141">
        <path
           d="m 0,0 c -0.016,-0.103 -0.094,-0.163 -0.198,-0.163 l -0.963,0 -0.327,-1.85 c -0.052,-0.284 -0.061,-0.396 -0.061,-0.516 0,-0.284 0.138,-0.371 0.422,-0.371 0.198,0 0.379,0.052 0.568,0.104 0.026,0.009 0.052,0.017 0.086,0.017 0.061,0 0.095,-0.043 0.095,-0.103 l 0.008,-0.474 0,-0.008 c 0,-0.06 -0.026,-0.121 -0.112,-0.155 -0.369,-0.146 -0.714,-0.207 -1.041,-0.207 -0.602,0 -1.109,0.284 -1.109,0.956 0,0.241 0.043,0.438 0.086,0.688 l 0.344,1.919 -0.405,0 -0.008,0 c -0.086,0 -0.19,0.043 -0.172,0.146 l 0.077,0.396 c 0.017,0.103 0.078,0.172 0.189,0.172 l 0.439,0 0.172,0.938 c 0.026,0.146 0.112,0.189 0.25,0.206 0.18,0.026 0.482,0.078 0.645,0.078 0.095,0 0.164,-0.018 0.164,-0.129 0,-0.017 -0.009,-0.043 -0.009,-0.061 l -0.18,-1.032 0.972,0 C 0.009,0.551 0.086,0.49 0.07,0.404 L 0,0 z"
           id="path4143"
           style="fill:#0e2050;fill-opacity:1;fill-rule:nonzero;stroke:none" />
      </g>
      <g
         transform="matrix(2.0218031,0,0,-2.0218031,468.68937,518.75144)"
         id="g4145">
        <path
           d="m 0,0 -0.421,-2.374 c -0.027,-0.13 -0.052,-0.172 -0.164,-0.172 l -0.757,0 c -0.095,0 -0.129,0.017 -0.129,0.094 0,0.018 0,0.052 0.008,0.078 l 0.422,2.392 c 0.017,0.103 0.034,0.197 0.034,0.283 0,0.319 -0.129,0.525 -0.533,0.525 -0.336,0 -0.8,-0.18 -1.11,-0.412 l -0.491,-2.788 c -0.025,-0.13 -0.06,-0.172 -0.189,-0.172 l -0.74,0 c -0.086,0 -0.12,0.026 -0.12,0.094 0,0.018 0.008,0.035 0.008,0.061 l 1.006,5.687 c 0.027,0.155 0.096,0.198 0.225,0.215 l 0.611,0.078 c 0.034,0.008 0.077,0.008 0.111,0.008 0.077,0 0.121,-0.026 0.121,-0.103 0,-0.017 -0.009,-0.034 -0.009,-0.06 l -0.378,-2.16 c 0.413,0.301 0.989,0.464 1.445,0.464 0.784,0 1.127,-0.404 1.127,-1.049 C 0.077,0.534 0.052,0.275 0,0"
           id="path4147"
           style="fill:#0e2050;fill-opacity:1;fill-rule:nonzero;stroke:none" />
      </g>
      <g
         transform="matrix(2.0218031,0,0,-2.0218031,475.11102,516.85418)"
         id="g4149">
        <path
           d="m 0,0 c -0.551,0 -1.024,-0.508 -1.162,-0.955 l 1.747,0 C 0.602,-0.869 0.61,-0.775 0.61,-0.689 0.61,-0.276 0.464,0 0,0 M 1.531,-1.411 C 1.497,-1.618 1.419,-1.635 1.204,-1.635 l -2.512,0 c 0,-0.034 -0.009,-0.094 -0.009,-0.146 0,-0.62 0.387,-0.972 1.016,-0.972 0.361,0 0.774,0.085 1.109,0.206 0.034,0.009 0.07,0.026 0.104,0.026 0.06,0 0.094,-0.034 0.103,-0.104 l 0.043,-0.473 0,-0.026 c 0,-0.103 -0.061,-0.145 -0.164,-0.189 -0.456,-0.18 -0.998,-0.275 -1.445,-0.275 -1.162,0 -1.85,0.637 -1.858,1.669 -0.009,1.497 1.023,2.719 2.546,2.719 0.93,0 1.471,-0.551 1.471,-1.445 0,-0.173 -0.043,-0.585 -0.077,-0.766"
           id="path4151"
           style="fill:#0e2050;fill-opacity:1;fill-rule:nonzero;stroke:none" />
      </g>
      <g
         transform="matrix(2.0218031,0,0,-2.0218031,485.53342,515.58489)"
         id="g4153">
        <path
           d="m 0,0 -0.216,-0.662 c -0.025,-0.078 -0.06,-0.112 -0.129,-0.112 -0.094,0 -0.18,0.026 -0.275,0.026 -0.293,0 -0.628,-0.155 -0.895,-0.413 L -1.997,-3.897 C -2.022,-4.035 -2.1,-4.113 -2.247,-4.113 l -0.627,0 c -0.113,0 -0.172,0.052 -0.172,0.156 0,0.016 0.008,0.034 0.008,0.06 l 0.654,3.742 c 0.026,0.172 0.129,0.215 0.258,0.215 l 0.551,0 c 0.12,0 0.181,-0.034 0.181,-0.129 l 0,-0.034 -0.035,-0.276 c 0.319,0.336 0.654,0.551 1.136,0.551 0.069,0 0.155,-0.017 0.232,-0.034 C -0.009,0.121 0.008,0.095 0.008,0.06 0.008,0.044 0.008,0.017 0,0"
           id="path4155"
           style="fill:#0e2050;fill-opacity:1;fill-rule:nonzero;stroke:none" />
      </g>
      <g
         transform="matrix(2.0218031,0,0,-2.0218031,490.16133,516.85418)"
         id="g4157">
        <path
           d="m 0,0 c -0.551,0 -1.024,-0.508 -1.161,-0.955 l 1.747,0 c 0.016,0.086 0.025,0.18 0.025,0.266 C 0.611,-0.276 0.465,0 0,0 M 1.532,-1.411 C 1.498,-1.618 1.42,-1.635 1.205,-1.635 l -2.512,0 c 0,-0.034 -0.009,-0.094 -0.009,-0.146 0,-0.62 0.387,-0.972 1.015,-0.972 0.362,0 0.774,0.085 1.11,0.206 0.035,0.009 0.069,0.026 0.103,0.026 0.061,0 0.095,-0.034 0.104,-0.104 l 0.043,-0.473 0,-0.026 c 0,-0.103 -0.061,-0.145 -0.164,-0.189 -0.456,-0.18 -0.998,-0.275 -1.446,-0.275 -1.161,0 -1.849,0.637 -1.857,1.669 C -2.417,-0.422 -1.384,0.8 0.138,0.8 1.067,0.8 1.61,0.249 1.61,-0.645 1.61,-0.818 1.567,-1.23 1.532,-1.411"
           id="path4159"
           style="fill:#0e2050;fill-opacity:1;fill-rule:nonzero;stroke:none" />
      </g>
    </g>
    <g
       id="g5250">
      <g
         id="g5159">
        <g
           transform="matrix(2.0218031,0,0,-2.0218031,208.04762,485.22085)"
           id="g4161">
          <path
             d="m 0,0 c -0.702,0.34 -1.472,0.408 -2.423,0.408 l -1.495,0 0,-4.937 1.676,0 c 0.793,0 1.563,0.068 2.129,0.294 0.793,0.34 1.314,1.042 1.314,2.129 C 1.201,-1.042 0.725,-0.362 0,0 m -2.649,6.681 -1.269,0 0,-4.213 1.178,0 c 1.653,0 2.831,0.431 2.831,2.265 0,1.472 -1.155,1.948 -2.74,1.948 m 0.633,-13.452 -4.212,0 c -0.475,0 -0.588,0.181 -0.588,0.656 l 0,14.427 c 0,0.475 0.203,0.588 0.679,0.588 l 3.397,0 C 0.906,8.9 2.944,7.791 2.944,5.073 2.944,3.488 2.038,2.106 0.385,1.744 l 0,-0.023 C 2.537,1.563 4.167,0.09 4.167,-2.197 c 0,-3.669 -2.966,-4.574 -6.183,-4.574"
             id="path4163"
             style="fill:#0e2050;fill-opacity:1;fill-rule:nonzero;stroke:none" />
        </g>
        <g
           transform="matrix(2.0218031,0,0,-2.0218031,232.26902,477.30024)"
           id="g4165">
          <path
             d="m 0,0 -0.249,-1.607 c -0.023,-0.205 -0.136,-0.295 -0.317,-0.295 l -0.09,0 c -0.181,0.045 -0.408,0.068 -0.612,0.068 -0.77,0 -1.608,-0.408 -2.174,-1.087 l 0,-7.202 c 0,-0.362 -0.158,-0.566 -0.544,-0.566 l -1.653,0 c -0.362,0 -0.543,0.181 -0.543,0.566 l 0,7.066 0,2.786 c 0,0.453 0.226,0.566 0.566,0.566 l 1.449,0 c 0.362,0 0.567,-0.113 0.567,-0.43 l 0.022,-0.726 c 0.702,0.884 1.472,1.45 2.741,1.45 0.181,0 0.43,-0.045 0.633,-0.091 C -0.045,0.453 0.023,0.385 0.023,0.204 0.023,0.136 0.023,0.068 0,0"
             id="path4167"
             style="fill:#0e2050;fill-opacity:1;fill-rule:nonzero;stroke:none" />
        </g>
        <g
           transform="matrix(2.0218031,0,0,-2.0218031,239.18277,498.91108)"
           id="g4169">
          <path
             d="m 0,0 -1.585,0 c -0.408,0 -0.589,0.158 -0.589,0.566 l 0,9.897 c 0,0.385 0.227,0.52 0.589,0.52 l 1.585,0 c 0.363,0 0.566,-0.112 0.566,-0.52 l 0,-9.897 C 0.566,0.158 0.385,0 0,0 m -0.815,12.433 c -0.748,0 -1.54,0.499 -1.54,1.404 0,0.906 0.747,1.45 1.54,1.45 0.77,0 1.517,-0.521 1.517,-1.427 0,-0.883 -0.77,-1.427 -1.517,-1.427"
             id="path4171"
             style="fill:#0e2050;fill-opacity:1;fill-rule:nonzero;stroke:none" />
        </g>
        <g
           transform="matrix(2.0218031,0,0,-2.0218031,251.17813,499.46061)"
           id="g4173">
          <path
             d="m 0,0 c -1.178,0 -2.468,0.34 -3.488,0.793 -0.203,0.09 -0.271,0.226 -0.271,0.362 0,0.068 0.022,0.136 0.045,0.204 l 0.363,1.155 c 0.067,0.226 0.181,0.317 0.317,0.317 0.068,0 0.136,0 0.249,-0.045 0.996,-0.408 2.061,-0.703 2.853,-0.703 0.997,0 1.676,0.453 1.676,1.201 0,0.634 -0.43,0.973 -1.359,1.336 l -1.789,0.679 c -1.291,0.476 -2.333,1.473 -2.333,3.012 0,2.22 2.084,3.239 4.099,3.239 1.088,0 2.152,-0.181 3.284,-0.68 0.181,-0.09 0.272,-0.181 0.272,-0.317 0,-0.068 -0.022,-0.135 -0.045,-0.226 L 3.488,9.104 C 3.443,8.945 3.329,8.855 3.171,8.855 3.103,8.855 3.013,8.878 2.944,8.9 2.197,9.195 1.223,9.444 0.499,9.444 c -0.952,0 -1.427,-0.521 -1.427,-1.042 0,-0.498 0.249,-0.816 1.109,-1.155 L 2.219,6.409 C 3.42,5.911 4.371,4.982 4.371,3.51 4.371,1.132 2.31,0 0,0"
             id="path4175"
             style="fill:#0e2050;fill-opacity:1;fill-rule:nonzero;stroke:none" />
        </g>
        <g
           transform="matrix(2.0218031,0,0,-2.0218031,276.26992,498.40725)"
           id="g4177">
          <path
             d="m 0,0 c -0.702,-0.295 -1.63,-0.521 -2.537,-0.521 -1.154,0 -2.151,0.294 -2.717,0.951 -0.702,0.793 -0.725,1.721 -0.725,3.375 l 0,5.049 -1.064,0 c -0.43,0 -0.498,0.091 -0.498,0.567 l 0,0.86 c 0,0.272 0.136,0.453 0.407,0.453 l 1.155,0 0,2.469 c 0,0.385 0.204,0.498 0.567,0.544 l 1.63,0.203 0.114,0 c 0.294,0 0.43,-0.158 0.43,-0.498 l 0,-2.718 2.559,0 c 0.271,0 0.43,-0.09 0.43,-0.385 l 0,-1.064 c 0,-0.272 -0.181,-0.431 -0.453,-0.431 l -2.536,0 0,-5.185 c 0,-0.68 0.045,-1.178 0.294,-1.54 0.204,-0.295 0.521,-0.476 1.064,-0.476 0.567,0 1.042,0.136 1.45,0.272 0.09,0.023 0.158,0.045 0.227,0.045 0.158,0 0.248,-0.09 0.294,-0.272 L 0.318,0.566 C 0.34,0.498 0.34,0.476 0.34,0.43 0.34,0.203 0.227,0.09 0,0"
             id="path4179"
             style="fill:#0e2050;fill-opacity:1;fill-rule:nonzero;stroke:none" />
        </g>
        <g
           transform="matrix(2.0218031,0,0,-2.0218031,289.18176,480.4591)"
           id="g4181">
          <path
             d="m 0,0 c -2.015,0 -2.672,-1.744 -2.672,-3.556 0,-1.856 0.566,-3.691 2.582,-3.691 1.993,0 2.672,1.766 2.672,3.624 C 2.582,-1.767 1.993,0 0,0 m -0.113,-9.398 c -3.692,0 -5.39,2.491 -5.39,5.797 0,3.261 1.993,5.753 5.526,5.753 3.691,0 5.39,-2.446 5.39,-5.775 0,-3.262 -1.993,-5.775 -5.526,-5.775"
             id="path4183"
             style="fill:#0e2050;fill-opacity:1;fill-rule:nonzero;stroke:none" />
        </g>
        <g
           transform="matrix(2.0218031,0,0,-2.0218031,307.49687,498.91108)"
           id="g4185">
          <path
             d="m 0,0 -1.721,0 c -0.317,0 -0.521,0.158 -0.521,0.543 l 0,14.857 c 0,0.385 0.159,0.498 0.453,0.543 l 1.631,0.226 c 0.045,0 0.113,0.023 0.158,0.023 0.272,0 0.498,-0.136 0.498,-0.497 l 0,-15.129 C 0.498,0.181 0.317,0 0,0"
             id="path4187"
             style="fill:#0e2050;fill-opacity:1;fill-rule:nonzero;stroke:none" />
        </g>
      </g>
      <g
         id="g5143">
        <g
           transform="matrix(2.0218031,0,0,-2.0218031,374.43553,476.97917)"
           id="g4189">
          <path
             d="m 0,0 c -0.203,0.634 -0.34,1.11 -0.453,1.472 l -0.045,0 c -0.113,-0.385 -0.25,-0.86 -0.476,-1.495 l -1.607,-4.756 4.189,0 L 0,0 z m 6.341,-10.848 -2.015,0 c -0.476,0 -0.635,0.181 -0.77,0.543 l -1.178,3.33 -5.73,0 -1.177,-3.397 c -0.091,-0.295 -0.249,-0.476 -0.612,-0.476 l -2.015,0 c -0.227,0 -0.317,0.113 -0.317,0.295 0,0.068 0,0.158 0.045,0.248 l 5.526,14.676 c 0.113,0.272 0.272,0.453 0.611,0.453 l 1.812,0 c 0.339,0 0.543,-0.159 0.634,-0.408 l 5.549,-14.607 c 0.045,-0.114 0.045,-0.204 0.045,-0.294 0,-0.227 -0.114,-0.363 -0.408,-0.363"
             id="path4191"
             style="fill:#0e2050;fill-opacity:1;fill-rule:nonzero;stroke:none" />
        </g>
        <g
           transform="matrix(2.0218031,0,0,-2.0218031,394.94774,498.91108)"
           id="g4193">
          <path
             d="m 0,0 -1.585,0 c -0.408,0 -0.589,0.158 -0.589,0.566 l 0,9.897 c 0,0.385 0.227,0.52 0.589,0.52 l 1.585,0 c 0.363,0 0.566,-0.112 0.566,-0.52 l 0,-9.897 C 0.566,0.158 0.385,0 0,0 m -0.815,12.433 c -0.748,0 -1.54,0.499 -1.54,1.404 0,0.906 0.747,1.45 1.54,1.45 0.77,0 1.517,-0.521 1.517,-1.427 0,-0.883 -0.769,-1.427 -1.517,-1.427"
             id="path4195"
             style="fill:#0e2050;fill-opacity:1;fill-rule:nonzero;stroke:none" />
        </g>
        <g
           transform="matrix(2.0218031,0,0,-2.0218031,413.26224,477.30024)"
           id="g4197">
          <path
             d="m 0,0 -0.249,-1.607 c -0.023,-0.205 -0.136,-0.295 -0.317,-0.295 l -0.09,0 c -0.182,0.045 -0.408,0.068 -0.612,0.068 -0.77,0 -1.608,-0.408 -2.174,-1.087 l 0,-7.202 c 0,-0.362 -0.159,-0.566 -0.544,-0.566 l -1.653,0 c -0.362,0 -0.544,0.181 -0.544,0.566 l 0,7.066 0,2.786 c 0,0.453 0.227,0.566 0.567,0.566 l 1.449,0 c 0.362,0 0.566,-0.113 0.566,-0.43 l 0.024,-0.726 c 0.701,0.884 1.471,1.45 2.739,1.45 0.182,0 0.431,-0.045 0.634,-0.091 C -0.045,0.453 0.023,0.385 0.023,0.204 0.023,0.136 0.023,0.068 0,0"
             id="path4199"
             style="fill:#0e2050;fill-opacity:1;fill-rule:nonzero;stroke:none" />
        </g>
        <g
           transform="matrix(2.0218031,0,0,-2.0218031,429.60792,482.47403)"
           id="g4201">
          <path
             d="m 0,0 c -0.43,0.612 -1.065,0.929 -1.857,0.929 -0.838,0 -1.88,-0.544 -2.332,-1.11 l 0,-4.937 c 0.452,-0.611 1.359,-1.11 2.219,-1.11 0.792,0 1.427,0.362 1.812,0.839 0.566,0.701 0.815,1.652 0.815,2.763 C 0.657,-1.562 0.453,-0.634 0,0 m 2.038,-6.884 c -0.837,-0.952 -2.015,-1.541 -3.487,-1.541 -1.042,0 -2.084,0.386 -2.74,1.065 l 0,-5.073 c 0,-0.453 -0.204,-0.589 -0.589,-0.589 l -1.585,0 c -0.363,0 -0.544,0.204 -0.544,0.589 l 0,14.766 c 0,0.385 0.181,0.521 0.544,0.521 l 1.358,0 c 0.385,0 0.589,-0.091 0.612,-0.43 l 0.022,-0.612 c 0.657,0.747 1.948,1.314 3.171,1.314 1.495,0 2.537,-0.567 3.284,-1.382 0.974,-1.064 1.427,-2.65 1.427,-4.235 0,-1.721 -0.522,-3.284 -1.473,-4.393"
             id="path4203"
             style="fill:#0e2050;fill-opacity:1;fill-rule:nonzero;stroke:none" />
        </g>
        <g
           transform="matrix(2.0218031,0,0,-2.0218031,450.02996,480.4591)"
           id="g4205">
          <path
             d="m 0,0 c -2.016,0 -2.672,-1.744 -2.672,-3.556 0,-1.856 0.566,-3.691 2.582,-3.691 1.992,0 2.671,1.766 2.671,3.624 C 2.581,-1.767 1.993,0 0,0 m -0.113,-9.398 c -3.692,0 -5.39,2.491 -5.39,5.797 0,3.261 1.992,5.753 5.526,5.753 3.691,0 5.39,-2.446 5.39,-5.775 0,-3.262 -1.993,-5.775 -5.526,-5.775"
             id="path4207"
             style="fill:#0e2050;fill-opacity:1;fill-rule:nonzero;stroke:none" />
        </g>
        <g
           transform="matrix(2.0218031,0,0,-2.0218031,476.08209,477.30024)"
           id="g4209">
          <path
             d="m 0,0 -0.249,-1.607 c -0.023,-0.205 -0.136,-0.295 -0.317,-0.295 l -0.091,0 c -0.181,0.045 -0.407,0.068 -0.611,0.068 -0.77,0 -1.608,-0.408 -2.175,-1.087 l 0,-7.202 c 0,-0.362 -0.158,-0.566 -0.543,-0.566 l -1.653,0 c -0.363,0 -0.543,0.181 -0.543,0.566 l 0,7.066 0,2.786 c 0,0.453 0.226,0.566 0.565,0.566 l 1.45,0 c 0.362,0 0.566,-0.113 0.566,-0.43 l 0.023,-0.726 c 0.702,0.884 1.472,1.45 2.74,1.45 0.181,0 0.43,-0.045 0.634,-0.091 C -0.046,0.453 0.022,0.385 0.022,0.204 0.022,0.136 0.022,0.068 0,0"
             id="path4211"
             style="fill:#0e2050;fill-opacity:1;fill-rule:nonzero;stroke:none" />
        </g>
        <g
           transform="matrix(2.0218031,0,0,-2.0218031,492.74843,498.40725)"
           id="g4213">
          <path
             d="m 0,0 c -0.702,-0.295 -1.631,-0.521 -2.536,-0.521 -1.155,0 -2.152,0.294 -2.719,0.951 -0.701,0.793 -0.724,1.721 -0.724,3.375 l 0,5.049 -1.064,0 c -0.431,0 -0.499,0.091 -0.499,0.567 l 0,0.86 c 0,0.272 0.136,0.453 0.408,0.453 l 1.155,0 0,2.469 c 0,0.385 0.204,0.498 0.566,0.544 l 1.631,0.203 0.113,0 c 0.294,0 0.43,-0.158 0.43,-0.498 l 0,-2.718 2.56,0 c 0.271,0 0.43,-0.09 0.43,-0.385 l 0,-1.064 c 0,-0.272 -0.181,-0.431 -0.453,-0.431 l -2.537,0 0,-5.185 c 0,-0.68 0.046,-1.178 0.295,-1.54 0.204,-0.295 0.521,-0.476 1.064,-0.476 0.566,0 1.042,0.136 1.45,0.272 0.09,0.023 0.159,0.045 0.226,0.045 0.159,0 0.249,-0.09 0.295,-0.272 L 0.317,0.566 C 0.34,0.498 0.34,0.476 0.34,0.43 0.34,0.203 0.227,0.09 0,0"
             id="path4215"
             style="fill:#0e2050;fill-opacity:1;fill-rule:nonzero;stroke:none" />
        </g>
      </g>
      <g
         id="g5183">
        <g
           transform="matrix(2.0218031,0,0,-2.0218031,310.97477,402.70964)"
           id="g4217">
          <path
             d="m 0,0 3.948,-16.684 c 0,0 17.547,-10.176 14.704,-17.211 -3.12,-7.721 -17.026,-13.836 -17.026,-13.836 0,0 19.114,6.033 20.052,16.595 C 23.184,-14.153 0,0 0,0"
             id="path4219"
             style="fill:#0e2050;fill-opacity:1;fill-rule:nonzero;stroke:none" />
        </g>
        <g
           transform="matrix(2.0218031,0,0,-2.0218031,320.73818,445.62681)"
           id="g4221">
          <path
             d="m 0,0 2.441,-10.879 c 0,0 15.027,-4.811 9.388,-9.51 -5.787,-4.822 -15.027,-6.111 -15.027,-6.111 0,0 18.365,1.752 18.829,9.279 C 16.133,-9.075 0,0 0,0"
             id="path4223"
             style="fill:#0079c2;fill-opacity:1;fill-rule:nonzero;stroke:none" />
        </g>
        <g
           transform="matrix(2.0218031,0,0,-2.0218031,327.56244,474.57728)"
           id="g4225">
          <path
             d="m 0,0 1.478,-6.037 c 0,0 7.413,-1.394 7.438,-2.801 0.05,-2.881 -15.488,-3.345 -15.488,-3.345 0,0 17.473,-0.71 17.689,4.23 C 11.32,-3.313 0,0 0,0"
             id="path4227"
             style="fill:#57b14c;fill-opacity:1;fill-rule:nonzero;stroke:none" />
        </g>
      </g>
    </g>
  </g>
</svg>
