<?xml version="1.0" encoding="utf-8"?>
<!-- Generator: Adobe Illustrator 18.0.0, SVG Export Plug-In . SVG Version: 6.00 Build 0)  -->
<!DOCTYPE svg PUBLIC "-//W3C//DTD SVG 1.1//EN" "http://www.w3.org/Graphics/SVG/1.1/DTD/svg11.dtd">
<svg version="1.1" id="Layer_1" xmlns="http://www.w3.org/2000/svg" xmlns:xlink="http://www.w3.org/1999/xlink" x="0px" y="0px"
	 viewBox="0 0 465.7 124.7" enable-background="new 0 0 465.7 124.7" xml:space="preserve">
<polygon fill="#988A7D" points="91.4,107.5 93.6,107.5 95.4,121.4 95.5,121.4 101.5,107.5 103.8,107.5 105.9,121.4 105.9,121.4 
	111.8,107.5 113.8,107.5 106.6,124.2 104.4,124.2 102.3,110.1 102.2,110.1 96.1,124.2 93.9,124.2 "/>
<path fill="#988A7D" d="M114.7,106.4h1.8l-1.2,8.3h0c0.6-0.9,2.1-1.8,3.8-1.8c2.9,0,4,1.8,3.6,4.5l-1,6.8H120l0.9-6.6
	c0.3-1.8-0.4-3-2.1-3c-2.4,0-3.7,1.7-4,4.2l-0.8,5.4h-1.8L114.7,106.4z"/>
<path fill="#988A7D" d="M134.3,122.2c-1.5,1.7-3.2,2.3-5.2,2.3c-3.5,0-5.2-2.6-4.8-5.8c0.5-3.4,3.2-5.8,6.5-5.8c3.1,0,5,2.1,4.4,5.8
	l-0.1,0.6h-8.9c-0.1,1.9,1.1,3.5,3.1,3.5c1.6,0,2.7-0.6,3.8-1.7L134.3,122.2z M133.4,117.7c0.2-1.9-0.9-3.1-2.9-3.1
	c-2,0-3.5,1.2-4,3.1H133.4z"/>
<path fill="#988A7D" d="M137.3,115.8c0.1-1,0.2-1.9,0.3-2.6h1.7c-0.1,0.6-0.1,1.2-0.2,1.8h0c0.6-1.1,2.1-2.1,4-2.1
	c0.2,0,0.5,0,0.8,0.1l-0.4,1.9c-0.3-0.1-0.6-0.1-1-0.1c-2.2,0-3.5,1.6-3.8,4.1l-0.8,5.4h-1.8L137.3,115.8z"/>
<path fill="#988A7D" d="M153,122.2c-1.5,1.7-3.2,2.3-5.2,2.3c-3.5,0-5.2-2.6-4.8-5.8c0.5-3.4,3.2-5.8,6.5-5.8c3.1,0,5,2.1,4.4,5.8
	l-0.1,0.6h-8.9c-0.1,1.9,1.1,3.5,3.1,3.5c1.6,0,2.7-0.6,3.8-1.7L153,122.2z M152.1,117.7c0.2-1.9-0.9-3.1-2.9-3.1
	c-2,0-3.5,1.2-4,3.1H152.1z"/>
<path fill="#988A7D" d="M170.4,110.5c-0.5-1.1-1.6-1.5-2.8-1.5c-1.7,0-3.7,0.8-4,2.8c-0.2,1.5,0.5,2.2,3.1,3.1
	c2.5,0.8,4.8,1.7,4.3,5c-0.5,3.3-3.6,4.9-6.6,4.9c-1.9,0-3.9-0.6-4.8-2.3l1.9-1.4c0.5,1.2,1.8,1.9,3.3,1.9c1.7,0,3.8-1,4.1-2.9
	c0.3-2.1-1.1-2.4-3.9-3.4c-2.2-0.8-3.9-1.8-3.5-4.6c0.4-3.2,3.4-4.8,6.4-4.8c1.9,0,3.4,0.5,4.4,2L170.4,110.5z"/>
<path fill="#988A7D" d="M181.2,116c-0.6-0.9-1.5-1.3-2.6-1.3c-2.5,0-4,1.8-4.3,4.1c-0.3,2.3,0.9,4.1,3.1,4.1c1.2,0,2.2-0.4,3-1.4
	l1.2,1.3c-1.2,1.2-2.8,1.8-4.4,1.8c-3.4,0-5.4-2.4-4.9-5.8c0.5-3.3,3.1-5.8,6.5-5.8c1.6,0,3.1,0.5,4,1.7L181.2,116z"/>
<path fill="#988A7D" d="M189.2,112.9c3.4,0,5.6,2.4,5.1,5.8c-0.5,3.4-3.3,5.8-6.7,5.8c-3.4,0-5.6-2.4-5.1-5.8
	C183,115.3,185.8,112.9,189.2,112.9 M187.8,122.8c2.4,0,4.2-1.8,4.5-4.1c0.3-2.3-1-4.1-3.3-4.1s-4.2,1.8-4.5,4.1
	C184.2,121,185.5,122.8,187.8,122.8"/>
<path fill="#988A7D" d="M202.6,114.8h-3.3l-0.8,5.5c-0.2,1.4-0.4,2.5,1.3,2.5c0.5,0,1.2-0.1,1.7-0.4l-0.2,1.7
	c-0.7,0.3-1.5,0.4-2.2,0.4c-2.6,0-2.8-1.4-2.5-3.7l0.9-6.1h-2.4l0.2-1.6h2.4l0.4-3.1h1.8l-0.4,3.1h3.3L202.6,114.8z"/>
<polygon fill="#988A7D" points="205.1,106.4 206.9,106.4 204.4,124.2 202.6,124.2 "/>
<path fill="#988A7D" d="M208.1,114.6c1.3-1.2,3-1.7,4.6-1.7c3.3,0,4.4,1.6,4,4.7l-0.7,4.7c-0.1,0.6-0.1,1.3-0.1,1.9h-1.8
	c0-0.5,0-1.2,0.1-1.7h0c-0.9,1.1-2.2,1.9-3.9,1.9c-2.2,0-3.9-1.1-3.6-3.3c0.5-3.7,4.8-3.9,7.5-3.9h0.7l0-0.3
	c0.2-1.6-0.7-2.4-2.4-2.4c-1.2,0-2.5,0.4-3.4,1.2L208.1,114.6z M212.8,118.9c-2.3,0-3.9,0.6-4.2,2.1c-0.2,1.4,0.8,1.9,2.2,1.9
	c2.1,0,3.4-1.5,3.7-3.3l0.1-0.7H212.8z"/>
<path fill="#988A7D" d="M219.2,115.8c0.1-1,0.2-1.9,0.3-2.6h1.7c-0.1,0.6-0.1,1.2-0.2,1.8h0c0.6-1.1,2.1-2.1,4-2.1
	c2.9,0,4,1.8,3.6,4.5l-1,6.8h-1.8l0.9-6.6c0.3-1.8-0.4-3-2.1-3c-2.4,0-3.7,1.7-4,4.2l-0.8,5.4H218L219.2,115.8z"/>
<path fill="#988A7D" d="M239.4,122.3L239.4,122.3c-0.9,1.3-2.6,2.2-4.6,2.2c-3.1,0-5.2-2.5-4.7-5.8c0.5-3.4,3.1-5.8,6.6-5.8
	c1.6,0,2.9,0.7,3.7,1.9h0l1.2-8.4h1.8l-2.5,17.8h-1.8L239.4,122.3z M236.6,114.6c-2.4,0-4.2,1.8-4.5,4.1c-0.3,2.3,0.9,4.1,3.3,4.1
	s4.2-1.8,4.5-4.1C240.2,116.4,238.9,114.6,236.6,114.6"/>
<path fill="#988A7D" d="M249.8,115.8c0.1-1,0.2-1.9,0.3-2.6h1.7c-0.1,0.6-0.1,1.2-0.2,1.8h0c0.6-1.1,2.1-2.1,4-2.1
	c2.4,0,2.9,1.3,3.2,2.1c1-1.3,2.1-2.1,3.8-2.1c3.2,0,4,1.8,3.6,4.6l-0.9,6.7h-1.8l0.9-6.6c0.2-1.5-0.1-3-2.3-3c-1.6,0-3,1.3-3.3,3.3
	l-0.9,6.4H256l0.9-6.3c0.4-2.4-0.1-3.4-1.7-3.4c-2.4,0-3.7,1.7-4,4.2l-0.8,5.4h-1.8L249.8,115.8z"/>
<path fill="#988A7D" d="M277.7,122.2c-1.5,1.7-3.2,2.3-5.2,2.3c-3.5,0-5.2-2.6-4.8-5.8c0.5-3.4,3.2-5.8,6.5-5.8c3.1,0,5,2.1,4.4,5.8
	l-0.1,0.6h-8.9c-0.1,1.9,1.1,3.5,3.1,3.5c1.6,0,2.7-0.6,3.8-1.7L277.7,122.2z M276.7,117.7c0.2-1.9-0.9-3.1-2.9-3.1s-3.5,1.2-4,3.1
	H276.7z"/>
<path fill="#988A7D" d="M289.7,122.2c-1.5,1.7-3.2,2.3-5.2,2.3c-3.5,0-5.2-2.6-4.8-5.8c0.5-3.4,3.2-5.8,6.5-5.8c3.1,0,5,2.1,4.4,5.8
	l-0.1,0.6h-8.9c-0.1,1.9,1.1,3.5,3.1,3.5c1.6,0,2.7-0.6,3.8-1.7L289.7,122.2z M288.7,117.7c0.2-1.9-0.9-3.1-2.9-3.1
	c-2,0-3.5,1.2-4,3.1H288.7z"/>
<path fill="#988A7D" d="M298.9,114.8h-3.3l-0.8,5.5c-0.2,1.4-0.4,2.5,1.3,2.5c0.5,0,1.2-0.1,1.7-0.4l-0.2,1.7
	c-0.7,0.3-1.5,0.4-2.2,0.4c-2.6,0-2.8-1.4-2.5-3.7l0.9-6.1h-2.4l0.2-1.6h2.4l0.4-3.1h1.8l-0.4,3.1h3.3L298.9,114.8z"/>
<path fill="#988A7D" d="M299.3,121.3c0.6,0.9,1.3,1.5,2.6,1.5c1.2,0,2.5-0.5,2.7-1.7c0.2-1.2-1-1.5-2.1-1.7c-2-0.5-3.8-0.9-3.4-3.2
	c0.3-2.1,2.5-3.3,4.6-3.3c1.6,0,2.9,0.6,3.5,2l-1.7,1c-0.4-0.8-1.1-1.3-2.1-1.3c-1,0-2.2,0.5-2.4,1.5c-0.1,0.9,1.1,1.3,2.6,1.6
	c1.9,0.4,3.4,1.1,3.1,3.3c-0.4,2.5-2.7,3.5-4.9,3.5c-1.9,0-3.1-0.5-4-2.1L299.3,121.3z"/>
<path fill="#988A7D" d="M320.3,114.8H317l-0.8,5.5c-0.2,1.4-0.4,2.5,1.3,2.5c0.5,0,1.2-0.1,1.7-0.4l-0.2,1.7
	c-0.7,0.3-1.5,0.4-2.2,0.4c-2.6,0-2.8-1.4-2.5-3.7l0.9-6.1h-2.4l0.2-1.6h2.4l0.4-3.1h1.8l-0.4,3.1h3.3L320.3,114.8z"/>
<path fill="#988A7D" d="M322.6,106.4h1.8l-1.2,8.3h0c0.6-0.9,2.1-1.8,3.8-1.8c2.9,0,4,1.8,3.6,4.5l-1,6.8h-1.8l0.9-6.6
	c0.3-1.8-0.4-3-2.1-3c-2.4,0-3.7,1.7-4,4.2l-0.8,5.4h-1.8L322.6,106.4z"/>
<path fill="#988A7D" d="M342.2,122.2c-1.5,1.7-3.2,2.3-5.2,2.3c-3.5,0-5.2-2.6-4.8-5.8c0.5-3.4,3.2-5.8,6.5-5.8c3.1,0,5,2.1,4.4,5.8
	l-0.1,0.6h-8.9c-0.1,1.9,1.1,3.5,3.1,3.5c1.6,0,2.7-0.6,3.8-1.7L342.2,122.2z M341.2,117.7c0.2-1.9-0.9-3.1-2.9-3.1
	c-2,0-3.5,1.2-4,3.1H341.2z"/>
<polygon fill="#988A7D" points="361.2,124.2 359.4,124.2 357.5,115.7 357.4,115.7 353.4,124.2 351.6,124.2 349.5,113.2 351.6,113.2 
	352.9,121.7 352.9,121.7 357,113.2 358.9,113.2 360.6,121.7 360.7,121.7 364.4,113.2 366.3,113.2 "/>
<path fill="#988A7D" d="M372.5,112.9c3.4,0,5.6,2.4,5.1,5.8c-0.5,3.4-3.3,5.8-6.7,5.8c-3.4,0-5.6-2.4-5.1-5.8
	C366.3,115.3,369.1,112.9,372.5,112.9 M371.2,122.8c2.4,0,4.2-1.8,4.5-4.1c0.3-2.3-1-4.1-3.3-4.1c-2.4,0-4.2,1.8-4.5,4.1
	C367.5,121,368.8,122.8,371.2,122.8"/>
<path fill="#988A7D" d="M379.7,115.8c0.1-1,0.2-1.9,0.3-2.6h1.7c-0.1,0.6-0.1,1.2-0.2,1.8h0c0.6-1.1,2.1-2.1,4-2.1
	c0.2,0,0.5,0,0.8,0.1l-0.4,1.9c-0.3-0.1-0.6-0.1-1-0.1c-2.2,0-3.5,1.6-3.8,4.1l-0.8,5.4h-1.8L379.7,115.8z"/>
<polygon fill="#988A7D" points="388.4,106.4 390.2,106.4 387.7,124.2 385.9,124.2 "/>
<path fill="#988A7D" d="M399.7,122.3L399.7,122.3c-0.9,1.3-2.6,2.2-4.6,2.2c-3.1,0-5.2-2.5-4.7-5.8c0.5-3.4,3.1-5.8,6.6-5.8
	c1.6,0,2.9,0.7,3.7,1.9h0l1.2-8.4h1.8l-2.5,17.8h-1.8L399.7,122.3z M396.8,114.6c-2.4,0-4.2,1.8-4.5,4.1c-0.3,2.3,0.9,4.1,3.3,4.1
	s4.2-1.8,4.5-4.1C400.5,116.4,399.2,114.6,396.8,114.6"/>
<path fill="#7E0C6E" d="M453.8,8.6l2.9-6.1c-2.2-0.9-4.6-1.5-7-2L448.4,3l-2.3-0.3l0.8-2.6c-0.2,0-0.4,0-0.6,0
	c-0.9,0-2.1-0.1-2.8-0.1c-0.5,0-1.3,0-2,0c-0.4,0-0.7,0.1-1.1,0.1l0.8,2.6L438.7,3l-1.1-2.4c-2.4,0.4-4.8,1.1-7,2.1l2.6,5.8
	C437.9,7.4,445.7,6.6,453.8,8.6"/>
<polygon fill="#7E0C6E" points="26.2,86.9 26,94.4 0,94.4 0,56.1 25.3,56.1 25.4,63.7 8.6,63.7 8.6,71.3 22.8,71.3 22.8,78.2 
	8.6,78.2 8.6,86.9 "/>
<path fill="#7E0C6E" d="M48,94.4l-0.8-2.7L47,91.7c-1.8,2.1-4.5,3.3-8.3,3.3c-8,0-11.8-5.2-11.8-16.2c0-10.1,3.9-15.9,11.7-15.9
	c2.9,0,5.5,1,7.5,2.8l0.1-0.1l-0.1-4.1v-6.8l7.9-0.4v40.1H48z M46.2,72.3c-1-1.4-2.9-2.3-5.2-2.3c-4.3,0-5.9,2.2-5.9,9.2
	c0,7.2,1.4,9.4,5.9,9.4c2.9,0,4.5-1.3,5.3-2.6V72.3z"/>
<path fill="#7E0C6E" d="M62,60.2c-3.1,0-4.5-0.9-4.5-3.4c0-2.2,1.5-3.4,4.5-3.4c3.1,0,4.5,1.2,4.5,3.4C66.5,59,65.1,60.2,62,60.2
	 M57.9,94.4V63.7l8.1-0.4v31.1H57.9z"/>
<path fill="#7E0C6E" d="M87.9,94.4V74.7c0-3.4-1.7-4.8-5-4.8c-2,0-4.1,0.9-5.2,2.3v22.1h-8V63.6l5.7-0.4l1.2,2.7
	c2.3-2,5.3-3.1,8.5-3.1c6.5,0,10.7,4.1,10.7,11.8v19.7H87.9z"/>
<path fill="#7E0C6E" d="M113.1,95c-3.5,0-6.3-1.3-8.2-3.2l-1,2.6h-5.4V54.7l7.9-0.4v7.2l-0.1,4.1l0.2,0.1c2.1-1.9,4.8-2.8,7.6-2.8
	c7.1,0,11.6,4.6,11.6,15.9C125.7,90.1,121,95,113.1,95 M111.7,69.8c-2.3,0-4.2,1-5.4,2.6V86c1,1.5,2.8,2.7,5.4,2.7
	c3.6,0,5.7-1.6,5.7-9.6C117.5,71.3,115.5,69.8,111.7,69.8"/>
<path fill="#7E0C6E" d="M153.8,83.5c0,7.5-4.2,11.5-13,11.5c-8.8,0-13-4.1-13-11.5v-20h7.9v19.8c0,3.1,1.6,4.6,5.1,4.6
	c3.5,0,5.1-1.5,5.1-4.6V63.5h7.9V83.5z"/>
<path fill="#7E0C6E" d="M156.3,94.4V63.7l6.3-0.3l0.7,5.1h0.2c1.9-3.7,4.9-5.6,8.5-5.6c1.4,0,2.5,0.2,3.4,0.5l-0.5,7.8
	c-1-0.3-2.1-0.5-3.4-0.5c-4.1,0-7.2,3-7.2,8.2v15.5H156.3z"/>
<path fill="#7E0C6E" d="M184,81.6c-0.7,0.4-1.1,0.9-1.1,1.5c0,0.8,0.7,1.3,2,1.4l7.3,0.4c7.2,0.4,10,3.1,10,7.9
	c0,6.2-4.1,10-14.2,10c-8.9,0-12.5-3.5-12.5-8.2c0-1.8,0.8-3.6,2.4-5c-1.3-1-2.3-2.4-2.3-4.5c0-2,1.2-4.1,3.7-5.3
	c-2-1.5-3.4-3.8-3.4-7.3c0-5.6,3.3-9.6,11.8-9.6c2.7,0,5.5,0.4,7.7,1.7l5.3-1.7l1.6,3.8l-3.3,2.6c0.3,0.9,0.5,2,0.5,3.3
	c0,6-3.4,9.4-11.7,9.4C186.5,81.9,185.2,81.8,184,81.6 M183.6,91.1c-0.8,0.8-1.3,1.7-1.3,2.5c0,2.1,1.6,3.2,5.7,3.2
	c5.8,0,7.2-1.1,7.2-2.9c0-1.4-0.8-2.1-4.3-2.3L183.6,91.1z M183.8,72.7c0,3,1.6,3.8,3.9,3.8c3.3,0,4.3-1,4.3-3.8
	c0-2.8-1.2-3.8-4.1-3.8C184.9,68.9,183.8,70,183.8,72.7"/>
<path fill="#7E0C6E" d="M222.2,94.4V74.7c0-3.2-1.6-4.8-4.9-4.8c-2.3,0-4.3,1-5.3,2.3v22.1h-7.9V54.7l7.9-0.4v7l-0.1,4.1l0.2,0.1
	c2.3-1.9,5.1-2.7,7.7-2.7c6.5,0,10.4,4.4,10.4,11.8v19.7H222.2z"/>
<path fill="#7E0C6E" d="M267.1,86.9h-13.9l-2.1,7.4H242l13.2-38.3h10.3l13.4,38.3h-9.6L267.1,86.9z M259.1,66.6l-3.8,13.1h9.7
	l-3.7-13.1l-1-4h-0.1L259.1,66.6z"/>
<path fill="#7E0C6E" d="M284.1,60.2c-3.1,0-4.5-0.9-4.5-3.4c0-2.2,1.5-3.4,4.5-3.4c3.1,0,4.5,1.2,4.5,3.4
	C288.6,59,287.2,60.2,284.1,60.2 M280,94.4V63.7l8.1-0.4v31.1H280z"/>
<path fill="#7E0C6E" d="M291.2,94.4V63.7l6.3-0.3l0.7,5.1h0.2c1.9-3.7,4.9-5.6,8.5-5.6c1.4,0,2.6,0.2,3.4,0.5l-0.5,7.8
	c-1-0.3-2.1-0.5-3.4-0.5c-4.1,0-7.2,3-7.2,8.2v15.5H291.2z"/>
<path fill="#7E0C6E" d="M327.2,94.9c-2.8,0-5.2-0.6-7.2-2.5l-0.2,0l0.1,4.1v5.7h-8V63.7l5.6-0.4l1.5,2.7c2.1-2,5.2-3.1,8.4-3.1
	c7.6,0,11.8,4.1,11.8,16C339.2,89.7,334.5,94.9,327.2,94.9 M325.3,70c-2.3,0-4.2,0.9-5.3,2.5v13.3c1,1.5,2.7,2.7,5.2,2.7
	c3.5,0,5.9-1.7,5.9-9.5C331,71.7,329.3,70,325.3,70"/>
<path fill="#7E0C6E" d="M354.4,95.1c-9.8,0-14.2-4.7-14.2-16.1c0-11.3,4.4-16.1,14.2-16.1c9.8,0,14.1,4.8,14.1,16.1
	C368.5,90.4,364.2,95.1,354.4,95.1 M354.4,88.6c4.3,0,5.9-2,5.9-9.6c0-7.5-1.6-9.6-5.9-9.6c-4.4,0-6,2-6,9.6
	C348.4,86.6,350.1,88.6,354.4,88.6"/>
<path fill="#7E0C6E" d="M370.9,94.4V63.7l6.3-0.3l0.7,5.7h0.2c1.9-3.7,4.2-5.6,7.8-5.6c1.4,0,1.9-0.1,4.1-0.1l0.6,6h-5.2
	c-4.1,0-6.4,4.3-6.4,9.5v15.5H370.9z"/>
<path fill="#7E0C6E" d="M389.3,63.5l1.3-7l6.2-0.6v7.5h6.9v5.9h-6.9v15.8c0,2.4,1.2,3.4,3.7,3.4c0.8,0,1.9-0.2,2.4-0.4l0.5,5.8
	c-1.1,0.5-3.1,0.9-5.3,0.9c-6.2,0-9.2-3.6-9.2-9.4V69.4"/>
<path fill="#7E0C6E" d="M414.1,91.5c4.2-4.6,7.7-9,10.7-13.4c14,2.9,27.7,7.2,40.9,12.8c-7.9-1.2-15.9-1.8-23.8-1.8
	C432.5,89.1,423.1,89.9,414.1,91.5"/>
<path fill="#7E0C6E" d="M465.7,86.2c-12-7-23.2-14.6-33.1-22.7c1.3-3.3,2.3-6.7,3-10.1C444.6,66.4,454.5,77.2,465.7,86.2"/>
<path fill="#7E0C6E" d="M460,85.8c-11-4.2-22.3-7.6-33.8-10c2-3.3,3.8-6.6,5.3-9.8C440.2,73,449.8,79.7,460,85.8"/>
<path fill="#7E0C6E" d="M458.8,76.7c-8.2-7.8-15.6-16.7-22.6-27.2c0.4-2.6,0.5-5.2,0.5-7.8c0-0.8,0-1.6,0-2.4
	C441.8,51,449.5,64,458.8,76.7"/>
<path fill="#7E0C6E" d="M457.1,69.5c-10-14.5-17.6-29-21.5-40.8c-1.6-8.6-4.5-14.3-6-16.8c3.7-0.9,7.6-1.5,11.4-1.6h0.6
	c0.8,0,1.4,0,1.8,0c0.3,0,0.7,0,1.2,0c0,0,0.2,0,0.2,0c-1.1,5.4-4.2,27.4,10.6,55.8C455.9,67.2,456.5,68.4,457.1,69.5"/>
<path fill="#7E0C6E" d="M450.2,45.9c-5.4-18.6-3.3-31.9-2.5-35.4c3.2,0.3,6.3,0.9,9.4,1.7c-2.4,4-7,13.9-7,29.5
	C450.1,43.1,450.1,44.5,450.2,45.9"/>
</svg>
