<?xml version="1.0" encoding="UTF-8"?>
<svg id="Layer_1" data-name="Layer 1" xmlns="http://www.w3.org/2000/svg" xmlns:xlink="http://www.w3.org/1999/xlink" viewBox="0 0 539.89 226.77">
  <defs>
    <style>
      .cls-1 {
        fill: url(#linear-gradient);
      }

      .cls-2 {
        fill: #041e42;
      }

      .cls-3 {
        fill: #71c5e8;
      }

      .cls-4 {
        fill: #7c878e;
      }

      .cls-5 {
        fill: url(#linear-gradient-3);
      }

      .cls-6 {
        fill: url(#linear-gradient-2);
      }
    </style>
    <linearGradient id="linear-gradient" x1="12.21" y1="47.98" x2="162.14" y2="197.91" gradientTransform="translate(0 228.62) scale(1 -1)" gradientUnits="userSpaceOnUse">
      <stop offset="0" stop-color="#7c878e"/>
      <stop offset=".1" stop-color="#859096"/>
      <stop offset=".26" stop-color="#9da7ab"/>
      <stop offset=".47" stop-color="#c5ccce"/>
      <stop offset=".69" stop-color="#f5faf8"/>
      <stop offset=".75" stop-color="#e4eae9"/>
      <stop offset=".86" stop-color="#b7bfc1"/>
      <stop offset="1" stop-color="#7c878e"/>
    </linearGradient>
    <linearGradient id="linear-gradient-2" x1="75.09" y1="2.88" x2="75.28" y2="3.07" gradientTransform="translate(0 228.62) scale(1 -1)" gradientUnits="userSpaceOnUse">
      <stop offset="0" stop-color="#85cff4"/>
      <stop offset=".09" stop-color="#91d3f5"/>
      <stop offset=".37" stop-color="#b1dff8"/>
      <stop offset=".53" stop-color="#bde3f9"/>
      <stop offset=".67" stop-color="#b0def8"/>
      <stop offset=".94" stop-color="#8ed2f5"/>
      <stop offset="1" stop-color="#85cff4"/>
    </linearGradient>
    <linearGradient id="linear-gradient-3" x1="54.61" y1="19.25" x2="97.29" y2="61.93" gradientTransform="translate(0 228.62) scale(1 -1)" gradientUnits="userSpaceOnUse">
      <stop offset="0" stop-color="#71c5e8"/>
      <stop offset=".23" stop-color="#99d5f0"/>
      <stop offset=".44" stop-color="#bae1f7"/>
      <stop offset=".56" stop-color="#c6e6f9"/>
      <stop offset=".66" stop-color="#b9e1f6"/>
      <stop offset=".83" stop-color="#97d4f0"/>
      <stop offset="1" stop-color="#71c5e8"/>
    </linearGradient>
  </defs>
  <path class="cls-4" d="m76.71,226s-24.77-3.38-29.37-49.76c-4.52-45.56,62.48-130.85,79.73-157.05,18.72-28.44-6.46-17.77-17.75-14.54C98.02,7.88,30.89,30.5,6.36,89.64c-21.41,51.61,13.5,123.95,70.35,136.36"/>
  <g>
    <path class="cls-3" d="m75.44,225.71c-.06-.02-.12-.04-.18-.05-.11-.03-.22-.05-.34-.08.17.04.35.09.52.13Z"/>
    <path class="cls-3" d="m57.39,131.53c-7.09,16.54-11.3,32.14-10.05,44.71,3.93,39.59,22.55,47.84,27.92,49.42.49.11.97.23,1.46.34,0,0-.04,0-.12-.02,6.63,1.42,14.49,1,23.76-1.92,21.46-6.79,34.46-19.84,34.46-19.84,0,0-49.6-21.47-77.43-72.69Z"/>
  </g>
  <path class="cls-1" d="m76.71,226s-24.77-3.38-29.37-49.76c-4.52-45.56,62.48-130.85,79.73-157.05,18.72-28.44-6.46-17.77-17.75-14.54C98.02,7.88,30.89,30.5,6.36,89.64c-21.41,51.61,13.5,123.95,70.35,136.36"/>
  <g>
    <path class="cls-6" d="m75.44,225.71c-.06-.02-.12-.04-.18-.05-.11-.03-.22-.05-.34-.08.17.04.35.09.52.13Z"/>
    <path class="cls-5" d="m57.39,131.53c-7.09,16.54-11.3,32.14-10.05,44.71,3.93,39.59,22.55,47.84,27.92,49.42.49.11.97.23,1.46.34,0,0-.04,0-.12-.02,6.63,1.42,14.49,1,23.76-1.92,21.46-6.79,34.46-19.84,34.46-19.84,0,0-49.6-21.47-77.43-72.69Z"/>
  </g>
  <g>
    <path class="cls-2" d="m151.34,132.57h7.77l20.65,52.84h-7.77l-5.77-15.91h-22.35l-5.92,15.91h-7.25l20.64-52.84Zm-5.26,31.01h17.91l-8.81-24.64h-.15l-8.95,24.64Z"/>
    <path class="cls-2" d="m190.56,140.27h-6.29v-7.7h6.29v7.7Zm-6.29,6.88h6.29v38.26h-6.29v-38.26Z"/>
    <path class="cls-2" d="m200.1,147.15h5.92v8.07h.15c3.03-6.14,7.25-9.18,14.06-8.95v6.66c-10.14,0-13.84,5.77-13.84,15.47v17.02h-6.29v-38.27Z"/>
    <path class="cls-2" d="m225.19,147.15h6.29v5.18h.15c2.07-4.22,6.96-6.07,12.21-6.07,11.77,0,17.61,9.32,17.61,20.13s-5.77,19.91-17.46,19.91c-3.92,0-9.55-1.48-12.36-5.99h-.15v19.76h-6.29v-52.92h0Zm17.76,4.66c-8.44,0-11.69,7.25-11.69,14.43,0,7.55,3.4,14.51,12.06,14.51s11.47-7.33,11.47-14.8-3.7-14.14-11.84-14.14Z"/>
    <path class="cls-2" d="m283.5,146.26c12.14,0,18.58,8.81,18.58,20.06s-6.44,19.98-18.58,19.98-18.58-8.81-18.58-19.98c0-11.25,6.44-20.06,18.58-20.06Zm0,34.49c6.59,0,11.92-5.18,11.92-14.43s-5.33-14.5-11.92-14.5-11.91,5.18-11.91,14.5c-.01,9.25,5.32,14.43,11.91,14.43Z"/>
    <path class="cls-2" d="m307.4,147.15h5.92v8.07h.15c3.03-6.14,7.25-9.18,14.06-8.95v6.66c-10.14,0-13.84,5.77-13.84,15.47v17.02h-6.29v-38.27Z"/>
    <path class="cls-2" d="m342.84,147.15h7.62v5.55h-7.62v23.76c0,2.89.81,3.4,4.74,3.4h2.89v5.55h-4.81c-6.51,0-9.1-1.33-9.1-8.36v-24.35h-6.51v-5.55h6.51v-11.47h6.29v11.47h-.01Z"/>
  </g>
  <g>
    <path class="cls-2" d="m134.38,28.22h9.94l7.51,22.09h.09l7.11-22.09h9.94v32.13h-6.61v-22.77h-.09l-7.88,22.77h-5.44l-7.87-22.54h-.09v22.54h-6.61V28.22Z"/>
    <path class="cls-2" d="m182.85,28.22h7.24l12.01,32.13h-7.33l-2.43-7.15h-12.01l-2.52,7.15h-7.15l12.19-32.13Zm-.68,19.71h8.32l-4.05-11.79h-.09l-4.18,11.79Z"/>
    <path class="cls-2" d="m225.42,56.7c-2.47,3.19-5.71,4.41-8.82,4.41-9.94,0-15.79-7.42-15.79-16.69s5.85-16.96,15.79-16.96c6.57,0,12.78,4.05,13.54,11.34h-6.75c-.81-3.55-3.46-5.4-6.79-5.4-6.34,0-8.73,5.4-8.73,11.02s2.39,10.75,8.73,10.75c4.59,0,7.24-2.48,7.65-6.93h-7.11v-5.26h13.5v17.37h-4.5l-.72-3.65Z"/>
  </g>
  <g>
    <path class="cls-2" d="m135.79,68.32h16.35l12.36,36.34h.15l11.69-36.34h16.35v52.84h-10.88v-37.45h-.15l-12.95,37.45h-8.96l-12.95-37.08h-.15v37.08h-10.88v-52.84h0Z"/>
    <path class="cls-2" d="m200.24,94.67c.59-9.84,9.4-12.8,17.98-12.8,7.62,0,16.8,1.7,16.8,10.88v19.91c0,3.48.37,6.96,1.33,8.51h-10.66c-.37-1.18-.67-2.44-.74-3.7-3.33,3.48-8.21,4.74-12.88,4.74-7.25,0-13.02-3.63-13.02-11.47,0-8.66,6.51-10.73,13.02-11.62,6.44-.96,12.43-.74,12.43-5.03,0-4.51-3.11-5.18-6.81-5.18-4,0-6.59,1.63-6.96,5.77h-10.51Zm24.27,7.77c-1.78,1.55-5.48,1.63-8.73,2.22-3.26.67-6.22,1.78-6.22,5.62s3.03,4.88,6.44,4.88c8.21,0,8.51-6.51,8.51-8.81v-3.92h0Z"/>
    <path class="cls-2" d="m242.05,82.9h9.99v5.33h.22c2.66-4.29,7.25-6.37,11.69-6.37,11.17,0,13.99,6.29,13.99,15.76v23.53h-10.51v-21.61c0-6.29-1.85-9.4-6.73-9.4-5.7,0-8.14,3.18-8.14,10.95v20.06h-10.51v-38.26h0Z"/>
    <path class="cls-2" d="m310.87,96.37c-.67-4.29-3.4-6.59-7.77-6.59-6.73,0-8.95,6.81-8.95,12.43s2.15,12.06,8.73,12.06c4.88,0,7.7-3.11,8.36-7.77h10.14c-1.33,10.14-8.36,15.69-18.43,15.69-11.55,0-19.32-8.14-19.32-19.61s7.1-20.72,19.54-20.72c9.03,0,17.32,4.74,17.98,14.51h-10.29Z"/>
    <path class="cls-2" d="m326.18,68.32h10.51v19.91h.22c2.66-4.29,7.25-6.37,11.17-6.37,11.17,0,13.99,6.29,13.99,15.76v23.53h-10.51v-21.61c0-6.29-1.85-9.4-6.73-9.4-5.7,0-8.14,3.18-8.14,10.95v20.05h-10.51v-52.84h0Z"/>
    <path class="cls-2" d="m377.61,104.59c.3,6.66,3.55,9.7,9.4,9.7,4.22,0,7.62-2.59,8.29-4.96h9.25c-2.96,9.03-9.25,12.88-17.91,12.88-12.06,0-19.54-8.29-19.54-20.13s7.92-20.2,19.54-20.2c13.02,0,19.32,10.95,18.58,22.72h-27.6Zm17.09-6.66c-.96-5.33-3.26-8.14-8.36-8.14-6.66,0-8.58,5.18-8.73,8.14h17.1Z"/>
    <path class="cls-2" d="m418.46,108.73c.07,4.59,3.92,6.44,8.07,6.44,3.03,0,6.88-1.18,6.88-4.88,0-3.18-4.37-4.29-11.92-5.92-6.07-1.33-12.14-3.48-12.14-10.21,0-9.77,8.44-12.29,16.65-12.29s16.06,2.81,16.87,12.21h-9.99c-.3-4.07-3.4-5.18-7.18-5.18-2.37,0-5.85.44-5.85,3.55,0,3.77,5.92,4.29,11.92,5.7,6.14,1.41,12.14,3.63,12.14,10.73,0,10.06-8.73,13.32-17.46,13.32s-17.54-3.33-17.98-13.47h9.99Z"/>
    <path class="cls-2" d="m462.27,82.9h7.7v7.03h-7.7v18.94c0,3.55.89,4.44,4.44,4.44,1.11,0,2.15-.07,3.26-.3v8.21c-1.78.3-4.07.37-6.14.37-6.44,0-12.06-1.48-12.06-9.1v-22.57h-6.36v-7.03h6.36v-11.47h10.51v11.47h0Z"/>
    <path class="cls-2" d="m482.54,104.59c.3,6.66,3.55,9.7,9.4,9.7,4.22,0,7.62-2.59,8.29-4.96h9.25c-2.96,9.03-9.25,12.88-17.91,12.88-12.06,0-19.54-8.29-19.54-20.13s7.92-20.2,19.54-20.2c13.03,0,19.32,10.95,18.58,22.72h-27.6Zm17.09-6.66c-.96-5.33-3.26-8.14-8.36-8.14-6.66,0-8.59,5.18-8.73,8.14h17.09Z"/>
    <path class="cls-2" d="m515.25,82.9h9.99v7.1h.15c1.92-4.81,7.1-8.14,12.21-8.14.74,0,1.63.15,2.29.37v9.77c-.96-.22-2.52-.37-3.77-.37-7.7,0-10.36,5.55-10.36,12.29v17.24h-10.51v-38.26h0Z"/>
  </g>
</svg>